STARTFONT 2.1
FONT -HP-Mincho-Medium-R-Normal--32-320-75-75-C-320-JISX0212.1990-0
SIZE 32 75 75
FONTBOUNDINGBOX 32 32 0 -2

STARTPROPERTIES 23
FONTNAME_REGISTRY ""
FOUNDRY "HP"
FAMILY_NAME "Mincho"
WEIGHT_NAME "Medium"
SLANT "R"
SETWIDTH_NAME "Normal"
ADD_STYLE_NAME ""
PIXEL_SIZE 32
POINT_SIZE 320
RESOLUTION_X 75
RESOLUTION_Y 75
SPACING "C"
AVERAGE_WIDTH 320
CHARSET_REGISTRY "JISX0212.1990"
CHARSET_ENCODING "0"
COPYRIGHT "Copyright 1994 by Bridge Inc. Copyright (c) 1994 Hewlett-Packard Company.  Magnified by HP from 24x24 to 32x32. "
_HP_ASXVERSION "@(#) ASX 3.00 $Revision: 13.9 $ minX32s"
WEIGHT 10
X_HEIGHT 30
QUAD_WIDTH 32
DEFAULT_CHAR 8481
FONT_DESCENT 2
FONT_ASCENT 30
ENDPROPERTIES

CHARS 6068

STARTCHAR jisx0212_2121
ENCODING 8481
SWIDTH 960 0
DWIDTH 32 0
BBX 32 32 0 -2
BITMAP
00000000
00000000
20000004
00000000
00000000
00000000
00000000
00000000
00000000
00000000
00000000
00000000
00000000
00000000
00000000
00000000
00000000
00000000
00000000
00000000
00000000
00000000
00000000
00000000
00000000
00000000
00000000
00000000
00000000
20000004
00000000
00000000
ENDCHAR

STARTCHAR jisx0212_222F
ENCODING 8751
SWIDTH 960 0
DWIDTH 32 0
BBX 32 32 0 -2
BITMAP
00600600
00700E00
00300C00
001FF800
000FF000
00000000
00000000
00000000
00000000
00000000
00000000
00000000
00000000
00000000
00000000
00000000
00000000
00000000
00000000
00000000
00000000
00000000
00000000
00000000
00000000
00000000
00000000
00000000
00000000
00000000
00000000
00000000
ENDCHAR

STARTCHAR jisx0212_2230
ENCODING 8752
SWIDTH 960 0
DWIDTH 32 0
BBX 32 32 0 -2
BITMAP
00701800
00383000
001C7000
000FE000
00078000
00000000
00000000
00000000
00000000
00000000
00000000
00000000
00000000
00000000
00000000
00000000
00000000
00000000
00000000
00000000
00000000
00000000
00000000
00000000
00000000
00000000
00000000
00000000
00000000
00000000
00000000
00000000
ENDCHAR

STARTCHAR jisx0212_2231
ENCODING 8753
SWIDTH 960 0
DWIDTH 32 0
BBX 32 32 0 -2
BITMAP
00000000
00000000
00000000
00000000
00000000
00000000
00000000
00000000
00000000
00000000
00000000
00000000
00000000
00000000
00000000
00000000
00000000
00000000
00000000
00000000
00000000
00000000
00000000
00008000
00008000
00018000
0001C000
0001E000
00007000
00187000
001C7000
000FE000
ENDCHAR

STARTCHAR jisx0212_2232
ENCODING 8754
SWIDTH 960 0
DWIDTH 32 0
BBX 32 32 0 -2
BITMAP
00018000
0003C000
0007E000
0007E000
00018000
00000000
00000000
00000000
00000000
00000000
00000000
00000000
00000000
00000000
00000000
00000000
00000000
00000000
00000000
00000000
00000000
00000000
00000000
00000000
00000000
00000000
00000000
00000000
00000000
00000000
00000000
00000000
ENDCHAR

STARTCHAR jisx0212_2233
ENCODING 8755
SWIDTH 960 0
DWIDTH 32 0
BBX 32 32 0 -2
BITMAP
000E0E00
000F0F00
000F0F00
001E1E00
00181800
00303000
00707000
00606000
00000000
00000000
00000000
00000000
00000000
00000000
00000000
00000000
00000000
00000000
00000000
00000000
00000000
00000000
00000000
00000000
00000000
00000000
00000000
00000000
00000000
00000000
00000000
00000000
ENDCHAR

STARTCHAR jisx0212_2234
ENCODING 8756
SWIDTH 960 0
DWIDTH 32 0
BBX 32 32 0 -2
BITMAP
00FFFF00
00000000
00000000
00000000
00000000
00000000
00000000
00000000
00000000
00000000
00000000
00000000
00000000
00000000
00000000
00000000
00000000
00000000
00000000
00000000
00000000
00000000
00000000
00000000
00000000
00000000
00000000
00000000
00000000
00000000
00000000
00000000
ENDCHAR

STARTCHAR jisx0212_2235
ENCODING 8757
SWIDTH 960 0
DWIDTH 32 0
BBX 32 32 0 -2
BITMAP
00000000
00000000
00000000
00000000
00000000
00000000
00000000
00000000
00000000
00000000
00000000
00000000
00000000
00000000
00000000
00000000
00000000
00000000
00000000
00000000
00000000
00000000
00000000
00000E00
00001800
00003000
00007000
00006000
00006180
00007F80
00003F80
00001F00
ENDCHAR

STARTCHAR jisx0212_2236
ENCODING 8758
SWIDTH 960 0
DWIDTH 32 0
BBX 32 32 0 -2
BITMAP
00078000
000EC000
000CE000
00086000
000EE000
0007C000
00038000
00000000
00000000
00000000
00000000
00000000
00000000
00000000
00000000
00000000
00000000
00000000
00000000
00000000
00000000
00000000
00000000
00000000
00000000
00000000
00000000
00000000
00000000
00000000
00000000
00000000
ENDCHAR

STARTCHAR jisx0212_2237
ENCODING 8759
SWIDTH 960 0
DWIDTH 32 0
BBX 32 32 0 -2
BITMAP
001E0100
003F8300
007FC700
00E1FE00
00807800
00000000
00000000
00000000
00000000
00000000
00000000
00000000
00000000
00000000
00000000
00000000
00000000
00000000
00000000
00000000
00000000
00000000
00000000
00000000
00000000
00000000
00000000
00000000
00000000
00000000
00000000
00000000
ENDCHAR

STARTCHAR jisx0212_2238
ENCODING 8760
SWIDTH 960 0
DWIDTH 32 0
BBX 32 32 0 -2
BITMAP
00010000
00038000
00078000
00078000
00078000
00030000
00010000
00010000
00010000
00000000
00000000
00000000
00000000
00000000
00000000
00000000
00000000
00000000
00000000
00000000
00000000
00000000
00000000
00000000
00000000
00000000
00000000
00000000
00000000
00000000
00000000
00000000
ENDCHAR

STARTCHAR jisx0212_2239
ENCODING 8761
SWIDTH 960 0
DWIDTH 32 0
BBX 32 32 0 -2
BITMAP
00010000
00038000
00078000
00078000
00078000
00030000
00010000
00010000
00010000
00000000
00000000
00701800
00F87E00
00703C00
00301800
00000000
00000000
00000000
00000000
00000000
00000000
00000000
00000000
00000000
00000000
00000000
00000000
00000000
00000000
00000000
00000000
00000000
ENDCHAR

STARTCHAR jisx0212_2242
ENCODING 8770
SWIDTH 960 0
DWIDTH 32 0
BBX 32 32 0 -2
BITMAP
00000000
00000000
00000000
00070000
000F8000
00070000
00030000
00000000
00000000
00010000
00010000
00010000
00010000
00010000
00010000
00010000
00010000
00038000
00078000
00078000
00078000
00078000
00078000
00078000
00078000
00078000
00078000
00078000
00010000
00000000
00000000
00000000
ENDCHAR

STARTCHAR jisx0212_2243
ENCODING 8771
SWIDTH 960 0
DWIDTH 32 0
BBX 32 32 0 -2
BITMAP
00018000
00018000
00018000
00018000
00018000
00018000
00018000
00018000
00018000
00018000
00018000
00018000
00018000
00000000
00000000
00000000
00000000
00000000
00000000
00018000
00018000
00018000
00018000
00018000
00018000
00018000
00018000
00018000
00018000
00018000
00018000
00018000
ENDCHAR

STARTCHAR jisx0212_2244
ENCODING 8772
SWIDTH 960 0
DWIDTH 32 0
BBX 32 32 0 -2
BITMAP
00000000
00000000
00000000
00018000
0007E000
0003C000
00018000
00000000
00000000
00008000
00008000
00008000
00008000
00018000
00038000
00070000
000E0000
001C0000
00380000
00700000
00700600
00E00F00
00E00F00
00E00F00
00E00700
00700600
00700600
00781E00
000FF000
00000000
00000000
00000000
ENDCHAR

STARTCHAR jisx0212_226B
ENCODING 8811
SWIDTH 960 0
DWIDTH 32 0
BBX 32 32 0 -2
BITMAP
00000000
00000000
00000000
0FF00000
18180000
300C0000
700E0000
700E0000
700E0000
700E0000
700E0000
700E0000
700E0000
700E0000
300C0000
18180000
0FF00000
00000000
00000000
00000000
FFFF0000
00000000
00000000
00000000
00000000
00000000
00000000
00000000
00000000
00000000
00000000
00000000
ENDCHAR

STARTCHAR jisx0212_226C
ENCODING 8812
SWIDTH 960 0
DWIDTH 32 0
BBX 32 32 0 -2
BITMAP
00000000
00000000
00000000
0FF00000
18180000
1C180000
1C180000
08180000
07F80000
1E380000
3C180000
70180000
70180000
70190000
703F0000
707F0000
1FEE0000
00000000
00000000
00000000
FFFF0000
00000000
00000000
00000000
00000000
00000000
00000000
00000000
00000000
00000000
00000000
00000000
ENDCHAR

STARTCHAR jisx0212_226D
ENCODING 8813
SWIDTH 960 0
DWIDTH 32 0
BBX 32 32 0 -2
BITMAP
001FF800
00F00F00
00F00F00
078001E0
0E000070
1C000038
18000018
1007F608
701E1E0E
60300706
60700306
E0700107
80E00101
80E00001
80E00001
80E00001
80E00001
80E00001
80E00001
80E00101
E0700107
60700306
60300706
701E1E0E
1007F008
18000018
1C000038
0E000070
078001E0
00F00F00
00F00F00
001FF800
ENDCHAR

STARTCHAR jisx0212_226E
ENCODING 8814
SWIDTH 960 0
DWIDTH 32 0
BBX 32 32 0 -2
BITMAP
001FF800
00F00F00
00F00F00
078001E0
0E000070
1C000038
18000018
11FFF808
70700E0E
60700706
60700706
E0700707
80700701
80700E01
80700C01
807FF801
80707001
80703801
80701801
80701801
E0701807
60701806
60701C06
70700EEE
11FE0788
18000018
1C000038
0E000070
078001E0
00F00F00
00F00F00
001FF800
ENDCHAR

STARTCHAR jisx0212_226F
ENCODING 8815
SWIDTH 960 0
DWIDTH 32 0
BBX 32 32 0 -2
BITMAP
7FF701E0
E73B01C0
C7190380
87098780
07018780
0701CF80
0701EF80
0701E980
07017980
07017980
07013980
07011180
0F8797E0
00000000
00000000
00000000
00000000
00000000
00000000
00000000
00000000
00000000
00000000
00000000
00000000
00000000
00000000
00000000
00000000
00000000
00000000
00000000
ENDCHAR

STARTCHAR jisx0212_2270
ENCODING 8816
SWIDTH 960 0
DWIDTH 32 0
BBX 32 32 0 -2
BITMAP
00000000
00000000
00000000
00000000
08000010
0C000030
0E000070
070FF0E0
01F81F80
00E00700
00C00300
00800100
01800180
01000080
01000080
01000080
01000080
01000080
01000080
01800180
00800100
00C00300
00E00700
01F81F80
070FF0E0
0E000070
0C000030
08000010
00000000
00000000
00000000
00000000
ENDCHAR

STARTCHAR jisx0212_2271
ENCODING 8817
SWIDTH 960 0
DWIDTH 32 0
BBX 32 32 0 -2
BITMAP
00000000
00000000
00000000
F807F1F8
1800870E
1C008E07
1E008E07
1E008E07
17008E07
17008E07
13008E07
11808E07
11808E07
10C08E07
10E08E07
10E0870E
107081F8
10708000
10308000
10188000
10188000
100C8000
100E8000
100E8000
10078000
10078000
10038000
10018000
FE018000
00000000
00000000
00000000
ENDCHAR

STARTCHAR jisx0212_2661
ENCODING 9825
SWIDTH 960 0
DWIDTH 32 0
BBX 32 32 0 -2
BITMAP
01000000
03800000
07800000
07818000
07818000
0303C000
0107E000
0106E000
010E7000
000C7000
00087000
00087000
00181800
00101800
00301C00
00700E00
00600E00
00600E00
00600E00
00E00700
00800700
01FFFF80
01FFFF80
01000180
01000180
030000C0
070000E0
060000E0
1F8007F8
00000000
00000000
00000000
ENDCHAR

STARTCHAR jisx0212_2662
ENCODING 9826
SWIDTH 960 0
DWIDTH 32 0
BBX 32 32 0 -2
BITMAP
10000000
38000000
78000000
78FFFFE0
781800E0
30180070
10180030
10180010
10180010
00180000
00180000
00180100
00180100
00180300
001C0700
001FFF00
00180700
00180300
00180100
00180100
00180000
00180000
00180000
00180008
00180008
00180018
00180038
00180070
00FFFFF0
00000000
00000000
00000000
ENDCHAR

STARTCHAR jisx0212_2663
ENCODING 9827
SWIDTH 960 0
DWIDTH 32 0
BBX 32 32 0 -2
BITMAP
60000000
F0000000
F0000000
F7F801FE
F0E00070
60E00070
60E00070
60E00070
60E00070
00E00070
00E00070
00E00070
00E00070
00E00070
00E00070
00FFFFF0
00E00070
00E00070
00E00070
00E00070
00E00070
00E00070
00E00070
00E00070
00E00070
00E00070
00E00070
00E00070
07F801FE
00000000
00000000
00000000
ENDCHAR

STARTCHAR jisx0212_2664
ENCODING 9828
SWIDTH 960 0
DWIDTH 32 0
BBX 32 32 0 -2
BITMAP
00600000
00F00000
00F00000
00F1FE00
00F07000
00607000
00607000
00607000
00607000
00007000
00007000
00007000
00007000
00007000
00007000
00007000
00007000
00007000
00007000
00007000
00007000
00007000
00007000
00007000
00007000
00007000
00007000
00007000
0001FE00
00000000
00000000
00000000
ENDCHAR

STARTCHAR jisx0212_2665
ENCODING 9829
SWIDTH 960 0
DWIDTH 32 0
BBX 32 32 0 -2
BITMAP
00181800
003C3C00
003C3C00
00181800
00000000
001FF800
001FF800
00018000
00018000
00018000
00018000
00018000
00018000
00018000
00018000
00018000
00018000
00018000
00018000
00018000
00018000
00018000
00018000
00018000
00018000
00018000
00018000
00018000
000FF000
00000000
00000000
00000000
ENDCHAR

STARTCHAR jisx0212_2667
ENCODING 9831
SWIDTH 960 0
DWIDTH 32 0
BBX 32 32 0 -2
BITMAP
10000000
38000000
78000000
7807F800
781E0F00
30300380
107001C0
10E000E0
11800070
01800070
03800030
07000018
07000018
07000018
07000018
07000018
07000018
07000018
07000018
07000018
07000018
03800030
01800070
01800070
00E000E0
007001C0
00300380
001E0F00
0007F800
00000000
00000000
00000000
ENDCHAR

STARTCHAR jisx0212_2669
ENCODING 9833
SWIDTH 960 0
DWIDTH 32 0
BBX 32 32 0 -2
BITMAP
10000000
38000000
78000000
787F07F0
78E18E18
31C0FC0C
1180F80E
11007006
11007006
00007000
00007000
00007000
00007000
00007000
00007000
00007000
00007000
00007000
00007000
00007000
00007000
00007000
00007000
00007000
00007000
00007000
00007000
00007000
0001FE00
00000000
00000000
00000000
ENDCHAR

STARTCHAR jisx0212_266A
ENCODING 9834
SWIDTH 960 0
DWIDTH 32 0
BBX 32 32 0 -2
BITMAP
00181800
003C3C00
003C3C00
00181800
00000000
01F81F80
03FC3FC0
070E70E0
0E07E070
0C03C030
08018010
08018010
00018000
00018000
00018000
00018000
00018000
00018000
00018000
00018000
00018000
00018000
00018000
00018000
00018000
00018000
00018000
00018000
000FF000
00000000
00000000
00000000
ENDCHAR

STARTCHAR jisx0212_266C
ENCODING 9836
SWIDTH 960 0
DWIDTH 32 0
BBX 32 32 0 -2
BITMAP
08000000
1C000000
1E000000
1E01FE00
1E0F0780
0C1C00C0
083800E0
08700070
08700070
00E00038
00E00018
00E00018
00E00018
00E00018
00E00018
00E00018
00E00018
00700030
00700070
00700070
001800E0
000F03C0
000F0780
00618E10
00608810
00708830
00708C70
007F8FF0
007F8FF0
00000000
00000000
00000000
ENDCHAR

STARTCHAR jisx0212_2671
ENCODING 9841
SWIDTH 960 0
DWIDTH 32 0
BBX 32 32 0 -2
BITMAP
00010000
00038000
00078000
00078000
00078000
00030000
00010000
00010000
00010000
00000000
00000000
0007E060
001E7060
003038E0
007018C0
00E01880
01801980
01801900
03801F00
07001F00
07001E00
07001C00
07001800
07001860
07007860
0700F8E0
0300FCC0
01878F80
00FE0700
00000000
00000000
00000000
ENDCHAR

STARTCHAR jisx0212_2672
ENCODING 9842
SWIDTH 960 0
DWIDTH 32 0
BBX 32 32 0 -2
BITMAP
00010000
00038000
00078000
00078000
00078000
00030000
00010000
00010000
00010000
00000000
00000000
000FF800
00180E00
00301F00
00701F00
00700E00
00700000
00380000
003C0000
007FF000
00E00000
01C00080
01800080
01800080
01800180
01800300
01C00700
00E01E00
007FF000
00000000
00000000
00000000
ENDCHAR

STARTCHAR jisx0212_2673
ENCODING 9843
SWIDTH 960 0
DWIDTH 32 0
BBX 32 32 0 -2
BITMAP
00008000
0001C000
0001E000
0001E000
0001E000
0000C000
00008000
00008000
00008000
00000000
00000000
00F8FF00
018F8180
000F00C0
000F00E0
000E00E0
001800E0
001800E0
001800E0
001800E0
00700180
00700180
00700180
00700180
00E00700
00E00700
00E00700
00E00700
07F80E00
00000E00
00000E00
00007F80
ENDCHAR

STARTCHAR jisx0212_2674
ENCODING 9844
SWIDTH 960 0
DWIDTH 32 0
BBX 32 32 0 -2
BITMAP
00010000
00038000
00078000
00078000
00078000
00030000
00010000
00010000
00010000
00000000
00000000
000F8000
00018000
00018000
00038000
00070000
00070000
00070000
00070000
000E0000
000E0000
000E0000
000C0000
00180600
00180E00
00183C00
001C7800
001FF000
000F8000
00000000
00000000
00000000
ENDCHAR

STARTCHAR jisx0212_2675
ENCODING 9845
SWIDTH 960 0
DWIDTH 32 0
BBX 32 32 0 -2
BITMAP
00000000
00000000
00000000
00181800
007E7E00
003C3C00
00181800
00000000
00000000
00000000
00000000
000F8000
00018000
00018000
00038000
00070000
00070000
00070000
00070000
000E0000
000E0000
000E0000
000C0000
00180600
00180E00
00183C00
001C7800
001FF000
000F8000
00000000
00000000
00000000
ENDCHAR

STARTCHAR jisx0212_2676
ENCODING 9846
SWIDTH 960 0
DWIDTH 32 0
BBX 32 32 0 -2
BITMAP
00010000
00038000
00078000
00078000
00010000
00311800
00713C00
00F87E00
00701800
00000000
00000000
000F8000
00018000
00018000
00038000
00070000
00070000
00070000
00070000
000E0000
000E0000
000E0000
000C0000
00180600
00180E00
00183C00
001C7800
001FF000
000F8000
00000000
00000000
00000000
ENDCHAR

STARTCHAR jisx0212_2677
ENCODING 9847
SWIDTH 960 0
DWIDTH 32 0
BBX 32 32 0 -2
BITMAP
00008000
0001C000
0001E000
0001E000
0001E000
0000C000
00008000
00008000
00008000
00000000
00000000
0007F800
001E0F00
00300700
00700300
00E00180
00E00180
01C00180
01800180
01800180
01800180
01800180
01800380
01800700
01800700
00C00E00
00E00C00
00F07800
001FE000
00000000
00000000
00000000
ENDCHAR

STARTCHAR jisx0212_2678
ENCODING 9848
SWIDTH 960 0
DWIDTH 32 0
BBX 32 32 0 -2
BITMAP
00000000
00000000
00000000
00000000
00000000
00000000
00000000
00000000
00000000
00000000
00000000
0007F000
001E1E00
00300700
00700300
00E00180
00E00180
00E00380
00E00780
00E00700
00700000
00780000
003C0000
001F0000
000F8000
0003C000
0001E000
0000E000
00E0E000
00F1C000
00F38000
007F0000
ENDCHAR

STARTCHAR jisx0212_2679
ENCODING 9849
SWIDTH 960 0
DWIDTH 32 0
BBX 32 32 0 -2
BITMAP
00010000
00038000
00078000
00078000
00078000
00030000
00010000
00010000
00010000
00000000
00000000
00600E00
00F00700
00700700
00700300
00700180
00700180
00E00180
00E00180
00E00180
00E00180
01C00300
01800700
01800700
01800E00
01801C00
01C03800
00E0F000
007F8000
00000000
00000000
00000000
ENDCHAR

STARTCHAR jisx0212_267A
ENCODING 9850
SWIDTH 960 0
DWIDTH 32 0
BBX 32 32 0 -2
BITMAP
00000000
00000000
00000000
00181800
007E7E00
003C3C00
00181800
00000000
00000000
00000000
00000000
00600E00
00F00700
00700700
00700300
00700180
00700180
00E00180
00E00180
00E00180
00E00180
01C00300
01800700
01800700
01800E00
01801C00
01C03800
00E0F000
007F8000
00000000
00000000
00000000
ENDCHAR

STARTCHAR jisx0212_267B
ENCODING 9851
SWIDTH 960 0
DWIDTH 32 0
BBX 32 32 0 -2
BITMAP
00010000
00038000
00078000
00078000
00010000
00311800
00713C00
00F87E00
00701800
00000000
00000000
00600E00
00F00700
00700700
00700300
00700180
00700180
00E00180
00E00180
00E00180
00E00180
01C00300
01800700
01800700
01800E00
01801C00
01C03800
00E0F000
007F8000
00000000
00000000
00000000
ENDCHAR

STARTCHAR jisx0212_267C
ENCODING 9852
SWIDTH 960 0
DWIDTH 32 0
BBX 32 32 0 -2
BITMAP
00008000
0001C000
0001E000
0001E000
0001E000
0000C000
00008000
00008000
00008000
00000000
00000000
00180700
00700180
00E000C0
00C000E0
018000E0
0700E070
0700E070
0700E070
0E00E070
0E018070
0E018070
0E018070
0E0180E0
0E0700E0
0E0701C0
0E070380
070F8700
01F8FE00
00000000
00000000
00000000
ENDCHAR

STARTCHAR jisx0212_2742
ENCODING 10050
SWIDTH 960 0
DWIDTH 32 0
BBX 32 32 0 -2
BITMAP
00000000
00000000
00000000
1FFFFF00
180E0700
300E0380
700E0180
600E0080
600E0080
000E0000
000E0000
000E7F00
000FE1E0
000F0070
000F0070
000E0070
000E0018
000E0018
000E0018
000E0018
000E0018
000E0018
000E0018
000E0818
000E1E70
000E1E70
000E1C70
000E18E0
007F8F80
00000000
00000000
00000000
ENDCHAR

STARTCHAR jisx0212_2743
ENCODING 10051
SWIDTH 960 0
DWIDTH 32 0
BBX 32 32 0 -2
BITMAP
00007000
0001F000
0003F000
000F0000
00000000
01FFFF80
01FFFF80
00700180
007000E0
00700060
00700060
00700060
00700000
00700000
00700000
00700000
00700000
00700000
00700000
00700000
00700000
00700000
00700000
00700000
00700000
00700000
00700000
00700000
01FF0000
00000000
00000000
00000000
ENDCHAR

STARTCHAR jisx0212_2744
ENCODING 10052
SWIDTH 960 0
DWIDTH 32 0
BBX 32 32 0 -2
BITMAP
00000000
00000000
00000000
000FF080
00781E80
00E00780
00C00380
01800180
070000E0
07000060
07000060
0E000060
0E000000
0E000000
0E000000
0FFFFE00
0E000000
0E000000
0E000000
0E000060
0E000060
070000E0
070000C0
07000080
01800180
00C00300
00E00700
00781E00
000FF000
00000000
00000000
00000000
ENDCHAR

STARTCHAR jisx0212_2745
ENCODING 10053
SWIDTH 960 0
DWIDTH 32 0
BBX 32 32 0 -2
BITMAP
00000000
00000000
00000000
007FF100
01E01F00
01C00700
03800300
07000180
07000080
07000080
03000080
01800000
01F00000
007F0000
003F0000
000FF000
0000FF00
00000F80
00000FC0
060001E0
060000E0
070000E0
070000E0
070000E0
018000E0
01C001C0
01E00380
01780F00
010FF800
00000000
00000000
00000000
ENDCHAR

STARTCHAR jisx0212_2746
ENCODING 10054
SWIDTH 960 0
DWIDTH 32 0
BBX 32 32 0 -2
BITMAP
00000000
00000000
00000000
000FF000
00018000
00018000
00018000
00018000
00018000
00018000
00018000
00018000
00018000
00018000
00018000
00018000
00018000
00018000
00018000
00018000
00018000
00018000
00018000
00018000
00018000
00018000
00018000
00018000
000FF000
00000000
00000000
00000000
ENDCHAR

STARTCHAR jisx0212_2747
ENCODING 10055
SWIDTH 960 0
DWIDTH 32 0
BBX 32 32 0 -2
BITMAP
00181800
003C3C00
003C3C00
00181800
00000000
001FF800
001FF800
00018000
00018000
00018000
00018000
00018000
00018000
00018000
00018000
00018000
00018000
00018000
00018000
00018000
00018000
00018000
00018000
00018000
00018000
00018000
00018000
00018000
000FF000
00000000
00000000
00000000
ENDCHAR

STARTCHAR jisx0212_2748
ENCODING 10056
SWIDTH 960 0
DWIDTH 32 0
BBX 32 32 0 -2
BITMAP
00000000
00000000
00000000
0000FF00
00001800
00001800
00001800
00001800
00001800
00001800
00001800
00001800
00001800
00001800
00001800
00001800
00001800
00001800
00001800
00001800
00001800
00C01800
00E01800
01F01800
01E07000
00E07000
00E07000
0070E000
001F8000
00000000
00000000
00000000
ENDCHAR

STARTCHAR jisx0212_2749
ENCODING 10057
SWIDTH 960 0
DWIDTH 32 0
BBX 32 32 0 -2
BITMAP
00000000
00000000
00000000
00FFFE00
00187000
00187000
00187000
00187000
00187000
00187000
00187000
00187000
00187000
00187FC0
00187FE0
00187078
0018700E
0018700E
0018700E
00187007
00187007
30187007
70187007
F8187007
F070700E
7070700E
3070700C
18E07078
0F81FFE0
00000000
00000000
00000000
ENDCHAR

STARTCHAR jisx0212_274A
ENCODING 10058
SWIDTH 960 0
DWIDTH 32 0
BBX 32 32 0 -2
BITMAP
00000000
00000000
00000000
FF07F800
1800E000
1800E000
1800E000
1800E000
1800E000
1800E000
1800E000
1800E000
1800E000
1FFFFFC0
1FFFFFE0
1800E078
1800E00E
1800E00E
1800E00E
1800E007
1800E007
1800E007
1800E007
1800E007
1800E00E
1800E00E
1800E00C
1800E078
FF07FFE0
00000000
00000000
00000000
ENDCHAR

STARTCHAR jisx0212_274B
ENCODING 10059
SWIDTH 960 0
DWIDTH 32 0
BBX 32 32 0 -2
BITMAP
00000000
00000000
00000000
1FFFFF00
180E0700
300E0380
700E0180
600E0080
600E0080
000E0000
000E0000
000EFF00
000F81E0
000F00E0
000F00E0
000E0070
000E0070
000E0070
000E0070
000E0070
000E0070
000E0070
000E0070
000E0070
000E0070
000E0070
000E0070
000E0070
007F81FE
00000000
00000000
00000000
ENDCHAR

STARTCHAR jisx0212_274C
ENCODING 10060
SWIDTH 960 0
DWIDTH 32 0
BBX 32 32 0 -2
BITMAP
00007000
0001F000
0003F000
000F0000
00000000
0FF01FC0
0FF01FC0
01800700
01800E00
01801C00
01801800
01801000
01807000
0180E000
01C0C000
01FF8000
01818000
0180C000
0180E000
0180F000
01807000
01803800
01801C00
01801E00
01800E00
01800700
01800700
01800780
0FF01FF0
00000000
00000000
00000000
ENDCHAR

STARTCHAR jisx0212_274D
ENCODING 10061
SWIDTH 960 0
DWIDTH 32 0
BBX 32 32 0 -2
BITMAP
00181800
003C3C00
003C3C00
00181800
000FF000
00000000
00000000
07F81FE0
00E00700
00700600
00700600
00700E00
00180800
00181800
001C1800
000E1000
000E7000
00076000
00076000
0007E000
00018000
00018000
00018000
00810000
01E70000
01E60000
01C60000
018E0000
00F80000
00000000
00000000
00000000
ENDCHAR

STARTCHAR jisx0212_274E
ENCODING 10062
SWIDTH 960 0
DWIDTH 32 0
BBX 32 32 0 -2
BITMAP
00000000
00000000
00000000
1FE00FF0
07000180
07000180
07000180
07000180
07000180
07000180
07000180
07000180
07000180
07000180
07000180
07000180
07000180
07000180
07000180
07000180
07000180
07000180
07000180
07000180
07000180
07000180
070003C0
1FFFFFF0
00010000
00010000
00010000
00010000
ENDCHAR

STARTCHAR jisx0212_2772
ENCODING 10098
SWIDTH 960 0
DWIDTH 32 0
BBX 32 32 0 -2
BITMAP
00000000
00000000
00000000
00E00000
07E00000
00E00000
00E00000
00E00000
0FFE0000
00E00000
00E00000
00E7F000
00FE1E00
00F00E00
00F00E00
00E00700
00E00700
00E00700
00E00700
00E00700
00E00700
00E00700
00E00700
00E00700
00E00700
00E00700
00E00700
00E08700
07F9E600
0001EE00
0001EC00
0000F800
ENDCHAR

STARTCHAR jisx0212_2773
ENCODING 10099
SWIDTH 960 0
DWIDTH 32 0
BBX 32 32 0 -2
BITMAP
00000000
00000000
00000000
00007000
0001F000
000F0000
000F0000
00000000
00000000
00000000
00000000
00FFFE00
00180E00
00180700
00180300
00180100
00180100
00180000
00180000
00180000
00180000
00180000
00180000
00180000
00180000
00180000
00180000
00180000
00FF0000
00000000
00000000
00000000
ENDCHAR

STARTCHAR jisx0212_2774
ENCODING 10100
SWIDTH 960 0
DWIDTH 32 0
BBX 32 32 0 -2
BITMAP
00000000
00000000
00000000
00000000
00000000
00000000
00000000
00000000
00000000
00000000
00000000
000FE000
00787800
00E00C00
00E00E00
00E01F00
01800E00
01800000
01C00000
01FFE000
01800000
01800000
01800000
01800100
00E00700
00E00E00
00E00C00
00787800
000FE000
00000000
00000000
00000000
ENDCHAR

STARTCHAR jisx0212_2775
ENCODING 10101
SWIDTH 960 0
DWIDTH 32 0
BBX 32 32 0 -2
BITMAP
00000000
00000000
00000000
00000000
00000000
00000000
00000000
00000000
00000000
00000000
00000000
001FF600
00701E00
00E00E00
00E00E00
00E00600
00F00600
007F0000
003F0000
000FF000
0000FE00
00800F00
00800F00
00800700
00E00700
00E00700
00E00700
00F80E00
008FF800
00000000
00000000
00000000
ENDCHAR

STARTCHAR jisx0212_2776
ENCODING 10102
SWIDTH 960 0
DWIDTH 32 0
BBX 32 32 0 -2
BITMAP
00000000
00000000
00000000
00018000
0007E000
0003C000
00018000
00000000
00000000
00000000
00000000
00018000
000F8000
00038000
00018000
00018000
00018000
00018000
00018000
00018000
00018000
00018000
00018000
00018000
00018000
00018000
00018000
00018000
000FF000
00000000
00000000
00000000
ENDCHAR

STARTCHAR jisx0212_2777
ENCODING 10103
SWIDTH 960 0
DWIDTH 32 0
BBX 32 32 0 -2
BITMAP
00000000
00000000
00000000
00181800
007E7E00
003C3C00
00181800
00000000
00000000
00000000
00000000
00018000
000F8000
00038000
00018000
00018000
00018000
00018000
00018000
00018000
00018000
00018000
00018000
00018000
00018000
00018000
00018000
00018000
000FF000
00000000
00000000
00000000
ENDCHAR

STARTCHAR jisx0212_2778
ENCODING 10104
SWIDTH 960 0
DWIDTH 32 0
BBX 32 32 0 -2
BITMAP
00000000
00000000
00000000
0000E000
0001F000
0000E000
0000C000
00000000
00000000
00000000
00000000
0000E000
0007E000
0000E000
0000E000
0000E000
0000E000
0000E000
0000E000
0000E000
0000E000
0000E000
0000E000
0000E000
0000E000
0000E000
0000E000
0070E000
00F8E000
0071C000
00338000
001F0000
ENDCHAR

STARTCHAR jisx0212_2779
ENCODING 10105
SWIDTH 960 0
DWIDTH 32 0
BBX 32 32 0 -2
BITMAP
00000000
00000000
00000000
00000000
00000000
00000000
00000000
00000000
00000000
00000000
00000000
01FFF800
0070E000
0070E000
0070E000
0070E000
0070E000
0070E000
0070E000
0070FFE0
0070E070
0070E038
0070E018
0070E018
1870E018
3C70E018
3C70E038
18E0E070
0F87FFE0
00000000
00000000
00000000
ENDCHAR

STARTCHAR jisx0212_277A
ENCODING 10106
SWIDTH 960 0
DWIDTH 32 0
BBX 32 32 0 -2
BITMAP
00000000
00000000
00000000
00000000
00000000
00000000
00000000
00000000
00000000
00000000
00000000
1FE7F800
0700E000
0700E000
0700E000
0700E000
0700E000
0700E000
0700E000
07FFFFE0
0700E070
0700E038
0700E018
0700E018
0700E018
0700E018
0700E038
0700E070
1FE7FFE0
00000000
00000000
00000000
ENDCHAR

STARTCHAR jisx0212_277B
ENCODING 10107
SWIDTH 960 0
DWIDTH 32 0
BBX 32 32 0 -2
BITMAP
00000000
00000000
00000000
00E00000
07E00000
00E00000
00E00000
0FFFE000
00E00000
00E00000
00E00000
00E7F000
00FE1E00
00F00E00
00F00E00
00E00700
00E00700
00E00700
00E00700
00E00700
00E00700
00E00700
00E00700
00E00700
00E00700
00E00700
00E00700
00E00700
07F81FE0
00000000
00000000
00000000
ENDCHAR

STARTCHAR jisx0212_277C
ENCODING 10108
SWIDTH 960 0
DWIDTH 32 0
BBX 32 32 0 -2
BITMAP
00000000
00000000
00000000
00007000
0001F000
000F0000
000F0000
00000000
00000000
00000000
00000000
01FE7F80
00700E00
00700C00
00700800
00701800
00701000
00703000
00707000
007FF000
00707000
00703800
00701800
00701800
00700E00
00700E00
00700E00
00700700
01FE1FE0
00000000
00000000
00000000
ENDCHAR

STARTCHAR jisx0212_277D
ENCODING 10109
SWIDTH 960 0
DWIDTH 32 0
BBX 32 32 0 -2
BITMAP
00000000
00000000
00000000
00181800
007E7E00
003C3C00
001C3800
000FF000
00000000
00000000
00000000
01FE0FE0
00700100
00700300
00300700
00180600
00180E00
000C0C00
000E0800
000E1800
00071000
00073000
00037000
0001E000
0001E000
0000C000
00008000
00618000
00F10000
00F30000
00F70000
007E0000
ENDCHAR

STARTCHAR jisx0212_277E
ENCODING 10110
SWIDTH 960 0
DWIDTH 32 0
BBX 32 32 0 -2
BITMAP
00000000
00000000
00000000
00000000
00000000
00000000
00000000
00000000
00000000
00000000
00000000
07F87F80
00E00E00
00E00E00
00E00E00
00E00E00
00E00E00
00E00E00
00E00E00
00E00E00
00E00E00
00E00E00
00E00E00
00E00E00
00E00E00
00E00E00
00E00E00
07FFFF80
00010000
00010000
00010000
00010000
ENDCHAR

STARTCHAR jisx0212_2921
ENCODING 10529
SWIDTH 960 0
DWIDTH 32 0
BBX 32 32 0 -2
BITMAP
00000000
00000000
00000000
001FFFF8
0007E018
0006E00C
0006E00E
000EE006
0008E006
0018E000
0018E000
0010E060
0070E060
0060E0E0
0060E0E0
00E0FFE0
0080E0E0
0180E060
01C0E060
01FFE060
0700E000
0600E000
0600E000
0E00E001
0800E001
1800E003
1800E007
1000E00E
FE07FFFE
00000000
00000000
00000000
ENDCHAR

STARTCHAR jisx0212_2922
ENCODING 10530
SWIDTH 960 0
DWIDTH 32 0
BBX 32 32 0 -2
BITMAP
00000000
00000000
00000000
0FFFF000
01801E00
01800700
01800300
01800180
01800180
018000C0
018000E0
018000E0
018000E0
018000E0
03C000E0
7FFE00E0
018000E0
018000E0
018000E0
018000E0
018000E0
018000E0
018000C0
01800180
01800180
01800300
01800700
01801E00
0FFFF000
00000000
00000000
00000000
ENDCHAR

STARTCHAR jisx0212_2924
ENCODING 10532
SWIDTH 960 0
DWIDTH 32 0
BBX 32 32 0 -2
BITMAP
00000000
00000000
00000000
1FE00FF0
07000180
07000180
07000180
07000180
FFFFFFFE
070003C0
07000180
07000180
07000180
07000180
07000380
07FFFF80
07000180
07000180
07000180
07000180
07000180
07000180
07000180
07000180
07000180
07000180
07000180
07000180
1FE00FF0
00000000
00000000
00000000
ENDCHAR

STARTCHAR jisx0212_2926
ENCODING 10534
SWIDTH 960 0
DWIDTH 32 0
BBX 32 32 0 -2
BITMAP
00000000
00000000
00000000
0FF007F8
018000E0
018000E0
018000E0
018000E0
018000E0
018000E0
018000E0
018000E0
018000E0
018000E0
018000E0
018000E0
018000E0
018000E0
018000E0
018000E0
018000E0
018300E0
018700E0
018F80E0
018F0180
01870180
01830380
01818700
0FF0FE00
00000000
00000000
00000000
ENDCHAR

STARTCHAR jisx0212_2928
ENCODING 10536
SWIDTH 960 0
DWIDTH 32 0
BBX 32 32 0 -2
BITMAP
00000000
00000000
00000000
07F80000
00E00000
00E00000
00E00000
00E00000
00E10000
00E30000
00E70000
00EE0000
00F80000
00F00000
00F00000
00E00000
01E00000
03E00000
07E00000
0EE00000
18E00000
10E00000
10E00000
00E00060
00E00060
00E000E0
00E000C0
00E00180
07FFFF80
00000000
00000000
00000000
ENDCHAR

STARTCHAR jisx0212_2929
ENCODING 10537
SWIDTH 960 0
DWIDTH 32 0
BBX 32 32 0 -2
BITMAP
00000000
00000000
00000000
07F80000
00E00000
00E00000
00E00000
00E00000
00E00000
00E00000
00E00000
00E00000
00E00000
00E18000
00E3C000
00E7E000
00E18000
00E00000
00E00000
00E00000
00E00000
00E00000
00E00000
00E00060
00E00060
00E000E0
00E000C0
00E00180
07FFFF80
00000000
00000000
00000000
ENDCHAR

STARTCHAR jisx0212_292B
ENCODING 10539
SWIDTH 960 0
DWIDTH 32 0
BBX 32 32 0 -2
BITMAP
00000000
00000000
00000000
07E1F800
00EF0F00
00FC0700
00F80300
00F00180
00F00180
00E00180
00E00180
00E00180
00E00180
00E00180
00E00180
00E00180
00E00180
00E00180
00E00180
00E00180
00E00180
00E10180
00E30180
00E78180
00E78180
00E70100
00E30300
00E18700
07F8FE00
00000000
00000000
00000000
ENDCHAR

STARTCHAR jisx0212_292C
ENCODING 10540
SWIDTH 960 0
DWIDTH 32 0
BBX 32 32 0 -2
BITMAP
00000000
00000000
00000000
000FF010
00781E70
00E007E0
00C003C0
01800180
070007E0
07000EE0
07000CE0
0E001870
0E007070
0E00E070
0E00C070
0E018070
0E070070
0E0E0070
0E0C0070
0E180070
0E700070
07E000E0
07C000E0
078000E0
07800180
0EC00300
0CE00700
18781E00
100FF000
00000000
00000000
00000000
ENDCHAR

STARTCHAR jisx0212_292D
ENCODING 10541
SWIDTH 960 0
DWIDTH 32 0
BBX 32 32 0 -2
BITMAP
00000000
00000000
00000000
00FFFFF8
0780E018
0E00E00C
0C00E00E
1800E006
1800E006
3000E000
7000E000
7000E060
7000E060
7000E0E0
7000E0E0
7000FFE0
7000E0E0
7000E060
7000E060
7000E060
7000E000
7000E000
3000E000
1800E001
1800E001
0C00E003
0E00E007
0780E00E
00FFFFFE
00000000
00000000
00000000
ENDCHAR

STARTCHAR jisx0212_292F
ENCODING 10543
SWIDTH 960 0
DWIDTH 32 0
BBX 32 32 0 -2
BITMAP
00000000
00000000
00000000
07FFFFE0
070180E0
0E018070
0C018030
08018010
08018010
00018000
00018000
00018000
00018000
00018000
0003C000
007FFE00
00018000
00018000
00018000
00018000
00018000
00018000
00018000
00018000
00018000
00018000
00018000
00018000
000FF000
00000000
00000000
00000000
ENDCHAR

STARTCHAR jisx0212_2930
ENCODING 10544
SWIDTH 960 0
DWIDTH 32 0
BBX 32 32 0 -2
BITMAP
00000000
00000000
00000000
07F80000
00E00000
00E00000
00E00000
00E00000
00E00000
00FFF000
00FFF000
00E01E00
00E00700
00E00380
00E00180
00E00180
00E00180
00E00180
00E00380
00E00700
00E01E00
00FFF000
00FFF000
00E00000
00E00000
00E00000
00E00000
00E00000
07F80000
00000000
00000000
00000000
ENDCHAR

STARTCHAR jisx0212_2941
ENCODING 10561
SWIDTH 960 0
DWIDTH 32 0
BBX 32 32 0 -2
BITMAP
00000000
00000000
00000000
00000000
00000000
00000000
00000000
00000000
00000000
00000000
00000000
07FE1F80
0F07F0F0
0F03E070
0F01C030
06018018
00018018
00018018
0003C038
01FFFFF8
0F018000
1C018000
18018000
18018008
18018008
1801C018
1C03E038
0E0F7070
07F81FE0
00000000
00000000
00000000
ENDCHAR

STARTCHAR jisx0212_2942
ENCODING 10562
SWIDTH 960 0
DWIDTH 32 0
BBX 32 32 0 -2
BITMAP
00000000
00000000
00000000
00000700
00001F00
00000700
00000700
0001FFF0
00000700
00000700
00000700
000FE700
00787F00
00E00F00
00E00F00
00E00700
01800700
01800700
01800700
01800700
01800700
01800700
01800700
01800700
00E00700
00E00F00
00E00F00
00787F00
000FE7E0
00000000
00000000
00000000
ENDCHAR

STARTCHAR jisx0212_2943
ENCODING 10563
SWIDTH 960 0
DWIDTH 32 0
BBX 32 32 0 -2
BITMAP
00000000
00000000
00000000
00780E00
000F7800
0003E000
0003E000
000FE000
00187000
00003800
00003800
0007F800
001E7E00
00300E00
00700E00
00700F00
00E00700
00E00700
00E00700
00E00700
00E00700
00E00700
00E00700
00E00700
00700E00
00700E00
00300C00
001E7800
0007E000
00000000
00000000
00000000
ENDCHAR

STARTCHAR jisx0212_2944
ENCODING 10564
SWIDTH 960 0
DWIDTH 32 0
BBX 32 32 0 -2
BITMAP
00000000
00000000
00000000
00E00000
07E00000
00E00000
00E00000
0FFFE000
00E00000
00E00000
00E00000
00E7F000
00FE1E00
00F00E00
00F00E00
00E00700
00E00700
00E00700
00E00700
00E00700
00E00700
00E00700
00E00700
00E00700
00E00700
00E00700
00E00700
00E00700
07F81FE0
00000000
00000000
00000000
ENDCHAR

STARTCHAR jisx0212_2945
ENCODING 10565
SWIDTH 960 0
DWIDTH 32 0
BBX 32 32 0 -2
BITMAP
00000000
00000000
00000000
00000000
00000000
00000000
00000000
00000000
00000000
00000000
00000000
00018000
000F8000
00038000
00018000
00018000
00018000
00018000
00018000
00018000
00018000
00018000
00018000
00018000
00018000
00018000
00018000
00018000
000FF000
00000000
00000000
00000000
ENDCHAR

STARTCHAR jisx0212_2946
ENCODING 10566
SWIDTH 960 0
DWIDTH 32 0
BBX 32 32 0 -2
BITMAP
00000000
00000000
00000000
00700700
00F80F80
00700700
00300300
00000000
00000000
00000000
00000000
00700700
01F01F00
00700700
00700700
00700700
00700700
00700700
00700700
00700700
00700700
00700700
00700700
00700700
00700700
00700700
00700700
00706700
01FEF700
0000E700
0000E700
00007E00
ENDCHAR

STARTCHAR jisx0212_2947
ENCODING 10567
SWIDTH 960 0
DWIDTH 32 0
BBX 32 32 0 -2
BITMAP
00000000
00000000
00000000
00000000
00000000
00000000
00000000
00000000
00000000
00000000
00000000
01FE7F80
00700E00
00701C00
00703800
00707000
0070E000
0071C000
0073C000
0077E000
007EF000
007C7000
00783000
00701800
00701E00
00700E00
00700E00
00700700
01FE1FE0
00000000
00000000
00000000
ENDCHAR

STARTCHAR jisx0212_2948
ENCODING 10568
SWIDTH 960 0
DWIDTH 32 0
BBX 32 32 0 -2
BITMAP
00000000
00000000
00000000
00018000
000F8000
00038000
00018000
00018000
00018000
00018000
00018600
00018E00
00019800
0001F000
0001F000
0001E000
00018000
00038000
00078000
000F8000
00198000
00318000
00718000
00618000
00018000
00018000
00018000
00018000
000FF000
00000000
00000000
00000000
ENDCHAR

STARTCHAR jisx0212_2949
ENCODING 10569
SWIDTH 960 0
DWIDTH 32 0
BBX 32 32 0 -2
BITMAP
00000000
00000000
00000000
00070000
001F0000
00070000
00070000
00070000
00070000
00070000
00070000
00070000
00070000
00071800
00073C00
00077E00
00071800
00070000
00070000
00070000
00070000
00070000
00070000
00070000
00070000
00070000
00070000
00070000
001FE000
00000000
00000000
00000000
ENDCHAR

STARTCHAR jisx0212_294A
ENCODING 10570
SWIDTH 960 0
DWIDTH 32 0
BBX 32 32 0 -2
BITMAP
00000000
00000000
00000000
00000000
00000000
00000000
00000000
00000000
08000000
1C000000
1E000000
1E18FE00
1EFF8780
0C3E0380
081C01C0
081800E0
081800E0
001800E0
001800E0
001800E0
001800E0
001800E0
001800E0
001800E0
001800E0
001800E0
001800E0
001800E0
00FF07F8
00000000
00000000
00000000
ENDCHAR

STARTCHAR jisx0212_294B
ENCODING 10571
SWIDTH 960 0
DWIDTH 32 0
BBX 32 32 0 -2
BITMAP
00000000
00000000
00000000
00000000
00000000
00000000
00000000
00000000
00000000
00000000
00000000
00E7F000
07FE1E00
00F00E00
00F00E00
00E00700
00E00700
00E00700
00E00700
00E00700
00E00700
00E00700
00E00700
00E00700
00E00700
00E00700
00E00700
00E08700
07F9E600
0001EE00
0001EC00
0000F800
ENDCHAR

STARTCHAR jisx0212_294C
ENCODING 10572
SWIDTH 960 0
DWIDTH 32 0
BBX 32 32 0 -2
BITMAP
00000000
00000000
00000000
00000000
00000000
00000000
00000000
00000000
00000000
00000000
00000000
000FE100
00787F00
00E00E00
00E00E00
00E01E00
01807700
0180E700
0180C700
01818700
01870700
018E0700
018C0700
01980700
00F00E00
00E00E00
00E00C00
01F87800
010FE000
00000000
00000000
00000000
ENDCHAR

STARTCHAR jisx0212_294D
ENCODING 10573
SWIDTH 960 0
DWIDTH 32 0
BBX 32 32 0 -2
BITMAP
00000000
00000000
00000000
00000000
00000000
00000000
00000000
00000000
00000000
00000000
00000000
01F81F80
0F0FF0F0
0E07E070
0C03C030
18018018
18018018
1801FFF8
1801FFF8
18018000
18018000
18018000
18018000
18018008
18018008
0C03C018
0E07E038
0F0F7070
01F81FE0
00000000
00000000
00000000
ENDCHAR

STARTCHAR jisx0212_294E
ENCODING 10574
SWIDTH 960 0
DWIDTH 32 0
BBX 32 32 0 -2
BITMAP
00000000
00000000
00000000
000FF000
00781E00
00700E00
00700E00
00E00700
00E00700
00E00700
00E00700
00E00E00
00E01E00
00E3F000
00E3F000
00E01E00
00E00700
00E00700
00E00300
00E00180
00E00180
00E00180
00E00180
00E60180
00EF0180
00EF0300
00EF0700
00EE0F00
07E7F800
00000000
00000000
00000000
ENDCHAR

STARTCHAR jisx0212_294F
ENCODING 10575
SWIDTH 960 0
DWIDTH 32 0
BBX 32 32 0 -2
BITMAP
00000000
00000000
00000000
00010000
00070000
00070000
00070000
00070000
00070000
00070000
00070000
001FF800
00070000
00070000
00070000
00070000
001FF000
00070000
00070000
00070000
00070000
00070000
00070000
00070000
00070600
00070E00
00070C00
00079800
0001F000
00000000
00000000
00000000
ENDCHAR

STARTCHAR jisx0212_2950
ENCODING 10576
SWIDTH 960 0
DWIDTH 32 0
BBX 32 32 0 -2
BITMAP
00000000
00000000
00000000
00180000
00F80000
00380000
00180000
00180000
00180000
00180000
00180000
0019F800
001F0F00
001C0380
00180180
00180180
001800E0
001800E0
001800E0
001800E0
001800E0
001800E0
001800C0
00180180
00180180
001F0F00
001F0F00
0019F800
00180000
00180000
003C0000
00FF0000
ENDCHAR

STARTCHAR jisx0212_2A21
ENCODING 10785
SWIDTH 960 0
DWIDTH 32 0
BBX 32 32 0 -2
BITMAP
00007000
0001F000
0003F000
000F0000
00000000
00018000
00018000
00018000
0007E000
0006E000
0006E000
000E7000
00087000
00183800
00181800
00101800
00700E00
00600E00
00600E00
00600E00
00E00700
00FFFF00
00FFFF00
01800180
01000180
030000C0
070000E0
060000E0
1F8007F8
00000000
00000000
00000000
ENDCHAR

STARTCHAR jisx0212_2A22
ENCODING 10786
SWIDTH 960 0
DWIDTH 32 0
BBX 32 32 0 -2
BITMAP
000E0000
000F8000
000FC000
0000F000
00000000
00018000
00018000
00018000
0007E000
0006E000
0006E000
000E7000
00087000
00183800
00181800
00101800
00700E00
00600E00
00600E00
00600E00
00E00700
00FFFF00
00FFFF00
01800180
01000180
030000C0
070000E0
060000E0
1F8007F8
00000000
00000000
00000000
ENDCHAR

STARTCHAR jisx0212_2A23
ENCODING 10787
SWIDTH 960 0
DWIDTH 32 0
BBX 32 32 0 -2
BITMAP
00181800
003C3C00
003C3C00
00181800
00000000
00018000
00018000
00018000
0007E000
0006E000
0006E000
000E7000
00087000
00183800
00181800
00101800
00700E00
00600E00
00600E00
00600E00
00E00700
00FFFF00
00FFFF00
01800180
01000180
030000C0
070000E0
060000E0
1F8007F8
00000000
00000000
00000000
ENDCHAR

STARTCHAR jisx0212_2A24
ENCODING 10788
SWIDTH 960 0
DWIDTH 32 0
BBX 32 32 0 -2
BITMAP
00078000
000EC000
000CE000
00187000
00000000
00018000
00018000
00018000
0007E000
0006E000
0006E000
000E7000
00087000
00183800
00181800
00101800
00700E00
00600E00
00600E00
00600E00
00E00700
00FFFF00
00FFFF00
01800180
01000180
030000C0
070000E0
060000E0
1F8007F8
00000000
00000000
00000000
ENDCHAR

STARTCHAR jisx0212_2A25
ENCODING 10789
SWIDTH 960 0
DWIDTH 32 0
BBX 32 32 0 -2
BITMAP
00081000
000FF000
000FF000
0007E000
00000000
00018000
00018000
00018000
0007E000
0006E000
0006E000
000E7000
00087000
00183800
00181800
00101800
00700E00
00600E00
00600E00
00600E00
00E00700
00FFFF00
00FFFF00
01800180
01000180
030000C0
070000E0
060000E0
1F8007F8
00000000
00000000
00000000
ENDCHAR

STARTCHAR jisx0212_2A26
ENCODING 10790
SWIDTH 960 0
DWIDTH 32 0
BBX 32 32 0 -2
BITMAP
00187000
000CE000
000EC000
00078000
00000000
00018000
00018000
00018000
0007E000
0006E000
0006E000
000E7000
00087000
00183800
00181800
00101800
00700E00
00600E00
00600E00
00600E00
00E00700
00FFFF00
00FFFF00
01800180
01000180
030000C0
070000E0
060000E0
1F8007F8
00000000
00000000
00000000
ENDCHAR

STARTCHAR jisx0212_2A27
ENCODING 10791
SWIDTH 960 0
DWIDTH 32 0
BBX 32 32 0 -2
BITMAP
001FF800
00000000
00000000
00000000
00000000
00018000
00018000
00018000
0007E000
0006E000
0006E000
000E7000
00087000
00183800
00181800
00101800
00700E00
00600E00
00600E00
00600E00
00E00700
00FFFF00
00FFFF00
01800180
01000180
030000C0
070000E0
060000E0
1F8007F8
00000000
00000000
00000000
ENDCHAR

STARTCHAR jisx0212_2A28
ENCODING 10792
SWIDTH 960 0
DWIDTH 32 0
BBX 32 32 0 -2
BITMAP
00000000
00000000
00000000
00018000
00018000
0003C000
0007E000
0006E000
000E7000
000C7000
00083000
00181800
00101800
00300C00
00700E00
00600E00
00600E00
00E00700
00E00700
00FFFF00
01800180
01000180
030001C0
070000E0
060000E0
1F8003F8
1F8003F8
000000E0
0000008E
000000FE
000000FC
00000078
ENDCHAR

STARTCHAR jisx0212_2A29
ENCODING 10793
SWIDTH 960 0
DWIDTH 32 0
BBX 32 32 0 -2
BITMAP
00018000
00024000
00066000
00066000
00018000
00018000
00018000
00018000
0007E000
0006E000
0006E000
000E7000
00087000
00183800
00181800
00101800
00700E00
00600E00
00600E00
00600E00
00E00700
00FFFF00
00FFFF00
01800180
01000180
030000C0
070000E0
060000E0
1F8007F8
00000000
00000000
00000000
ENDCHAR

STARTCHAR jisx0212_2A2A
ENCODING 10794
SWIDTH 960 0
DWIDTH 32 0
BBX 32 32 0 -2
BITMAP
000F0800
001FF800
001FF800
0010F000
00000000
00018000
00018000
00018000
0007E000
0006E000
0006E000
000E7000
00087000
00183800
00181800
00101800
00700E00
00600E00
00600E00
00600E00
00E00700
00FFFF00
00FFFF00
01800180
01000180
030000C0
070000E0
060000E0
1F8007F8
00000000
00000000
00000000
ENDCHAR

STARTCHAR jisx0212_2A2B
ENCODING 10795
SWIDTH 960 0
DWIDTH 32 0
BBX 32 32 0 -2
BITMAP
00007000
0001F000
0003F000
000F0000
00000000
000FF880
000FFC80
00780F80
00E00180
01C000C0
018000E0
01800060
07000060
07000000
07000000
07000000
07000000
07000000
07000000
07000000
07000000
07000000
03000060
01800060
018000E0
00C001C0
00E00380
00780F00
000FF800
00000000
00000000
00000000
ENDCHAR

STARTCHAR jisx0212_2A2C
ENCODING 10796
SWIDTH 960 0
DWIDTH 32 0
BBX 32 32 0 -2
BITMAP
0001E000
00037000
00073000
000E1800
00000000
000FF880
000FFC80
00780F80
00E00180
01C000C0
018000E0
01800060
07000060
07000000
07000000
07000000
07000000
07000000
07000000
07000000
07000000
07000000
03000060
01800060
018000E0
00C001C0
00E00380
00780F00
000FF800
00000000
00000000
00000000
ENDCHAR

STARTCHAR jisx0212_2A2D
ENCODING 10797
SWIDTH 960 0
DWIDTH 32 0
BBX 32 32 0 -2
BITMAP
000E1800
00073000
00037000
0001E000
00000000
000FF880
000FFC80
00780F80
00E00180
01C000C0
018000E0
01800060
07000060
07000000
07000000
07000000
07000000
07000000
07000000
07000000
07000000
07000000
03000060
01800060
018000E0
00C001C0
00E00380
00780F00
000FF800
00000000
00000000
00000000
ENDCHAR

STARTCHAR jisx0212_2A2E
ENCODING 10798
SWIDTH 960 0
DWIDTH 32 0
BBX 32 32 0 -2
BITMAP
00000000
00000000
00000000
000FF880
00780F80
00E00380
00C001C0
018000E0
01800060
03000060
07000000
07000000
07000000
07000000
07000000
07000000
07000000
07000000
07000000
07000060
01800060
018000E0
01C000C0
00E00180
00780F00
000FFC00
000FF800
00018000
0001E000
00187000
001C7000
000FE000
ENDCHAR

STARTCHAR jisx0212_2A2F
ENCODING 10799
SWIDTH 960 0
DWIDTH 32 0
BBX 32 32 0 -2
BITMAP
00018000
0003C000
0003C000
00018000
00000000
000FF880
000FFC80
00780F80
00E00180
01C000C0
018000E0
01800060
07000060
07000000
07000000
07000000
07000000
07000000
07000000
07000000
07000000
07000000
03000060
01800060
018000E0
00C001C0
00E00380
00780F00
000FF800
00000000
00000000
00000000
ENDCHAR

STARTCHAR jisx0212_2A30
ENCODING 10800
SWIDTH 960 0
DWIDTH 32 0
BBX 32 32 0 -2
BITMAP
00187000
000CE000
000EC000
00078000
00000000
0FFFF000
0FFFF000
01801E00
01800700
01800380
01800180
01800180
018000E0
018000E0
018000E0
018000E0
018000E0
018000E0
018000E0
018000E0
018000E0
018000E0
018000C0
01800180
01800180
01800300
01800700
01801E00
0FFFF000
00000000
00000000
00000000
ENDCHAR

STARTCHAR jisx0212_2A31
ENCODING 10801
SWIDTH 960 0
DWIDTH 32 0
BBX 32 32 0 -2
BITMAP
00007000
0001F000
0003F000
000F0000
00000000
03FFFF00
03FFFF00
00E00700
00E00180
00E00080
00E00080
00E00080
00E00800
00E00800
00E00800
00E01800
00FFF800
00E03800
00E01800
00E00800
00E00800
00E00000
00E00000
00E00060
00E00060
00E000E0
00E000C0
00E00180
07FFFF80
00000000
00000000
00000000
ENDCHAR

STARTCHAR jisx0212_2A32
ENCODING 10802
SWIDTH 960 0
DWIDTH 32 0
BBX 32 32 0 -2
BITMAP
000E0000
000F8000
000FC000
0000F000
00000000
03FFFF00
03FFFF00
00E00700
00E00180
00E00080
00E00080
00E00080
00E00800
00E00800
00E00800
00E01800
00FFF800
00E03800
00E01800
00E00800
00E00800
00E00000
00E00000
00E00060
00E00060
00E000E0
00E000C0
00E00180
07FFFF80
00000000
00000000
00000000
ENDCHAR

STARTCHAR jisx0212_2A33
ENCODING 10803
SWIDTH 960 0
DWIDTH 32 0
BBX 32 32 0 -2
BITMAP
00181800
003C3C00
003C3C00
00181800
00000000
03FFFF00
03FFFF00
00E00700
00E00180
00E00080
00E00080
00E00080
00E00800
00E00800
00E00800
00E01800
00FFF800
00E03800
00E01800
00E00800
00E00800
00E00000
00E00000
00E00060
00E00060
00E000E0
00E000C0
00E00180
07FFFF80
00000000
00000000
00000000
ENDCHAR

STARTCHAR jisx0212_2A34
ENCODING 10804
SWIDTH 960 0
DWIDTH 32 0
BBX 32 32 0 -2
BITMAP
00078000
000EC000
000CE000
00187000
00000000
03FFFF00
03FFFF00
00E00700
00E00180
00E00080
00E00080
00E00080
00E00800
00E00800
00E00800
00E01800
00FFF800
00E03800
00E01800
00E00800
00E00800
00E00000
00E00000
00E00060
00E00060
00E000E0
00E000C0
00E00180
07FFFF80
00000000
00000000
00000000
ENDCHAR

STARTCHAR jisx0212_2A35
ENCODING 10805
SWIDTH 960 0
DWIDTH 32 0
BBX 32 32 0 -2
BITMAP
00187000
000CE000
000EC000
00078000
00000000
03FFFF00
03FFFF00
00E00700
00E00180
00E00080
00E00080
00E00080
00E00800
00E00800
00E00800
00E01800
00FFF800
00E03800
00E01800
00E00800
00E00800
00E00000
00E00000
00E00060
00E00060
00E000E0
00E000C0
00E00180
07FFFF80
00000000
00000000
00000000
ENDCHAR

STARTCHAR jisx0212_2A36
ENCODING 10806
SWIDTH 960 0
DWIDTH 32 0
BBX 32 32 0 -2
BITMAP
00018000
0003C000
0003C000
00018000
00000000
03FFFF00
03FFFF00
00E00700
00E00180
00E00080
00E00080
00E00080
00E00800
00E00800
00E00800
00E01800
00FFF800
00E03800
00E01800
00E00800
00E00800
00E00000
00E00000
00E00060
00E00060
00E000E0
00E000C0
00E00180
07FFFF80
00000000
00000000
00000000
ENDCHAR

STARTCHAR jisx0212_2A37
ENCODING 10807
SWIDTH 960 0
DWIDTH 32 0
BBX 32 32 0 -2
BITMAP
001FF800
00000000
00000000
00000000
00000000
03FFFF00
03FFFF00
00E00700
00E00180
00E00080
00E00080
00E00080
00E00800
00E00800
00E00800
00E01800
00FFF800
00E03800
00E01800
00E00800
00E00800
00E00000
00E00000
00E00060
00E00060
00E000E0
00E000C0
00E00180
07FFFF80
00000000
00000000
00000000
ENDCHAR

STARTCHAR jisx0212_2A38
ENCODING 10808
SWIDTH 960 0
DWIDTH 32 0
BBX 32 32 0 -2
BITMAP
00000000
00000000
00000000
07FFFF00
00E00700
00E00380
00E00180
00E00080
00E00080
00E00800
00E00800
00E00800
00E01800
00FFF800
00FFF800
00E01800
00E00800
00E00800
00E00800
00E00000
00E00060
00E00060
00E00060
00E000E0
00E00180
03FFFF80
03FFFF80
00007000
00006700
00007F00
00003F00
00001E00
ENDCHAR

STARTCHAR jisx0212_2A3A
ENCODING 10810
SWIDTH 960 0
DWIDTH 32 0
BBX 32 32 0 -2
BITMAP
0001E000
00037000
00073000
000E1800
00000000
000FF880
000FFC80
00780F80
00E00180
01C000C0
018000E0
01800060
07000060
07000000
07000000
07000000
07000000
07001FF8
07001FF8
070000E0
070000E0
070000E0
030000E0
018000E0
018000E0
00C001E0
00E003E0
00780FE0
000FF860
00000000
00000000
00000000
ENDCHAR

STARTCHAR jisx0212_2A3B
ENCODING 10811
SWIDTH 960 0
DWIDTH 32 0
BBX 32 32 0 -2
BITMAP
00081000
000FF000
000FF000
0007E000
00000000
000FF880
000FFC80
00780F80
00E00180
01C000C0
018000E0
01800060
07000060
07000000
07000000
07000000
07000000
07001FF8
07001FF8
070000E0
070000E0
070000E0
030000E0
018000E0
018000E0
00C001E0
00E003E0
00780FE0
000FF860
00000000
00000000
00000000
ENDCHAR

STARTCHAR jisx0212_2A3C
ENCODING 10812
SWIDTH 960 0
DWIDTH 32 0
BBX 32 32 0 -2
BITMAP
00000000
00000000
00000000
000FF880
00780F80
00E00380
00C001C0
018000E0
01800060
03000060
07000000
07000000
07000000
07000000
07000000
07001FF8
070000E0
070000E0
070000E0
070000E0
018000E0
018000E0
01C000E0
00E001E0
00780FE0
000FFC60
000FF800
00018000
0001E000
00187000
001C7000
000FE000
ENDCHAR

STARTCHAR jisx0212_2A3D
ENCODING 10813
SWIDTH 960 0
DWIDTH 32 0
BBX 32 32 0 -2
BITMAP
00018000
0003C000
0003C000
00018000
00000000
000FF880
000FFC80
00780F80
00E00180
01C000C0
018000E0
01800060
07000060
07000000
07000000
07000000
07000000
07001FF8
07001FF8
070000E0
070000E0
070000E0
030000E0
018000E0
018000E0
00C001E0
00E003E0
00780FE0
000FF860
00000000
00000000
00000000
ENDCHAR

STARTCHAR jisx0212_2A3E
ENCODING 10814
SWIDTH 960 0
DWIDTH 32 0
BBX 32 32 0 -2
BITMAP
00078000
000EC000
000CE000
00187000
00000000
1FC00FF0
1FC00FF0
07000180
07000180
07000180
07000180
07000180
07000180
07000180
07000180
07000180
07FFFF80
07000380
07000180
07000180
07000180
07000180
07000180
07000180
07000180
07000180
07000180
07000180
1FE00FF0
00000000
00000000
00000000
ENDCHAR

STARTCHAR jisx0212_2A3F
ENCODING 10815
SWIDTH 960 0
DWIDTH 32 0
BBX 32 32 0 -2
BITMAP
00007000
0001F000
0003F000
000F0000
00000000
000FF000
000FF000
00018000
00018000
00018000
00018000
00018000
00018000
00018000
00018000
00018000
00018000
00018000
00018000
00018000
00018000
00018000
00018000
00018000
00018000
00018000
00018000
00018000
000FF000
00000000
00000000
00000000
ENDCHAR

STARTCHAR jisx0212_2A40
ENCODING 10816
SWIDTH 960 0
DWIDTH 32 0
BBX 32 32 0 -2
BITMAP
000E0000
000F8000
000FC000
0000F000
00000000
000FF000
000FF000
00018000
00018000
00018000
00018000
00018000
00018000
00018000
00018000
00018000
00018000
00018000
00018000
00018000
00018000
00018000
00018000
00018000
00018000
00018000
00018000
00018000
000FF000
00000000
00000000
00000000
ENDCHAR

STARTCHAR jisx0212_2A41
ENCODING 10817
SWIDTH 960 0
DWIDTH 32 0
BBX 32 32 0 -2
BITMAP
00181800
003C3C00
003C3C00
00181800
00000000
000FF000
000FF000
00018000
00018000
00018000
00018000
00018000
00018000
00018000
00018000
00018000
00018000
00018000
00018000
00018000
00018000
00018000
00018000
00018000
00018000
00018000
00018000
00018000
000FF000
00000000
00000000
00000000
ENDCHAR

STARTCHAR jisx0212_2A42
ENCODING 10818
SWIDTH 960 0
DWIDTH 32 0
BBX 32 32 0 -2
BITMAP
00078000
000EC000
000CE000
00187000
00000000
000FF000
000FF000
00018000
00018000
00018000
00018000
00018000
00018000
00018000
00018000
00018000
00018000
00018000
00018000
00018000
00018000
00018000
00018000
00018000
00018000
00018000
00018000
00018000
000FF000
00000000
00000000
00000000
ENDCHAR

STARTCHAR jisx0212_2A43
ENCODING 10819
SWIDTH 960 0
DWIDTH 32 0
BBX 32 32 0 -2
BITMAP
00187000
000CE000
000EC000
00078000
00000000
000FF000
000FF000
00018000
00018000
00018000
00018000
00018000
00018000
00018000
00018000
00018000
00018000
00018000
00018000
00018000
00018000
00018000
00018000
00018000
00018000
00018000
00018000
00018000
000FF000
00000000
00000000
00000000
ENDCHAR

STARTCHAR jisx0212_2A44
ENCODING 10820
SWIDTH 960 0
DWIDTH 32 0
BBX 32 32 0 -2
BITMAP
00018000
0003C000
0003C000
00018000
00000000
000FF000
000FF000
00018000
00018000
00018000
00018000
00018000
00018000
00018000
00018000
00018000
00018000
00018000
00018000
00018000
00018000
00018000
00018000
00018000
00018000
00018000
00018000
00018000
000FF000
00000000
00000000
00000000
ENDCHAR

STARTCHAR jisx0212_2A45
ENCODING 10821
SWIDTH 960 0
DWIDTH 32 0
BBX 32 32 0 -2
BITMAP
001FF800
00000000
00000000
00000000
00000000
000FF000
000FF000
00018000
00018000
00018000
00018000
00018000
00018000
00018000
00018000
00018000
00018000
00018000
00018000
00018000
00018000
00018000
00018000
00018000
00018000
00018000
00018000
00018000
000FF000
00000000
00000000
00000000
ENDCHAR

STARTCHAR jisx0212_2A46
ENCODING 10822
SWIDTH 960 0
DWIDTH 32 0
BBX 32 32 0 -2
BITMAP
00000000
00000000
00000000
000FF000
00018000
00018000
00018000
00018000
00018000
00018000
00018000
00018000
00018000
00018000
00018000
00018000
00018000
00018000
00018000
00018000
00018000
00018000
00018000
00018000
00018000
000FF000
000FF000
00018000
00011800
0001F800
0001F800
0000F000
ENDCHAR

STARTCHAR jisx0212_2A47
ENCODING 10823
SWIDTH 960 0
DWIDTH 32 0
BBX 32 32 0 -2
BITMAP
000F0800
001FF800
001FF800
0010F000
00000000
000FF000
000FF000
00018000
00018000
00018000
00018000
00018000
00018000
00018000
00018000
00018000
00018000
00018000
00018000
00018000
00018000
00018000
00018000
00018000
00018000
00018000
00018000
00018000
000FF000
00000000
00000000
00000000
ENDCHAR

STARTCHAR jisx0212_2A48
ENCODING 10824
SWIDTH 960 0
DWIDTH 32 0
BBX 32 32 0 -2
BITMAP
00078000
000EC000
000CE000
00187000
00000000
0000FF00
0000FF00
00001800
00001800
00001800
00001800
00001800
00001800
00001800
00001800
00001800
00001800
00001800
00001800
00001800
00001800
00C01800
00E01800
01F01800
01E07000
00E07000
00E07000
0070E000
001F8000
00000000
00000000
00000000
ENDCHAR

STARTCHAR jisx0212_2A49
ENCODING 10825
SWIDTH 960 0
DWIDTH 32 0
BBX 32 32 0 -2
BITMAP
00000000
00000000
00000000
0FF01FE0
01800700
01800E00
01800C00
01801800
01807000
0180E000
0180C000
01818000
01878000
018FC000
018FE000
0198E000
01F07000
01E07800
01C03C00
01801E00
01800E00
01800700
01800700
01800780
018081E0
0FF18FF8
0FF1CFF8
0001E000
00007000
00187000
001C7000
000FE000
ENDCHAR

STARTCHAR jisx0212_2A4A
ENCODING 10826
SWIDTH 960 0
DWIDTH 32 0
BBX 32 32 0 -2
BITMAP
00007000
0001F000
0003F000
000F0000
00000000
03F80000
03F80000
00E00000
00E00000
00E00000
00E00000
00E00000
00E00000
00E00000
00E00000
00E00000
00E00000
00E00000
00E00000
00E00000
00E00000
00E00000
00E00000
00E00060
00E00060
00E000E0
00E000C0
00E00180
07FFFF80
00000000
00000000
00000000
ENDCHAR

STARTCHAR jisx0212_2A4B
ENCODING 10827
SWIDTH 960 0
DWIDTH 32 0
BBX 32 32 0 -2
BITMAP
00187000
000CE000
000EC000
00078000
00000000
03F80000
03F80000
00E00000
00E00000
00E00000
00E00000
00E00000
00E00000
00E00000
00E00000
00E00000
00E00000
00E00000
00E00000
00E00000
00E00000
00E00000
00E00000
00E00060
00E00060
00E000E0
00E000C0
00E00180
07FFFF80
00000000
00000000
00000000
ENDCHAR

STARTCHAR jisx0212_2A4C
ENCODING 10828
SWIDTH 960 0
DWIDTH 32 0
BBX 32 32 0 -2
BITMAP
00000000
00000000
00000000
07F80000
00E00000
00E00000
00E00000
00E00000
00E00000
00E00000
00E00000
00E00000
00E00000
00E00000
00E00000
00E00000
00E00000
00E00000
00E00000
00E00000
00E00060
00E00060
00E00060
00E000E0
00E00180
03FFFF80
03FFFF80
00018000
0001E000
00187000
001C7000
000FE000
ENDCHAR

STARTCHAR jisx0212_2A4D
ENCODING 10829
SWIDTH 960 0
DWIDTH 32 0
BBX 32 32 0 -2
BITMAP
00007000
0001F000
0003F000
000F0000
00000000
1F0003F0
1F0003F0
07800080
07E00080
06F00080
06F00080
06700080
06180080
061C0080
061E0080
060F0080
06070080
06038080
0601C080
0601E080
0600F080
06007080
06003080
06001880
06001E80
06000F80
06000F80
06000780
1F800180
00000000
00000000
00000000
ENDCHAR

STARTCHAR jisx0212_2A4E
ENCODING 10830
SWIDTH 960 0
DWIDTH 32 0
BBX 32 32 0 -2
BITMAP
00187000
000CE000
000EC000
00078000
00000000
1F0003F0
1F0003F0
07800080
07E00080
06F00080
06F00080
06700080
06180080
061C0080
061E0080
060F0080
06070080
06038080
0601C080
0601E080
0600F080
06007080
06003080
06001880
06001E80
06000F80
06000F80
06000780
1F800180
00000000
00000000
00000000
ENDCHAR

STARTCHAR jisx0212_2A4F
ENCODING 10831
SWIDTH 960 0
DWIDTH 32 0
BBX 32 32 0 -2
BITMAP
00000000
00000000
00000000
1F0007F0
07800080
07C00080
07E00080
06F00080
06700080
06380080
061C0080
061E0080
060F0080
06070080
06030080
06018080
0601E080
0600F080
0600F080
06007080
06001880
06001C80
06001E80
06000F80
06008780
1F818380
1F81C180
0001E000
00007000
00187000
001C7000
000FE000
ENDCHAR

STARTCHAR jisx0212_2A50
ENCODING 10832
SWIDTH 960 0
DWIDTH 32 0
BBX 32 32 0 -2
BITMAP
000F0800
001FF800
001FF800
0010F000
00000000
1F0003F0
1F0003F0
07800080
07E00080
06F00080
06F00080
06700080
06180080
061C0080
061E0080
060F0080
06070080
06038080
0601C080
0601E080
0600F080
06007080
06003080
06001880
06001E80
06000F80
06000F80
06000780
1F800180
00000000
00000000
00000000
ENDCHAR

STARTCHAR jisx0212_2A51
ENCODING 10833
SWIDTH 960 0
DWIDTH 32 0
BBX 32 32 0 -2
BITMAP
0000E000
0003E000
0007C000
001E0000
00000000
001FF000
003FF000
00F01E00
01800700
03000380
07000180
07000180
0E0000E0
0E0000E0
0E0000E0
0E0000E0
0E0000E0
0E0000E0
0E0000E0
0E0000E0
0E0000E0
0E0000E0
0E0000C0
07000180
07000180
03800300
01C00700
00F01E00
001FF000
00000000
00000000
00000000
ENDCHAR

STARTCHAR jisx0212_2A52
ENCODING 10834
SWIDTH 960 0
DWIDTH 32 0
BBX 32 32 0 -2
BITMAP
00180000
001F0000
001F0000
0001E000
00000000
001FF000
003FF000
00F01E00
01800700
03000380
07000180
07000180
0E0000E0
0E0000E0
0E0000E0
0E0000E0
0E0000E0
0E0000E0
0E0000E0
0E0000E0
0E0000E0
0E0000E0
0E0000C0
07000180
07000180
03800300
01C00700
00F01E00
001FF000
00000000
00000000
00000000
ENDCHAR

STARTCHAR jisx0212_2A53
ENCODING 10835
SWIDTH 960 0
DWIDTH 32 0
BBX 32 32 0 -2
BITMAP
00707000
00F8F800
00F8F800
00707000
00000000
001FF000
003FF000
00F01E00
01800700
03000380
07000180
07000180
0E0000E0
0E0000E0
0E0000E0
0E0000E0
0E0000E0
0E0000E0
0E0000E0
0E0000E0
0E0000E0
0E0000E0
0E0000C0
07000180
07000180
03800300
01C00700
00F01E00
001FF000
00000000
00000000
00000000
ENDCHAR

STARTCHAR jisx0212_2A54
ENCODING 10836
SWIDTH 960 0
DWIDTH 32 0
BBX 32 32 0 -2
BITMAP
00078000
000EC000
000CE000
00187000
00000000
001FF000
003FF000
00F01E00
01800700
03000380
07000180
07000180
0E0000E0
0E0000E0
0E0000E0
0E0000E0
0E0000E0
0E0000E0
0E0000E0
0E0000E0
0E0000E0
0E0000E0
0E0000C0
07000180
07000180
03800300
01C00700
00F01E00
001FF000
00000000
00000000
00000000
ENDCHAR

STARTCHAR jisx0212_2A55
ENCODING 10837
SWIDTH 960 0
DWIDTH 32 0
BBX 32 32 0 -2
BITMAP
00187000
000CE000
000EC000
00078000
00000000
001FF000
003FF000
00F01E00
01800700
03000380
07000180
07000180
0E0000E0
0E0000E0
0E0000E0
0E0000E0
0E0000E0
0E0000E0
0E0000E0
0E0000E0
0E0000E0
0E0000E0
0E0000C0
07000180
07000180
03800300
01C00700
00F01E00
001FF000
00000000
00000000
00000000
ENDCHAR

STARTCHAR jisx0212_2A56
ENCODING 10838
SWIDTH 960 0
DWIDTH 32 0
BBX 32 32 0 -2
BITMAP
000E0E00
003E3E00
007C7C00
00E0E000
00000000
001FF000
003FF000
00F01E00
01800700
03000380
07000180
07000180
0E0000E0
0E0000E0
0E0000E0
0E0000E0
0E0000E0
0E0000E0
0E0000E0
0E0000E0
0E0000E0
0E0000E0
0E0000C0
07000180
07000180
03800300
01C00700
00F01E00
001FF000
00000000
00000000
00000000
ENDCHAR

STARTCHAR jisx0212_2A57
ENCODING 10839
SWIDTH 960 0
DWIDTH 32 0
BBX 32 32 0 -2
BITMAP
007FF000
00000000
00000000
00000000
00000000
001FF000
003FF000
00F01E00
01800700
03000380
07000180
07000180
0E0000E0
0E0000E0
0E0000E0
0E0000E0
0E0000E0
0E0000E0
0E0000E0
0E0000E0
0E0000E0
0E0000E0
0E0000C0
07000180
07000180
03800300
01C00700
00F01E00
001FF000
00000000
00000000
00000000
ENDCHAR

STARTCHAR jisx0212_2A58
ENCODING 10840
SWIDTH 960 0
DWIDTH 32 0
BBX 32 32 0 -2
BITMAP
001E1000
003FF000
007FF000
0061E000
00000000
001FF000
003FF000
00F01E00
01800700
03000380
07000180
07000180
0E0000E0
0E0000E0
0E0000E0
0E0000E0
0E0000E0
0E0000E0
0E0000E0
0E0000E0
0E0000E0
0E0000E0
0E0000C0
07000180
07000180
03800300
01C00700
00F01E00
001FF000
00000000
00000000
00000000
ENDCHAR

STARTCHAR jisx0212_2A59
ENCODING 10841
SWIDTH 960 0
DWIDTH 32 0
BBX 32 32 0 -2
BITMAP
00007000
0001F000
0003F000
000F0000
00000000
03FFFC00
03FFFE00
00E00700
00E00180
00E00180
00E00180
00E00180
00E00180
00E00180
00E00380
00E00700
00FFFE00
00E00E00
00E00E00
00E00600
00E00700
00E00700
00E00700
00E00700
00E00700
00E00708
00E00308
00E00198
07F800F0
00000000
00000000
00000000
ENDCHAR

STARTCHAR jisx0212_2A5A
ENCODING 10842
SWIDTH 960 0
DWIDTH 32 0
BBX 32 32 0 -2
BITMAP
00187000
000CE000
000EC000
00078000
00000000
03FFFC00
03FFFE00
00E00700
00E00180
00E00180
00E00180
00E00180
00E00180
00E00180
00E00380
00E00700
00FFFE00
00E00E00
00E00E00
00E00600
00E00700
00E00700
00E00700
00E00700
00E00700
00E00708
00E00308
00E00198
07F800F0
00000000
00000000
00000000
ENDCHAR

STARTCHAR jisx0212_2A5B
ENCODING 10843
SWIDTH 960 0
DWIDTH 32 0
BBX 32 32 0 -2
BITMAP
00000000
00000000
00000000
07FFFE00
00E00700
00E00380
00E00180
00E00180
00E00180
00E00180
00E00180
00E00180
00E00700
00FFFE00
00FFFE00
00E00E00
00E00600
00E00700
00E00700
00E00700
00E00700
00E00700
00E00700
00E00708
00E08198
03F980F0
03F9C0F0
0001E000
00007000
00187000
001C7000
000FE000
ENDCHAR

STARTCHAR jisx0212_2A5C
ENCODING 10844
SWIDTH 960 0
DWIDTH 32 0
BBX 32 32 0 -2
BITMAP
00007000
0001F000
0003F000
000F0000
00000000
001FC000
003FE600
00F07E00
00E00E00
01C00700
01800300
01800100
01800100
00C00000
00E00000
00FE0000
001FE000
0003F800
0001FC00
00001F00
00000780
01000380
01000180
01000180
01800180
00C00300
00E00700
00F80F00
008FF800
00000000
00000000
00000000
ENDCHAR

STARTCHAR jisx0212_2A5D
ENCODING 10845
SWIDTH 960 0
DWIDTH 32 0
BBX 32 32 0 -2
BITMAP
00078000
000EC000
000CE000
00187000
00000000
001FC000
003FE600
00F07E00
00E00E00
01C00700
01800300
01800100
01800100
00C00000
00E00000
00FE0000
001FE000
0003F800
0001FC00
00001F00
00000780
01000380
01000180
01000180
01800180
00C00300
00E00700
00F80F00
008FF800
00000000
00000000
00000000
ENDCHAR

STARTCHAR jisx0212_2A5E
ENCODING 10846
SWIDTH 960 0
DWIDTH 32 0
BBX 32 32 0 -2
BITMAP
00187000
000CE000
000EC000
00078000
00000000
001FC000
003FE600
00F07E00
00E00E00
01C00700
01800300
01800100
01800100
00C00000
00E00000
00FE0000
001FE000
0003F800
0001FC00
00001F00
00000780
01000380
01000180
01000180
01800180
00C00300
00E00700
00F80F00
008FF800
00000000
00000000
00000000
ENDCHAR

STARTCHAR jisx0212_2A5F
ENCODING 10847
SWIDTH 960 0
DWIDTH 32 0
BBX 32 32 0 -2
BITMAP
00000000
00000000
00000000
001FE600
00F07E00
00E00E00
00C00E00
01800700
01800100
01800100
01C00100
00E00000
00FE0000
003FC000
001FE000
0001F800
00001F00
00000780
00000380
01000180
01000180
01800180
01C00380
00E00700
00F80F00
00CFFC00
008FF800
00018000
0001E000
00187000
001C7000
000FE000
ENDCHAR

STARTCHAR jisx0212_2A60
ENCODING 10848
SWIDTH 960 0
DWIDTH 32 0
BBX 32 32 0 -2
BITMAP
00187000
000CE000
000EC000
00078000
00000000
03FFFFC0
07FFFFE0
070180E0
0E018070
0C018030
08018010
08018010
00018000
00018000
00018000
00018000
00018000
00018000
00018000
00018000
00018000
00018000
00018000
00018000
00018000
00018000
00018000
00018000
000FF000
00000000
00000000
00000000
ENDCHAR

STARTCHAR jisx0212_2A61
ENCODING 10849
SWIDTH 960 0
DWIDTH 32 0
BBX 32 32 0 -2
BITMAP
00000000
00000000
00000000
07FFFFE0
070180E0
0E018070
0C018030
08018010
08018010
00018000
00018000
00018000
00018000
00018000
00018000
00018000
00018000
00018000
00018000
00018000
00018000
00018000
00018000
00018000
00018000
000FF000
000FF000
00018000
0001E000
00187000
001C7000
000FE000
ENDCHAR

STARTCHAR jisx0212_2A62
ENCODING 10850
SWIDTH 960 0
DWIDTH 32 0
BBX 32 32 0 -2
BITMAP
00007000
0001F000
0003F000
000F0000
00000000
0FF003F0
0FF003F0
01800080
01800080
01800080
01800080
01800080
01800080
01800080
01800080
01800080
01800080
01800080
01800080
01800080
01800080
01800080
01800080
01800180
00E00100
00E00300
00E00700
00781E00
000FF000
00000000
00000000
00000000
ENDCHAR

STARTCHAR jisx0212_2A63
ENCODING 10851
SWIDTH 960 0
DWIDTH 32 0
BBX 32 32 0 -2
BITMAP
000E0000
000F8000
000FC000
0000F000
00000000
0FF003F0
0FF003F0
01800080
01800080
01800080
01800080
01800080
01800080
01800080
01800080
01800080
01800080
01800080
01800080
01800080
01800080
01800080
01800080
01800180
00E00100
00E00300
00E00700
00781E00
000FF000
00000000
00000000
00000000
ENDCHAR

STARTCHAR jisx0212_2A64
ENCODING 10852
SWIDTH 960 0
DWIDTH 32 0
BBX 32 32 0 -2
BITMAP
00181800
003C3C00
003C3C00
00181800
00000000
0FF003F0
0FF003F0
01800080
01800080
01800080
01800080
01800080
01800080
01800080
01800080
01800080
01800080
01800080
01800080
01800080
01800080
01800080
01800080
01800180
00E00100
00E00300
00E00700
00781E00
000FF000
00000000
00000000
00000000
ENDCHAR

STARTCHAR jisx0212_2A65
ENCODING 10853
SWIDTH 960 0
DWIDTH 32 0
BBX 32 32 0 -2
BITMAP
0001E000
00037000
00073000
000E1800
00000000
0FF003F0
0FF003F0
01800080
01800080
01800080
01800080
01800080
01800080
01800080
01800080
01800080
01800080
01800080
01800080
01800080
01800080
01800080
01800080
01800180
00E00100
00E00300
00E00700
00781E00
000FF000
00000000
00000000
00000000
ENDCHAR

STARTCHAR jisx0212_2A66
ENCODING 10854
SWIDTH 960 0
DWIDTH 32 0
BBX 32 32 0 -2
BITMAP
00081000
000FF000
000FF000
0007E000
00000000
0FF003F0
0FF003F0
01800080
01800080
01800080
01800080
01800080
01800080
01800080
01800080
01800080
01800080
01800080
01800080
01800080
01800080
01800080
01800080
01800180
00E00100
00E00300
00E00700
00781E00
000FF000
00000000
00000000
00000000
ENDCHAR

STARTCHAR jisx0212_2A67
ENCODING 10855
SWIDTH 960 0
DWIDTH 32 0
BBX 32 32 0 -2
BITMAP
000E1800
00073000
00037000
0001E000
00000000
0FF003F0
0FF003F0
01800080
01800080
01800080
01800080
01800080
01800080
01800080
01800080
01800080
01800080
01800080
01800080
01800080
01800080
01800080
01800080
01800180
00E00100
00E00300
00E00700
00781E00
000FF000
00000000
00000000
00000000
ENDCHAR

STARTCHAR jisx0212_2A68
ENCODING 10856
SWIDTH 960 0
DWIDTH 32 0
BBX 32 32 0 -2
BITMAP
00070700
001F1F00
003F3F00
00707000
00000000
0FF003F0
0FF003F0
01800080
01800080
01800080
01800080
01800080
01800080
01800080
01800080
01800080
01800080
01800080
01800080
01800080
01800080
01800080
01800080
01800180
00E00100
00E00300
00E00700
00781E00
000FF000
00000000
00000000
00000000
ENDCHAR

STARTCHAR jisx0212_2A69
ENCODING 10857
SWIDTH 960 0
DWIDTH 32 0
BBX 32 32 0 -2
BITMAP
001FF800
00000000
00000000
00000000
00000000
0FF003F0
0FF003F0
01800080
01800080
01800080
01800080
01800080
01800080
01800080
01800080
01800080
01800080
01800080
01800080
01800080
01800080
01800080
01800080
01800180
00E00100
00E00300
00E00700
00781E00
000FF000
00000000
00000000
00000000
ENDCHAR

STARTCHAR jisx0212_2A6A
ENCODING 10858
SWIDTH 960 0
DWIDTH 32 0
BBX 32 32 0 -2
BITMAP
00000000
00000000
00000000
0FF007F0
01800080
01800080
01800080
01800080
01800080
01800080
01800080
01800080
01800080
01800080
01800080
01800080
01800080
01800080
01800080
01800080
01800180
00C00100
00E00300
00E00700
00781E00
000FF000
000FF000
00018000
00011800
0001F800
0001F800
0000F000
ENDCHAR

STARTCHAR jisx0212_2A6B
ENCODING 10859
SWIDTH 960 0
DWIDTH 32 0
BBX 32 32 0 -2
BITMAP
00018000
00024000
00066000
00066000
00018000
0FF003F0
0FF003F0
01800080
01800080
01800080
01800080
01800080
01800080
01800080
01800080
01800080
01800080
01800080
01800080
01800080
01800080
01800080
01800080
01800180
00E00100
00E00300
00E00700
00781E00
000FF000
00000000
00000000
00000000
ENDCHAR

STARTCHAR jisx0212_2A6C
ENCODING 10860
SWIDTH 960 0
DWIDTH 32 0
BBX 32 32 0 -2
BITMAP
000F0800
001FF800
001FF800
0010F000
00000000
0FF003F0
0FF003F0
01800080
01800080
01800080
01800080
01800080
01800080
01800080
01800080
01800080
01800080
01800080
01800080
01800080
01800080
01800080
01800080
01800180
00E00100
00E00300
00E00700
00781E00
000FF000
00000000
00000000
00000000
ENDCHAR

STARTCHAR jisx0212_2A6D
ENCODING 10861
SWIDTH 960 0
DWIDTH 32 0
BBX 32 32 0 -2
BITMAP
00001800
0000F800
0000F800
00078000
00181800
003C3C00
003C3C00
00181800
0FF007F0
03C000C0
01800080
01800080
01800080
01800080
01800080
01800080
01800080
01800080
01800080
01800080
01800080
01800080
01800080
01800180
00E00100
00E00300
00E00700
00781E00
000FF000
00000000
00000000
00000000
ENDCHAR

STARTCHAR jisx0212_2A6E
ENCODING 10862
SWIDTH 960 0
DWIDTH 32 0
BBX 32 32 0 -2
BITMAP
00180000
001F0000
001F0000
0001E000
00181800
003C3C00
003C3C00
00181800
0FF007F0
03C000C0
01800080
01800080
01800080
01800080
01800080
01800080
01800080
01800080
01800080
01800080
01800080
01800080
01800080
01800180
00E00100
00E00300
00E00700
00781E00
000FF000
00000000
00000000
00000000
ENDCHAR

STARTCHAR jisx0212_2A6F
ENCODING 10863
SWIDTH 960 0
DWIDTH 32 0
BBX 32 32 0 -2
BITMAP
00187000
000CE000
000EC000
00078000
00181800
003C3C00
003C3C00
00181800
0FF007F0
03C000C0
01800080
01800080
01800080
01800080
01800080
01800080
01800080
01800080
01800080
01800080
01800080
01800080
01800080
01800180
00E00100
00E00300
00E00700
00781E00
000FF000
00000000
00000000
00000000
ENDCHAR

STARTCHAR jisx0212_2A70
ENCODING 10864
SWIDTH 960 0
DWIDTH 32 0
BBX 32 32 0 -2
BITMAP
001FF800
00000000
00000000
00000000
00181800
003C3C00
003C3C00
00181800
0FF007F0
03C000C0
01800080
01800080
01800080
01800080
01800080
01800080
01800080
01800080
01800080
01800080
01800080
01800080
01800080
01800180
00E00100
00E00300
00E00700
00781E00
000FF000
00000000
00000000
00000000
ENDCHAR

STARTCHAR jisx0212_2A71
ENCODING 10865
SWIDTH 960 0
DWIDTH 32 0
BBX 32 32 0 -2
BITMAP
00078000
000EC000
000CE000
00187000
00000000
FF0180FC
FF0180FC
18018010
18018010
18018010
1C03C030
0E07E070
0E06E060
0E06E060
0E06E060
070E70E0
07087080
07087080
07087080
07087080
01981980
01901900
01901900
01901900
00F00F00
00E00E00
00E00E00
00E00E00
00E00E00
00000000
00000000
00000000
ENDCHAR

STARTCHAR jisx0212_2A72
ENCODING 10866
SWIDTH 960 0
DWIDTH 32 0
BBX 32 32 0 -2
BITMAP
00007000
0001F000
0003F000
000F0000
00000000
0FF00FF0
0FF00FF0
01800180
00E00700
00E00600
00E00600
00700E00
00700800
00381800
00181800
00181000
000E7000
000E6000
000E6000
0007E000
00078000
00038000
00018000
00018000
00018000
00018000
00018000
00018000
000FF000
00000000
00000000
00000000
ENDCHAR

STARTCHAR jisx0212_2A73
ENCODING 10867
SWIDTH 960 0
DWIDTH 32 0
BBX 32 32 0 -2
BITMAP
00181800
003C3C00
003C3C00
00181800
00000000
0FF00FF0
0FF00FF0
01800180
00E00700
00E00600
00E00600
00700E00
00700800
00381800
00181800
00181000
000E7000
000E6000
000E6000
0007E000
00078000
00038000
00018000
00018000
00018000
00018000
00018000
00018000
000FF000
00000000
00000000
00000000
ENDCHAR

STARTCHAR jisx0212_2A74
ENCODING 10868
SWIDTH 960 0
DWIDTH 32 0
BBX 32 32 0 -2
BITMAP
00078000
000EC000
000CE000
00187000
00000000
0FF00FF0
0FF00FF0
01800180
00E00700
00E00600
00E00600
00700E00
00700800
00381800
00181800
00181000
000E7000
000E6000
000E6000
0007E000
00078000
00038000
00018000
00018000
00018000
00018000
00018000
00018000
000FF000
00000000
00000000
00000000
ENDCHAR

STARTCHAR jisx0212_2A75
ENCODING 10869
SWIDTH 960 0
DWIDTH 32 0
BBX 32 32 0 -2
BITMAP
00007000
0001F000
0003F000
000F0000
00000000
00FFFF80
00FFFF80
00E00780
01800F00
01000E00
01000C00
01001800
00007800
0000F000
0000F000
0001E000
00018000
00038000
00078000
000F0000
001E0000
001C0000
00380000
00700060
00F00060
01E000E0
03C000C0
07800180
07FFFF80
00000000
00000000
00000000
ENDCHAR

STARTCHAR jisx0212_2A76
ENCODING 10870
SWIDTH 960 0
DWIDTH 32 0
BBX 32 32 0 -2
BITMAP
00187000
000CE000
000EC000
00078000
00000000
00FFFF80
00FFFF80
00E00780
01800F00
01000E00
01000C00
01001800
00007800
0000F000
0000F000
0001E000
00018000
00038000
00078000
000F0000
001E0000
001C0000
00380000
00700060
00F00060
01E000E0
03C000C0
07800180
07FFFF80
00000000
00000000
00000000
ENDCHAR

STARTCHAR jisx0212_2A77
ENCODING 10871
SWIDTH 960 0
DWIDTH 32 0
BBX 32 32 0 -2
BITMAP
00018000
0003C000
0003C000
00018000
00000000
00FFFF80
00FFFF80
00E00780
01800F00
01000E00
01000C00
01001800
00007800
0000F000
0000F000
0001E000
00018000
00038000
00078000
000F0000
001E0000
001C0000
00380000
00700060
00F00060
01E000E0
03C000C0
07800180
07FFFF80
00000000
00000000
00000000
ENDCHAR

STARTCHAR jisx0212_2B21
ENCODING 11041
SWIDTH 960 0
DWIDTH 32 0
BBX 32 32 0 -2
BITMAP
00000000
00000000
00000000
00007000
0001F000
000F0000
000F0000
00000000
00000000
00000000
00000000
007FF000
00F01800
00F80C00
00F80E00
00700E00
00001E00
0001FE00
0003FE00
001F0E00
00F00E00
01E00E00
01C00E00
01800E00
01800E00
01801E80
01C03E80
00E07F80
007FE700
00000000
00000000
00000000
ENDCHAR

STARTCHAR jisx0212_2B22
ENCODING 11042
SWIDTH 960 0
DWIDTH 32 0
BBX 32 32 0 -2
BITMAP
00000000
00000000
00000000
000E0000
000F8000
0000F000
0000F000
00000000
00000000
00000000
00000000
007FF000
00F01800
00F80C00
00F80E00
00700E00
00001E00
0001FE00
0003FE00
001F0E00
00F00E00
01E00E00
01C00E00
01800E00
01800E00
01801E80
01C03E80
00E07F80
007FE700
00000000
00000000
00000000
ENDCHAR

STARTCHAR jisx0212_2B23
ENCODING 11043
SWIDTH 960 0
DWIDTH 32 0
BBX 32 32 0 -2
BITMAP
00000000
00000000
00000000
00181800
007E7E00
003C3C00
00181800
00000000
00000000
00000000
00000000
007FF000
00F01800
00F80C00
00F80E00
00700E00
00001E00
0001FE00
0003FE00
001F0E00
00F00E00
01E00E00
01C00E00
01800E00
01800E00
01801E80
01C03E80
00E07F80
007FE700
00000000
00000000
00000000
ENDCHAR

STARTCHAR jisx0212_2B24
ENCODING 11044
SWIDTH 960 0
DWIDTH 32 0
BBX 32 32 0 -2
BITMAP
00000000
00000000
00000000
00078000
000EE000
001C7000
00183000
00000000
00000000
00000000
00000000
007FF000
00F01800
00F80C00
00F80E00
00700E00
00001E00
0001FE00
0003FE00
001F0E00
00F00E00
01E00E00
01C00E00
01800E00
01800E00
01801E80
01C03E80
00E07F80
007FE700
00000000
00000000
00000000
ENDCHAR

STARTCHAR jisx0212_2B25
ENCODING 11045
SWIDTH 960 0
DWIDTH 32 0
BBX 32 32 0 -2
BITMAP
00000000
00000000
00000000
00081000
000FF000
0007E000
0003C000
00000000
00000000
00000000
00000000
007FF000
00F01800
00F80C00
00F80E00
00700E00
00001E00
0001FE00
0003FE00
001F0E00
00F00E00
01E00E00
01C00E00
01800E00
01800E00
01801E80
01C03E80
00E07F80
007FE700
00000000
00000000
00000000
ENDCHAR

STARTCHAR jisx0212_2B26
ENCODING 11046
SWIDTH 960 0
DWIDTH 32 0
BBX 32 32 0 -2
BITMAP
00000000
00000000
00000000
00187000
000EE000
0007C000
00038000
00000000
00000000
00000000
00000000
007FF000
00F01800
00F80C00
00F80E00
00700E00
00001E00
0001FE00
0003FE00
001F0E00
00F00E00
01E00E00
01C00E00
01800E00
01800E00
01801E80
01C03E80
00E07F80
007FE700
00000000
00000000
00000000
ENDCHAR

STARTCHAR jisx0212_2B27
ENCODING 11047
SWIDTH 960 0
DWIDTH 32 0
BBX 32 32 0 -2
BITMAP
00000000
00000000
00000000
00000000
001FF800
00000000
00000000
00000000
00000000
00000000
00000000
007FF000
00F01800
00F80C00
00F80E00
00700E00
00001E00
0001FE00
0003FE00
001F0E00
00F00E00
01E00E00
01C00E00
01800E00
01800E00
01801E80
01C03E80
00E07F80
007FE700
00000000
00000000
00000000
ENDCHAR

STARTCHAR jisx0212_2B28
ENCODING 11048
SWIDTH 960 0
DWIDTH 32 0
BBX 32 32 0 -2
BITMAP
00000000
00000000
00000000
00000000
00000000
00000000
00000000
00000000
00000000
00000000
00000000
007FF000
00F01800
00F80C00
00F80E00
00700E00
00001E00
0003FE00
0007FE00
007E0E00
01E00E00
01C00E00
01800E00
01800E00
01801E80
00C03F80
00E07F80
007FEF00
00000800
00000F80
00000F80
00000780
ENDCHAR

STARTCHAR jisx0212_2B29
ENCODING 11049
SWIDTH 960 0
DWIDTH 32 0
BBX 32 32 0 -2
BITMAP
00000000
00000000
00000000
00018000
00066000
00066000
00024000
00018000
00000000
00000000
00000000
007FF000
00F01800
00F80C00
00F80E00
00700E00
00001E00
0001FE00
0003FE00
001F0E00
00F00E00
01E00E00
01C00E00
01800E00
01800E00
01801E80
01C03E80
00E07F80
007FE700
00000000
00000000
00000000
ENDCHAR

STARTCHAR jisx0212_2B2A
ENCODING 11050
SWIDTH 960 0
DWIDTH 32 0
BBX 32 32 0 -2
BITMAP
00000000
00000000
00000000
000F0800
001FF800
0010F000
0010F000
00000000
00000000
00000000
00000000
007FF000
00F01800
00F80C00
00F80E00
00700E00
00001E00
0001FE00
0003FE00
001F0E00
00F00E00
01E00E00
01C00E00
01800E00
01800E00
01801E80
01C03E80
00E07F80
007FE700
00000000
00000000
00000000
ENDCHAR

STARTCHAR jisx0212_2B2B
ENCODING 11051
SWIDTH 960 0
DWIDTH 32 0
BBX 32 32 0 -2
BITMAP
00000000
00000000
00000000
0000E000
0007E000
001E0000
001C0000
00000000
00000000
00000000
00000000
000FE000
00787800
00E00C00
00E00E00
00E01F00
01801F00
01800E00
01800C00
01800000
01800000
01800000
01800000
01800100
00E00700
00E00E00
00E00C00
00787800
000FE000
00000000
00000000
00000000
ENDCHAR

STARTCHAR jisx0212_2B2C
ENCODING 11052
SWIDTH 960 0
DWIDTH 32 0
BBX 32 32 0 -2
BITMAP
00000000
00000000
00000000
00078000
000EE000
001C7000
00183000
00000000
00000000
00000000
00000000
000FE000
00787800
00E00C00
00E00E00
00E01F00
01801F00
01800E00
01800C00
01800000
01800000
01800000
01800000
01800100
00E00700
00E00E00
00E00C00
00787800
000FE000
00000000
00000000
00000000
ENDCHAR

STARTCHAR jisx0212_2B2D
ENCODING 11053
SWIDTH 960 0
DWIDTH 32 0
BBX 32 32 0 -2
BITMAP
00000000
00000000
00000000
00187000
000EE000
0007C000
00038000
00000000
00000000
00000000
00000000
000FE000
00787800
00E00C00
00E00E00
00E01F00
01801F00
01800E00
01800C00
01800000
01800000
01800000
01800000
01800100
00E00700
00E00E00
00E00C00
00787800
000FE000
00000000
00000000
00000000
ENDCHAR

STARTCHAR jisx0212_2B2E
ENCODING 11054
SWIDTH 960 0
DWIDTH 32 0
BBX 32 32 0 -2
BITMAP
00000000
00000000
00000000
00000000
00000000
00000000
00000000
00000000
00000000
00000000
00000000
000FE000
00787800
00E00C00
00E00E00
00E01F00
01801F00
01800E00
01800C00
01800000
01800000
01800100
01C00300
00E00700
00E00E00
00783C00
003C7800
000FE000
00018000
0018C000
001CC000
000F8000
ENDCHAR

STARTCHAR jisx0212_2B2F
ENCODING 11055
SWIDTH 960 0
DWIDTH 32 0
BBX 32 32 0 -2
BITMAP
00000000
00000000
00000000
00018000
0007E000
0003C000
00018000
00000000
00000000
00000000
00000000
000FE000
00787800
00E00C00
00E00E00
00E01F00
01801F00
01800E00
01800C00
01800000
01800000
01800000
01800000
01800100
00E00700
00E00E00
00E00C00
00787800
000FE000
00000000
00000000
00000000
ENDCHAR

STARTCHAR jisx0212_2B30
ENCODING 11056
SWIDTH 960 0
DWIDTH 32 0
BBX 32 32 0 -2
BITMAP
00187000
000CE000
000EC000
00078700
00001F00
00000700
00000700
00000700
00000700
00000700
00000700
000FE700
00787F00
00E00F00
00E00F00
00E00700
01800700
01800700
01800700
01800700
01800700
01800700
01800700
01800700
00E00700
00E00F00
00E00F00
00787F00
000FE7E0
00000000
00000000
00000000
ENDCHAR

STARTCHAR jisx0212_2B31
ENCODING 11057
SWIDTH 960 0
DWIDTH 32 0
BBX 32 32 0 -2
BITMAP
00000000
00000000
00000000
0000E000
0007E000
001E0000
001C0000
00000000
00000000
00000000
00000000
000FE000
00787800
00E00C00
00E00E00
00E00E00
01800700
01800700
01C00700
01FFFF00
01800000
01800000
01800000
01800100
00E00700
00E00E00
00E00C00
00787800
000FE000
00000000
00000000
00000000
ENDCHAR

STARTCHAR jisx0212_2B32
ENCODING 11058
SWIDTH 960 0
DWIDTH 32 0
BBX 32 32 0 -2
BITMAP
00000000
00000000
00000000
00180000
001F0000
0003C000
0001C000
00000000
00000000
00000000
00000000
000FE000
00787800
00E00C00
00E00E00
00E00E00
01800700
01800700
01C00700
01FFFF00
01800000
01800000
01800000
01800100
00E00700
00E00E00
00E00C00
00787800
000FE000
00000000
00000000
00000000
ENDCHAR

STARTCHAR jisx0212_2B33
ENCODING 11059
SWIDTH 960 0
DWIDTH 32 0
BBX 32 32 0 -2
BITMAP
00000000
00000000
00000000
00707000
00F8F800
00707000
00303000
00000000
00000000
00000000
00000000
000FE000
00787800
00E00C00
00E00E00
00E00E00
01800700
01800700
01C00700
01FFFF00
01800000
01800000
01800000
01800100
00E00700
00E00E00
00E00C00
00787800
000FE000
00000000
00000000
00000000
ENDCHAR

STARTCHAR jisx0212_2B34
ENCODING 11060
SWIDTH 960 0
DWIDTH 32 0
BBX 32 32 0 -2
BITMAP
00000000
00000000
00000000
00078000
000EE000
001C7000
00183000
00000000
00000000
00000000
00000000
000FE000
00787800
00E00C00
00E00E00
00E00E00
01800700
01800700
01C00700
01FFFF00
01800000
01800000
01800000
01800100
00E00700
00E00E00
00E00C00
00787800
000FE000
00000000
00000000
00000000
ENDCHAR

STARTCHAR jisx0212_2B35
ENCODING 11061
SWIDTH 960 0
DWIDTH 32 0
BBX 32 32 0 -2
BITMAP
00000000
00000000
00000000
00187000
000EE000
0007C000
00038000
00000000
00000000
00000000
00000000
000FE000
00787800
00E00C00
00E00E00
00E00E00
01800700
01800700
01C00700
01FFFF00
01800000
01800000
01800000
01800100
00E00700
00E00E00
00E00C00
00787800
000FE000
00000000
00000000
00000000
ENDCHAR

STARTCHAR jisx0212_2B36
ENCODING 11062
SWIDTH 960 0
DWIDTH 32 0
BBX 32 32 0 -2
BITMAP
00000000
00000000
00000000
00070000
000F8000
00070000
00030000
00000000
00000000
00000000
00000000
000FE000
00787800
00E00C00
00E00E00
00E00E00
01800700
01800700
01C00700
01FFFF00
01800000
01800000
01800000
01800100
00E00700
00E00E00
00E00C00
00787800
000FE000
00000000
00000000
00000000
ENDCHAR

STARTCHAR jisx0212_2B37
ENCODING 11063
SWIDTH 960 0
DWIDTH 32 0
BBX 32 32 0 -2
BITMAP
00000000
00000000
00000000
00000000
007FF000
00000000
00000000
00000000
00000000
00000000
00000000
000FE000
00787800
00E00C00
00E00E00
00E00E00
01800700
01800700
01C00700
01FFFF00
01800000
01800000
01800000
01800100
00E00700
00E00E00
00E00C00
00787800
000FE000
00000000
00000000
00000000
ENDCHAR

STARTCHAR jisx0212_2B38
ENCODING 11064
SWIDTH 960 0
DWIDTH 32 0
BBX 32 32 0 -2
BITMAP
00000000
00000000
00000000
00000000
00000000
00000000
00000000
00000000
00000000
00000000
00000000
000FE000
00787800
00E00C00
00E00E00
00E00E00
01800700
01FFFF00
01FFFF00
01800000
01800000
01800100
01C00300
00E00700
00E00E00
00783C00
003C7800
000FE000
00006000
00007C00
00003E00
00001E00
ENDCHAR

STARTCHAR jisx0212_2B39
ENCODING 11065
SWIDTH 960 0
DWIDTH 32 0
BBX 32 32 0 -2
BITMAP
00000000
00000000
00000000
00007000
0001F000
000F0000
000F0000
00000000
00000000
00000000
00000000
000FF780
001818E0
00300CE0
00700EC0
00700E00
00700E00
00700E00
00300C00
00181800
007FF000
00E00000
00E00000
00FFF800
007FFF00
00E00780
00C00380
01800180
01800180
00F00F00
00F00F00
001FF800
ENDCHAR

STARTCHAR jisx0212_2B3A
ENCODING 11066
SWIDTH 960 0
DWIDTH 32 0
BBX 32 32 0 -2
BITMAP
00000000
00000000
00000000
00078000
000EE000
001C7000
00183000
00000000
00000000
00000000
00000000
000FF780
001818E0
00300CE0
00700EC0
00700E00
00700E00
00700E00
00300C00
00181800
007FF000
00E00000
00E00000
00FFF800
007FFF00
00E00780
00C00380
01800180
01800180
00F00F00
00F00F00
001FF800
ENDCHAR

STARTCHAR jisx0212_2B3B
ENCODING 11067
SWIDTH 960 0
DWIDTH 32 0
BBX 32 32 0 -2
BITMAP
00000000
00000000
00000000
00081000
000FF000
0007E000
0003C000
00000000
00000000
00000000
00000000
000FF780
001818E0
00300CE0
00700EC0
00700E00
00700E00
00700E00
00300C00
00181800
007FF000
00E00000
00E00000
00FFF800
007FFF00
00E00780
00C00380
01800180
01800180
00F00F00
00F00F00
001FF800
ENDCHAR

STARTCHAR jisx0212_2B3D
ENCODING 11069
SWIDTH 960 0
DWIDTH 32 0
BBX 32 32 0 -2
BITMAP
00000000
00000000
00000000
00018000
0007E000
0003C000
00018000
00000000
00000000
00000000
00000000
000FF780
001818E0
00300CE0
00700EC0
00700E00
00700E00
00700E00
00300C00
00181800
007FF000
00E00000
00E00000
00FFF800
007FFF00
00E00780
00C00380
01800180
01800180
00F00F00
00F00F00
001FF800
ENDCHAR

STARTCHAR jisx0212_2B3E
ENCODING 11070
SWIDTH 960 0
DWIDTH 32 0
BBX 32 32 0 -2
BITMAP
0001E000
00037000
00073000
00EE1800
07E00000
00E00000
00E00000
00E00000
00E00000
00E00000
00E00000
00E7F000
00FE1E00
00F00E00
00F00E00
00E00700
00E00700
00E00700
00E00700
00E00700
00E00700
00E00700
00E00700
00E00700
00E00700
00E00700
00E00700
00E00700
07F81FE0
00000000
00000000
00000000
ENDCHAR

STARTCHAR jisx0212_2B3F
ENCODING 11071
SWIDTH 960 0
DWIDTH 32 0
BBX 32 32 0 -2
BITMAP
00000000
00000000
00000000
00007000
0001F000
000F0000
000F0000
00000000
00000000
00000000
00000000
00018000
000F8000
00038000
00018000
00018000
00018000
00018000
00018000
00018000
00018000
00018000
00018000
00018000
00018000
00018000
00018000
00018000
000FF000
00000000
00000000
00000000
ENDCHAR

STARTCHAR jisx0212_2B40
ENCODING 11072
SWIDTH 960 0
DWIDTH 32 0
BBX 32 32 0 -2
BITMAP
00000000
00000000
00000000
000E0000
000F8000
0000F000
0000F000
00000000
00000000
00000000
00000000
00018000
000F8000
00038000
00018000
00018000
00018000
00018000
00018000
00018000
00018000
00018000
00018000
00018000
00018000
00018000
00018000
00018000
000FF000
00000000
00000000
00000000
ENDCHAR

STARTCHAR jisx0212_2B41
ENCODING 11073
SWIDTH 960 0
DWIDTH 32 0
BBX 32 32 0 -2
BITMAP
00000000
00000000
00000000
00181800
007E7E00
003C3C00
00181800
00000000
00000000
00000000
00000000
00018000
000F8000
00038000
00018000
00018000
00018000
00018000
00018000
00018000
00018000
00018000
00018000
00018000
00018000
00018000
00018000
00018000
000FF000
00000000
00000000
00000000
ENDCHAR

STARTCHAR jisx0212_2B42
ENCODING 11074
SWIDTH 960 0
DWIDTH 32 0
BBX 32 32 0 -2
BITMAP
00000000
00000000
00000000
00078000
000EE000
001C7000
00183000
00000000
00000000
00000000
00000000
00018000
000F8000
00038000
00018000
00018000
00018000
00018000
00018000
00018000
00018000
00018000
00018000
00018000
00018000
00018000
00018000
00018000
000FF000
00000000
00000000
00000000
ENDCHAR

STARTCHAR jisx0212_2B43
ENCODING 11075
SWIDTH 960 0
DWIDTH 32 0
BBX 32 32 0 -2
BITMAP
00000000
00000000
00000000
00187000
000EE000
0007C000
00038000
00000000
00000000
00000000
00000000
00018000
000F8000
00038000
00018000
00018000
00018000
00018000
00018000
00018000
00018000
00018000
00018000
00018000
00018000
00018000
00018000
00018000
000FF000
00000000
00000000
00000000
ENDCHAR

STARTCHAR jisx0212_2B45
ENCODING 11077
SWIDTH 960 0
DWIDTH 32 0
BBX 32 32 0 -2
BITMAP
00000000
00000000
00000000
00000000
001FF800
00000000
00000000
00000000
00000000
00000000
00000000
00018000
000F8000
00038000
00018000
00018000
00018000
00018000
00018000
00018000
00018000
00018000
00018000
00018000
00018000
00018000
00018000
00018000
000FF000
00000000
00000000
00000000
ENDCHAR

STARTCHAR jisx0212_2B46
ENCODING 11078
SWIDTH 960 0
DWIDTH 32 0
BBX 32 32 0 -2
BITMAP
00000000
00000000
00000000
00018000
0007E000
0003C000
00018000
00000000
00000000
00000000
00000000
00018000
000F8000
00038000
00018000
00018000
00018000
00018000
00018000
00018000
00018000
00018000
00018000
00018000
00018000
00018000
0003C000
000FF000
00010000
0001F000
0001F000
0000F000
ENDCHAR

STARTCHAR jisx0212_2B47
ENCODING 11079
SWIDTH 960 0
DWIDTH 32 0
BBX 32 32 0 -2
BITMAP
00000000
00000000
00000000
000F0800
001FF800
0010F000
0010F000
00000000
00000000
00000000
00000000
00018000
000F8000
00038000
00018000
00018000
00018000
00018000
00018000
00018000
00018000
00018000
00018000
00018000
00018000
00018000
00018000
00018000
000FF000
00000000
00000000
00000000
ENDCHAR

STARTCHAR jisx0212_2B48
ENCODING 11080
SWIDTH 960 0
DWIDTH 32 0
BBX 32 32 0 -2
BITMAP
00000000
00000000
00000000
00078000
000EE000
001C7000
00183000
00000000
00000000
00000000
00000000
0000E000
0007E000
0000E000
0000E000
0000E000
0000E000
0000E000
0000E000
0000E000
0000E000
0000E000
0000E000
0000E000
0000E000
0000E000
0000E000
0070E000
00F8E000
0071C000
00338000
001F0000
ENDCHAR

STARTCHAR jisx0212_2B49
ENCODING 11081
SWIDTH 960 0
DWIDTH 32 0
BBX 32 32 0 -2
BITMAP
00000000
00000000
00000000
00700000
01F00000
00700000
00700000
00700000
00700000
00700000
00700000
0070FF00
00701800
00703000
00707000
0070E000
00718000
0073C000
0077E000
007EE000
00787000
00703800
00701800
00701800
00700E00
01FC3F80
01FE3F80
00010000
00018000
0018C000
001CC000
000F8000
ENDCHAR

STARTCHAR jisx0212_2B4A
ENCODING 11082
SWIDTH 960 0
DWIDTH 32 0
BBX 32 32 0 -2
BITMAP
00007000
0001F000
0003F000
000F0000
00000000
00018000
00038000
000F8000
00018000
00018000
00018000
00018000
00018000
00018000
00018000
00018000
00018000
00018000
00018000
00018000
00018000
00018000
00018000
00018000
00018000
00018000
00018000
00018000
000FF000
00000000
00000000
00000000
ENDCHAR

STARTCHAR jisx0212_2B4B
ENCODING 11083
SWIDTH 960 0
DWIDTH 32 0
BBX 32 32 0 -2
BITMAP
00187000
000CE000
000EC000
00078000
00000000
00018000
00038000
000F8000
00018000
00018000
00018000
00018000
00018000
00018000
00018000
00018000
00018000
00018000
00018000
00018000
00018000
00018000
00018000
00018000
00018000
00018000
00018000
00018000
000FF000
00000000
00000000
00000000
ENDCHAR

STARTCHAR jisx0212_2B4C
ENCODING 11084
SWIDTH 960 0
DWIDTH 32 0
BBX 32 32 0 -2
BITMAP
00000000
00000000
00000000
00018000
000F8000
00038000
00018000
00018000
00018000
00018000
00018000
00018000
00018000
00018000
00018000
00018000
00018000
00018000
00018000
00018000
00018000
00018000
00018000
00018000
00018000
000FF000
000FF000
00008000
0000E000
000C7000
000E7000
0007E000
ENDCHAR

STARTCHAR jisx0212_2B4D
ENCODING 11085
SWIDTH 960 0
DWIDTH 32 0
BBX 32 32 0 -2
BITMAP
00000000
00000000
00000000
00007000
0001F000
000F0000
000F0000
00000000
00000000
00000000
00000000
00E7F000
07FE1E00
00F00E00
00F00E00
00E00700
00E00700
00E00700
00E00700
00E00700
00E00700
00E00700
00E00700
00E00700
00E00700
00E00700
00E00700
00E00700
07F81FE0
00000000
00000000
00000000
ENDCHAR

STARTCHAR jisx0212_2B4E
ENCODING 11086
SWIDTH 960 0
DWIDTH 32 0
BBX 32 32 0 -2
BITMAP
00000000
00000000
00000000
00187000
000EE000
0007C000
00038000
00000000
00000000
00000000
00000000
00E7F000
07FE1E00
00F00E00
00F00E00
00E00700
00E00700
00E00700
00E00700
00E00700
00E00700
00E00700
00E00700
00E00700
00E00700
00E00700
00E00700
00E00700
07F81FE0
00000000
00000000
00000000
ENDCHAR

STARTCHAR jisx0212_2B4F
ENCODING 11087
SWIDTH 960 0
DWIDTH 32 0
BBX 32 32 0 -2
BITMAP
00000000
00000000
00000000
00000000
00000000
00000000
00000000
00000000
00000000
00000000
00000000
00E7F000
07FE1E00
00F00E00
00F00E00
00E00700
00E00700
00E00700
00E00700
00E00700
00E00700
00E00700
00E00700
00E00700
00E00700
00E00700
00E00700
07F91FE0
00018000
0018C000
001CC000
000F8000
ENDCHAR

STARTCHAR jisx0212_2B50
ENCODING 11088
SWIDTH 960 0
DWIDTH 32 0
BBX 32 32 0 -2
BITMAP
00000000
00000000
00000000
000F0800
001FF800
0010F000
0010F000
00000000
00000000
00000000
00000000
00E7F000
07FE1E00
00F00E00
00F00E00
00E00700
00E00700
00E00700
00E00700
00E00700
00E00700
00E00700
00E00700
00E00700
00E00700
00E00700
00E00700
00E00700
07F81FE0
00000000
00000000
00000000
ENDCHAR

STARTCHAR jisx0212_2B51
ENCODING 11089
SWIDTH 960 0
DWIDTH 32 0
BBX 32 32 0 -2
BITMAP
00000000
00000000
00000000
0000E000
0007E000
001E0000
001C0000
00000000
00000000
00000000
00000000
000FE000
00787800
00E00C00
00E00E00
00E00E00
01800700
01800700
01800700
01800700
01800700
01800700
01800700
01800700
00E00E00
00E00E00
00E00C00
00787800
000FE000
00000000
00000000
00000000
ENDCHAR

STARTCHAR jisx0212_2B52
ENCODING 11090
SWIDTH 960 0
DWIDTH 32 0
BBX 32 32 0 -2
BITMAP
00000000
00000000
00000000
00180000
001F0000
0003C000
0001C000
00000000
00000000
00000000
00000000
000FE000
00787800
00E00C00
00E00E00
00E00E00
01800700
01800700
01800700
01800700
01800700
01800700
01800700
01800700
00E00E00
00E00E00
00E00C00
00787800
000FE000
00000000
00000000
00000000
ENDCHAR

STARTCHAR jisx0212_2B53
ENCODING 11091
SWIDTH 960 0
DWIDTH 32 0
BBX 32 32 0 -2
BITMAP
00000000
00000000
00000000
00707000
00F8F800
00707000
00303000
00000000
00000000
00000000
00000000
000FE000
00787800
00E00C00
00E00E00
00E00E00
01800700
01800700
01800700
01800700
01800700
01800700
01800700
01800700
00E00E00
00E00E00
00E00C00
00787800
000FE000
00000000
00000000
00000000
ENDCHAR

STARTCHAR jisx0212_2B54
ENCODING 11092
SWIDTH 960 0
DWIDTH 32 0
BBX 32 32 0 -2
BITMAP
00000000
00000000
00000000
00078000
000EE000
001C7000
00183000
00000000
00000000
00000000
00000000
000FE000
00787800
00E00C00
00E00E00
00E00E00
01800700
01800700
01800700
01800700
01800700
01800700
01800700
01800700
00E00E00
00E00E00
00E00C00
00787800
000FE000
00000000
00000000
00000000
ENDCHAR

STARTCHAR jisx0212_2B55
ENCODING 11093
SWIDTH 960 0
DWIDTH 32 0
BBX 32 32 0 -2
BITMAP
00000000
00000000
00000000
00187000
000EE000
0007C000
00038000
00000000
00000000
00000000
00000000
000FE000
00787800
00E00C00
00E00E00
00E00E00
01800700
01800700
01800700
01800700
01800700
01800700
01800700
01800700
00E00E00
00E00E00
00E00C00
00787800
000FE000
00000000
00000000
00000000
ENDCHAR

STARTCHAR jisx0212_2B56
ENCODING 11094
SWIDTH 960 0
DWIDTH 32 0
BBX 32 32 0 -2
BITMAP
00000000
00000000
00000000
000E0E00
007E7E00
00E0E000
00C0C000
00000000
00000000
00000000
00000000
000FE000
00787800
00E00C00
00E00E00
00E00E00
01800700
01800700
01800700
01800700
01800700
01800700
01800700
01800700
00E00E00
00E00E00
00E00C00
00787800
000FE000
00000000
00000000
00000000
ENDCHAR

STARTCHAR jisx0212_2B57
ENCODING 11095
SWIDTH 960 0
DWIDTH 32 0
BBX 32 32 0 -2
BITMAP
00000000
00000000
00000000
00000000
007FF000
00000000
00000000
00000000
00000000
00000000
00000000
000FE000
00787800
00E00C00
00E00E00
00E00E00
01800700
01800700
01800700
01800700
01800700
01800700
01800700
01800700
00E00E00
00E00E00
00E00C00
00787800
000FE000
00000000
00000000
00000000
ENDCHAR

STARTCHAR jisx0212_2B58
ENCODING 11096
SWIDTH 960 0
DWIDTH 32 0
BBX 32 32 0 -2
BITMAP
00000000
00000000
00000000
001E1000
007FF000
0063E000
0001C000
00000000
00000000
00000000
00000000
000FE000
00787800
00E00C00
00E00E00
00E00E00
01800700
01800700
01800700
01800700
01800700
01800700
01800700
01800700
00E00E00
00E00E00
00E00C00
00787800
000FE000
00000000
00000000
00000000
ENDCHAR

STARTCHAR jisx0212_2B59
ENCODING 11097
SWIDTH 960 0
DWIDTH 32 0
BBX 32 32 0 -2
BITMAP
00000000
00000000
00000000
00007000
0001F000
000F0000
000F0000
00000000
00000000
00000000
00000000
000E1800
007EFE00
000FFE00
000F9C00
000F0800
000E0000
000E0000
000E0000
000E0000
000E0000
000E0000
000E0000
000E0000
000E0000
000E0000
000E0000
000E0000
007F8000
00000000
00000000
00000000
ENDCHAR

STARTCHAR jisx0212_2B5A
ENCODING 11098
SWIDTH 960 0
DWIDTH 32 0
BBX 32 32 0 -2
BITMAP
00000000
00000000
00000000
00187000
000EE000
0007C000
00038000
00000000
00000000
00000000
00000000
000E1800
007EFE00
000FFE00
000F9C00
000F0800
000E0000
000E0000
000E0000
000E0000
000E0000
000E0000
000E0000
000E0000
000E0000
000E0000
000E0000
000E0000
007F8000
00000000
00000000
00000000
ENDCHAR

STARTCHAR jisx0212_2B5B
ENCODING 11099
SWIDTH 960 0
DWIDTH 32 0
BBX 32 32 0 -2
BITMAP
00000000
00000000
00000000
00000000
00000000
00000000
00000000
00000000
00000000
00000000
00000000
000E1800
007EFE00
000FFE00
000F9C00
000F0800
000E0000
000E0000
000E0000
000E0000
000E0000
000E0000
000E0000
000E0000
000E0000
000E0000
000E0000
007F8000
00070000
00338000
00338000
001F0000
ENDCHAR

STARTCHAR jisx0212_2B5C
ENCODING 11100
SWIDTH 960 0
DWIDTH 32 0
BBX 32 32 0 -2
BITMAP
00000000
00000000
00000000
0000E000
0007E000
001E0000
001C0000
00000000
00000000
00000000
00000000
001FF600
00701E00
00E00E00
00E00E00
00E00600
00F00600
007F0000
003F0000
000FF000
0000FE00
00800F00
00800F00
00800700
00E00700
00E00700
00E00700
00F80E00
008FF800
00000000
00000000
00000000
ENDCHAR

STARTCHAR jisx0212_2B5D
ENCODING 11101
SWIDTH 960 0
DWIDTH 32 0
BBX 32 32 0 -2
BITMAP
00000000
00000000
00000000
00078000
000EE000
001C7000
00183000
00000000
00000000
00000000
00000000
001FF600
00701E00
00E00E00
00E00E00
00E00600
00F00600
007F0000
003F0000
000FF000
0000FE00
00800F00
00800F00
00800700
00E00700
00E00700
00E00700
00F80E00
008FF800
00000000
00000000
00000000
ENDCHAR

STARTCHAR jisx0212_2B5E
ENCODING 11102
SWIDTH 960 0
DWIDTH 32 0
BBX 32 32 0 -2
BITMAP
00000000
00000000
00000000
00187000
000EE000
0007C000
00038000
00000000
00000000
00000000
00000000
001FF600
00701E00
00E00E00
00E00E00
00E00600
00F00600
007F0000
003F0000
000FF000
0000FE00
00800F00
00800F00
00800700
00E00700
00E00700
00E00700
00F80E00
008FF800
00000000
00000000
00000000
ENDCHAR

STARTCHAR jisx0212_2B5F
ENCODING 11103
SWIDTH 960 0
DWIDTH 32 0
BBX 32 32 0 -2
BITMAP
00000000
00000000
00000000
00000000
00000000
00000000
00000000
00000000
00000000
00000000
00000000
001FF600
00701E00
00E00E00
00E00E00
00E00600
00F00600
007F0000
003F0000
000FF000
0080FE00
00800F00
00C00F00
00E00700
00E00700
00F80E00
00FC0C00
008FF800
0000E000
000C7000
000E7000
0007E000
ENDCHAR

STARTCHAR jisx0212_2B60
ENCODING 11104
SWIDTH 960 0
DWIDTH 32 0
BBX 32 32 0 -2
BITMAP
00187000
000CE000
000EC000
00078000
00000000
00010000
00030000
00070000
00070000
00070000
00070000
00070000
001FF000
00070000
00070000
00070000
00070000
00070000
00070000
00070000
00070000
00070000
00070000
00070000
00070600
00070E00
00070C00
00079800
0001F000
00000000
00000000
00000000
ENDCHAR

STARTCHAR jisx0212_2B61
ENCODING 11105
SWIDTH 960 0
DWIDTH 32 0
BBX 32 32 0 -2
BITMAP
00000000
00000000
00000000
00010000
00070000
00070000
00070000
00070000
00070000
00070000
00070000
001FF000
00070000
00070000
00070000
00070000
00070000
00070000
00070000
00070000
00070000
00070000
00070000
00070600
00070E00
00079C00
0003F800
0001F000
00007000
00033800
00033800
0001F000
ENDCHAR

STARTCHAR jisx0212_2B62
ENCODING 11106
SWIDTH 960 0
DWIDTH 32 0
BBX 32 32 0 -2
BITMAP
00000000
00000000
00000000
00007000
0001F000
000F0000
000F0000
00000000
00000000
00000000
00000000
00E00700
07E01F00
00E00700
00E00700
00E00700
00E00700
00E00700
00E00700
00E00700
00E00700
00E00700
00E00700
00E00700
00E00700
00700F00
00700F00
00787F00
000FE7E0
00000000
00000000
00000000
ENDCHAR

STARTCHAR jisx0212_2B63
ENCODING 11107
SWIDTH 960 0
DWIDTH 32 0
BBX 32 32 0 -2
BITMAP
00000000
00000000
00000000
000E0000
000F8000
0000F000
0000F000
00000000
00000000
00000000
00000000
00E00700
07E01F00
00E00700
00E00700
00E00700
00E00700
00E00700
00E00700
00E00700
00E00700
00E00700
00E00700
00E00700
00E00700
00700F00
00700F00
00787F00
000FE7E0
00000000
00000000
00000000
ENDCHAR

STARTCHAR jisx0212_2B64
ENCODING 11108
SWIDTH 960 0
DWIDTH 32 0
BBX 32 32 0 -2
BITMAP
00000000
00000000
00000000
00181800
007E7E00
003C3C00
00181800
00000000
00000000
00000000
00000000
00E00700
07E01F00
00E00700
00E00700
00E00700
00E00700
00E00700
00E00700
00E00700
00E00700
00E00700
00E00700
00E00700
00E00700
00700F00
00700F00
00787F00
000FE7E0
00000000
00000000
00000000
ENDCHAR

STARTCHAR jisx0212_2B65
ENCODING 11109
SWIDTH 960 0
DWIDTH 32 0
BBX 32 32 0 -2
BITMAP
00000000
00000000
00000000
00078000
000EE000
001C7000
00183000
00000000
00000000
00000000
00000000
00E00700
07E01F00
00E00700
00E00700
00E00700
00E00700
00E00700
00E00700
00E00700
00E00700
00E00700
00E00700
00E00700
00E00700
00700F00
00700F00
00787F00
000FE7E0
00000000
00000000
00000000
ENDCHAR

STARTCHAR jisx0212_2B66
ENCODING 11110
SWIDTH 960 0
DWIDTH 32 0
BBX 32 32 0 -2
BITMAP
00000000
00000000
00000000
00081000
000FF000
0007E000
0003C000
00000000
00000000
00000000
00000000
00E00700
07E01F00
00E00700
00E00700
00E00700
00E00700
00E00700
00E00700
00E00700
00E00700
00E00700
00E00700
00E00700
00E00700
00700F00
00700F00
00787F00
000FE7E0
00000000
00000000
00000000
ENDCHAR

STARTCHAR jisx0212_2B67
ENCODING 11111
SWIDTH 960 0
DWIDTH 32 0
BBX 32 32 0 -2
BITMAP
00000000
00000000
00000000
00187000
000EE000
0007C000
00038000
00000000
00000000
00000000
00000000
00E00700
07E01F00
00E00700
00E00700
00E00700
00E00700
00E00700
00E00700
00E00700
00E00700
00E00700
00E00700
00E00700
00E00700
00700F00
00700F00
00787F00
000FE7E0
00000000
00000000
00000000
ENDCHAR

STARTCHAR jisx0212_2B68
ENCODING 11112
SWIDTH 960 0
DWIDTH 32 0
BBX 32 32 0 -2
BITMAP
00000000
00000000
00000000
000E0E00
007E7E00
00E0E000
00C0C000
00000000
00000000
00000000
00000000
00E00700
07E01F00
00E00700
00E00700
00E00700
00E00700
00E00700
00E00700
00E00700
00E00700
00E00700
00E00700
00E00700
00E00700
00700F00
00700F00
00787F00
000FE7E0
00000000
00000000
00000000
ENDCHAR

STARTCHAR jisx0212_2B69
ENCODING 11113
SWIDTH 960 0
DWIDTH 32 0
BBX 32 32 0 -2
BITMAP
00000000
00000000
00000000
00000000
001FF800
00000000
00000000
00000000
00000000
00000000
00000000
00E00700
07E01F00
00E00700
00E00700
00E00700
00E00700
00E00700
00E00700
00E00700
00E00700
00E00700
00E00700
00E00700
00E00700
00700F00
00700F00
00787F00
000FE7E0
00000000
00000000
00000000
ENDCHAR

STARTCHAR jisx0212_2B6A
ENCODING 11114
SWIDTH 960 0
DWIDTH 32 0
BBX 32 32 0 -2
BITMAP
00000000
00000000
00000000
00000000
00000000
00000000
00000000
00000000
00000000
00000000
00000000
00E00700
07E01F00
00E00700
00E00700
00E00700
00E00700
00E00700
00E00700
00E00700
00E00700
00E00700
00E00700
00E00700
00700F00
00783F00
003C7F00
000FE7E0
00000600
000007C0
000003E0
000001E0
ENDCHAR

STARTCHAR jisx0212_2B6B
ENCODING 11115
SWIDTH 960 0
DWIDTH 32 0
BBX 32 32 0 -2
BITMAP
00000000
00000000
00000000
00018000
00066000
00066000
00024000
00018000
00000000
00000000
00000000
00E00700
07E01F00
00E00700
00E00700
00E00700
00E00700
00E00700
00E00700
00E00700
00E00700
00E00700
00E00700
00E00700
00E00700
00700F00
00700F00
00787F00
000FE7E0
00000000
00000000
00000000
ENDCHAR

STARTCHAR jisx0212_2B6C
ENCODING 11116
SWIDTH 960 0
DWIDTH 32 0
BBX 32 32 0 -2
BITMAP
00000000
00000000
00000000
000F0800
001FF800
0010F000
0010F000
00000000
00000000
00000000
00000000
00E00700
07E01F00
00E00700
00E00700
00E00700
00E00700
00E00700
00E00700
00E00700
00E00700
00E00700
00E00700
00E00700
00E00700
00700F00
00700F00
00787F00
000FE7E0
00000000
00000000
00000000
ENDCHAR

STARTCHAR jisx0212_2B6D
ENCODING 11117
SWIDTH 960 0
DWIDTH 32 0
BBX 32 32 0 -2
BITMAP
00007000
0001F000
0003F000
000F0000
00000000
00181800
003C3C00
007E7E00
00181800
00000000
00000000
00E00700
07E01F00
00E00700
00E00700
00E00700
00E00700
00E00700
00E00700
00E00700
00E00700
00E00700
00E00700
00E00700
00E00700
00700F00
00700F00
00787F00
000FE7E0
00000000
00000000
00000000
ENDCHAR

STARTCHAR jisx0212_2B6E
ENCODING 11118
SWIDTH 960 0
DWIDTH 32 0
BBX 32 32 0 -2
BITMAP
000E0000
000F8000
000FC000
0000F000
00000000
00181800
003C3C00
007E7E00
00181800
00000000
00000000
00E00700
07E01F00
00E00700
00E00700
00E00700
00E00700
00E00700
00E00700
00E00700
00E00700
00E00700
00E00700
00E00700
00E00700
00700F00
00700F00
00787F00
000FE7E0
00000000
00000000
00000000
ENDCHAR

STARTCHAR jisx0212_2B6F
ENCODING 11119
SWIDTH 960 0
DWIDTH 32 0
BBX 32 32 0 -2
BITMAP
00187000
000CE000
000EC000
00078000
00181800
003C3C00
003C3C00
00181800
00000000
00000000
00000000
00E00700
07E01F00
00E00700
00E00700
00E00700
00E00700
00E00700
00E00700
00E00700
00E00700
00E00700
00E00700
00E00700
00E00700
00700F00
00700F00
00787F00
000FE7E0
00000000
00000000
00000000
ENDCHAR

STARTCHAR jisx0212_2B70
ENCODING 11120
SWIDTH 960 0
DWIDTH 32 0
BBX 32 32 0 -2
BITMAP
001FF800
00000000
00000000
00000000
00181800
003C3C00
003C3C00
00181800
00000000
00000000
00000000
00E00700
07E01F00
00E00700
00E00700
00E00700
00E00700
00E00700
00E00700
00E00700
00E00700
00E00700
00E00700
00E00700
00E00700
00700F00
00700F00
00787F00
000FE7E0
00000000
00000000
00000000
ENDCHAR

STARTCHAR jisx0212_2B71
ENCODING 11121
SWIDTH 960 0
DWIDTH 32 0
BBX 32 32 0 -2
BITMAP
00000000
00000000
00000000
00078000
000EE000
001C7000
00183000
00000000
00000000
00000000
00000000
7F8181F8
0E018060
0E0380E0
0E07C0C0
0706E080
0706E080
070EE180
030CE180
01887100
01887100
01987300
01F83700
00F01E00
00F01E00
00F01E00
00F01C00
00600800
00600800
00000000
00000000
00000000
ENDCHAR

STARTCHAR jisx0212_2B72
ENCODING 11122
SWIDTH 960 0
DWIDTH 32 0
BBX 32 32 0 -2
BITMAP
00000000
00000000
00000000
00007000
0001F000
000F0000
000F0000
00000000
00000000
00000000
00000000
01FE0FE0
00700100
00700300
00300700
00180600
00180E00
000C0C00
000E0800
000E1800
00071000
00073000
00037000
0001E000
0001E000
0000C000
00008000
00618000
00F10000
00F30000
00F70000
007E0000
ENDCHAR

STARTCHAR jisx0212_2B73
ENCODING 11123
SWIDTH 960 0
DWIDTH 32 0
BBX 32 32 0 -2
BITMAP
00000000
00000000
00000000
000E0E00
001F1F00
000E0E00
000C0C00
00000000
00000000
00000000
00000000
01FE0FE0
00700100
00700300
00300700
00180600
00180E00
000C0C00
000E0800
000E1800
00071000
00073000
00037000
0001E000
0001E000
0000C000
00008000
00618000
00F10000
00F30000
00F70000
007E0000
ENDCHAR

STARTCHAR jisx0212_2B74
ENCODING 11124
SWIDTH 960 0
DWIDTH 32 0
BBX 32 32 0 -2
BITMAP
00000000
00000000
00000000
0001E000
00077000
000E3800
000C1800
00000000
00000000
00000000
00000000
01FE0FE0
00700100
00700300
00300700
00180600
00180E00
000C0C00
000E0800
000E1800
00071000
00073000
00037000
0001E000
0001E000
0000C000
00008000
00618000
00F10000
00F30000
00F70000
007E0000
ENDCHAR

STARTCHAR jisx0212_2B75
ENCODING 11125
SWIDTH 960 0
DWIDTH 32 0
BBX 32 32 0 -2
BITMAP
00000000
00000000
00000000
00007000
0001F000
000F0000
000F0000
00000000
00000000
00000000
00000000
007FFF00
00700F00
00601E00
00603C00
00607800
00007000
0000E000
0000E000
0001E000
00078000
00070000
00070000
000E0000
001E0100
003C0100
00780300
00F00700
00FFFF00
00000000
00000000
00000000
ENDCHAR

STARTCHAR jisx0212_2B76
ENCODING 11126
SWIDTH 960 0
DWIDTH 32 0
BBX 32 32 0 -2
BITMAP
00000000
00000000
00000000
00187000
000EE000
0007C000
00038000
00000000
00000000
00000000
00000000
007FFF00
00700F00
00601E00
00603C00
00607800
00007000
0000E000
0000E000
0001E000
00078000
00070000
00070000
000E0000
001E0100
003C0100
00780300
00F00700
00FFFF00
00000000
00000000
00000000
ENDCHAR

STARTCHAR jisx0212_2B77
ENCODING 11127
SWIDTH 960 0
DWIDTH 32 0
BBX 32 32 0 -2
BITMAP
00000000
00000000
00000000
00018000
0007E000
0003C000
00018000
00000000
00000000
00000000
00000000
007FFF00
00700F00
00601E00
00603C00
00607800
00007000
0000E000
0000E000
0001E000
00078000
00070000
00070000
000E0000
001E0100
003C0100
00780300
00F00700
00FFFF00
00000000
00000000
00000000
ENDCHAR

STARTCHAR jisx0212_3021
ENCODING 12321
SWIDTH 960 0
DWIDTH 32 0
BBX 32 32 0 -2
BITMAP
00000008
0000001C
0000003E
FFFFFFFF
00180000
00180000
00380000
00780000
00700000
00700000
00700000
00F00080
00E001E0
00FFFFF0
00FFFFF0
01E000F0
018000E0
018000E0
018000E0
000000E0
000000E0
000000E0
000000E0
000000E0
000001E0
000001C0
00000380
00078780
0000FF00
00003E00
00001C00
00001000
ENDCHAR

STARTCHAR jisx0212_3022
ENCODING 12322
SWIDTH 960 0
DWIDTH 32 0
BBX 32 32 0 -2
BITMAP
00000000
00018000
0001C000
0001F000
00018000
00018000
00018000
00018000
00018000
00018000
00018000
00018000
00018000
00018000
00018000
00018000
00018000
00018000
00018000
00018000
00018000
00018000
00018000
00018000
00018000
00018000
00018000
00018008
0001801E
3FFFFFFF
3FFFFFFF
00000000
ENDCHAR

STARTCHAR jisx0212_3023
ENCODING 12323
SWIDTH 960 0
DWIDTH 32 0
BBX 32 32 0 -2
BITMAP
00000000
00000008
0000000C
0000001E
7FFFFFFF
0003C000
00018000
00018000
00018000
00018000
00018000
00018000
00018000
00018000
00018000
00018000
00018000
00018000
00018000
00018000
00018000
00018000
00018000
00018000
00018000
00018000
00018000
00018000
00018000
00018000
00018000
00018000
ENDCHAR

STARTCHAR jisx0212_3024
ENCODING 12324
SWIDTH 960 0
DWIDTH 32 0
BBX 32 32 0 -2
BITMAP
00000000
00000008
0000000C
0000001E
7FFFFFFF
00700E00
00700E00
00700E00
00700E00
00700E00
00700E00
00700E00
00700E00
00700E00
00700E00
00700E00
00700E00
00F00E00
00F00E00
00E00E00
00E00E00
00E00E00
00C00E00
01800E00
01800E00
03000E00
07000E00
0E000E00
18000E00
30000E00
70000E00
E0000E00
ENDCHAR

STARTCHAR jisx0212_3025
ENCODING 12325
SWIDTH 960 0
DWIDTH 32 0
BBX 32 32 0 -2
BITMAP
00000060
000000F0
000000F0
1FFFFFF8
00000078
0000C070
0000E070
0000F870
0000E070
0301E070
0301C070
01E18070
007F8070
003F0070
001F0070
000F8070
001FE070
001CF070
0038F070
00707870
00E07870
01C030F0
038010F0
070000E0
0E007FE0
1C0007C0
18000780
00000608
0000001E
FFFFFFFF
FFFFFFFF
00000000
ENDCHAR

STARTCHAR jisx0212_3026
ENCODING 12326
SWIDTH 960 0
DWIDTH 32 0
BBX 32 32 0 -2
BITMAP
00000010
00000038
0000007C
7FFFFFFE
00018000
00018000
00018000
00018080
000181E0
0FFFFFF0
0FFFFFF0
00018000
00018000
00018008
0001800C
0001801E
FFFFFFFF
000F0000
000F0000
000E0000
001E1800
001C0C00
00380E00
00700780
007001E0
00E000F0
00C000F0
00807FF8
7FFFE01E
3FF0001E
1FF0001C
10000008
ENDCHAR

STARTCHAR jisx0212_3027
ENCODING 12327
SWIDTH 960 0
DWIDTH 32 0
BBX 32 32 0 -2
BITMAP
00000008
0000001C
0000003E
FFFFFFFF
00187000
00187000
00187000
00187000
10187010
18187038
1C38707C
1FF87FFE
1818701E
1818701C
18187018
18187018
18187018
18187018
1C387038
1FF87FF8
18187018
18187018
18387018
00787000
00707000
00F07000
00F07000
01E07000
07807000
1E007000
3C007000
F0007000
ENDCHAR

STARTCHAR jisx0212_3028
ENCODING 12328
SWIDTH 960 0
DWIDTH 32 0
BBX 32 32 0 -2
BITMAP
00000008
0000001C
0000003E
FFFFFFFF
00701800
00701800
00701800
60701808
7070181E
7FFFFFFF
7FFFFFFF
7070180F
7070180E
70F8180E
70FC3C0E
70EE7E0E
70E7770E
71C7738E
718771CE
7186E1EE
7700E0EE
7601C0EE
740380CE
7807008E
700E000E
7000000E
7000000E
7000000E
700007FE
7000007C
70000038
70000010
ENDCHAR

STARTCHAR jisx0212_3029
ENCODING 12329
SWIDTH 960 0
DWIDTH 32 0
BBX 32 32 0 -2
BITMAP
00018000
0001F000
0001F000
00018000
00018000
00018000
00018000
00018000
00018000
00018000
00018000
00018000
00018000
00018000
00018000
00018000
00018000
00018000
00018000
00018000
00018000
00018000
00018000
00018000
00018000
00018000
00018000
00018000
00018000
00018000
00018000
00018000
ENDCHAR

STARTCHAR jisx0212_302A
ENCODING 12330
SWIDTH 960 0
DWIDTH 32 0
BBX 32 32 0 -2
BITMAP
00000700
018007C0
01C007C0
00F00F00
00780E00
003C1C00
001E3800
001E7000
00086000
00018000
0001C000
0001F000
00018000
00018000
00018000
00018000
00018000
00018000
00018000
00018000
00018000
00018000
00018000
00018000
00018000
00018000
00018000
00018000
00018000
00018000
00018000
00018000
ENDCHAR

STARTCHAR jisx0212_302B
ENCODING 12331
SWIDTH 960 0
DWIDTH 32 0
BBX 32 32 0 -2
BITMAP
00000080
000001C0
000003E0
FFFFFFF0
000000F0
003000E0
007000E0
007E00E0
007000E0
007000E0
007060E0
0070F0E0
1FFFF8E0
007000E0
007000E0
007000E0
007000E0
007010E0
007030E0
007078F0
7FFFFE70
00700070
00700070
00700071
00700079
00700039
0070001F
0070001F
0070000E
0070000F
0070000F
00700007
ENDCHAR

STARTCHAR jisx0212_302C
ENCODING 12332
SWIDTH 960 0
DWIDTH 32 0
BBX 32 32 0 -2
BITMAP
00018000
0001F000
0001F000
000180E0
00018FF8
0001FFC0
0003FF80
007FF000
1FF18000
00018000
00018000
000180E0
00018FF8
0001FFC0
0003FF80
007FF000
1FF18000
00018000
00018000
00018018
000187FF
0001FFF0
0003FFF0
00FFF800
FFE18000
00018000
00018000
00018000
00018000
00018000
00018000
00018000
ENDCHAR

STARTCHAR jisx0212_302D
ENCODING 12333
SWIDTH 960 0
DWIDTH 32 0
BBX 32 32 0 -2
BITMAP
00018000
0001F000
0001F000
00018000
00018010
00018038
0003C07C
7FFFFFFE
00018000
00018000
00018000
00018000
00018060
000180F0
0003C0F0
1FFFFFF8
00018000
00018000
00018000
00018000
00018008
0001801C
0003C03E
FFFFFFFF
00018000
00018000
00018000
00018000
00018000
00018000
00018000
00018000
ENDCHAR

STARTCHAR jisx0212_302E
ENCODING 12334
SWIDTH 960 0
DWIDTH 32 0
BBX 32 32 0 -2
BITMAP
00086000
010F7900
010F7900
01EE71E0
018E7180
018E7180
018E7180
018E7180
018E718E
FFFFFFFF
FFFFFFFF
00E00F00
00700E00
00780E00
00380C00
00181860
001010F0
1FFFFFF8
1FFFFFF8
00018000
00018000
00018008
0001800C
0001801E
FFFFFFFF
0003C000
00018000
00018000
00018000
00018000
00018000
00018000
ENDCHAR

STARTCHAR jisx0212_302F
ENCODING 12335
SWIDTH 960 0
DWIDTH 32 0
BBX 32 32 0 -2
BITMAP
00000000
00000000
00000000
00800000
00800000
01800000
01800000
01600000
07600000
07600000
07600000
0F700000
1E100000
0E180000
0E1C0000
060E0000
000E0000
00070000
00070000
00078000
0001E000
0000F800
0000FC00
00007E00
00001F80
000007F0
000003F0
000001FF
0000007E
0000000C
00000008
00000000
ENDCHAR

STARTCHAR jisx0212_3030
ENCODING 12336
SWIDTH 960 0
DWIDTH 32 0
BBX 32 32 0 -2
BITMAP
00001000
00003800
00007C00
07FFFE00
00001800
00001000
00001000
00001000
00001000
00001000
00001000
00001800
00001800
00000800
00000C00
00000E00
00000E00
00000F00
00000F00
00000700
00000780
000003C0
000001E0
000001E0
000000F0
000000F8
000000FC
0000007E
0000001F
0000000C
00000008
00000000
ENDCHAR

STARTCHAR jisx0212_3031
ENCODING 12337
SWIDTH 960 0
DWIDTH 32 0
BBX 32 32 0 -2
BITMAP
00000E00
00000F80
00000F80
00000E00
00000E00
00001E00
00001C00
00001800
07001800
03C03800
01E07800
007E7000
000FF000
0003E000
0001E000
0000F800
0001FE00
0003CF80
00078FC0
000707E0
000F01F0
101E00F0
103C00F0
10780060
10F00000
11E00000
13C00000
1F800000
7F000000
7C000000
38000000
00000000
ENDCHAR

STARTCHAR jisx0212_3032
ENCODING 12338
SWIDTH 960 0
DWIDTH 32 0
BBX 32 32 0 -2
BITMAP
00000080
00000FC0
00000FE0
0000FFF0
001FFE00
03FFC000
07FF8000
FF0E0000
000E0000
000E0000
000E0000
000E0000
000E0008
000E001C
000E003E
000EFFFF
FFFF8000
000E0000
000E0000
000E0000
000E0000
000E0000
000E0000
000E0006
000E0006
000E000E
000E000C
000E0008
000F001E
0007FFFF
0003FFFF
0001FFFE
ENDCHAR

STARTCHAR jisx0212_3033
ENCODING 12339
SWIDTH 960 0
DWIDTH 32 0
BBX 32 32 0 -2
BITMAP
00000100
00003F80
00007FC0
001FFFE0
1FFF8000
00038000
00018000
00018000
00818070
01F180FC
01F180FC
01E181F0
0781E780
0F01EF00
0F01EF00
1E01F800
70019000
E0019800
C0619C00
00F98E00
00F18F00
01E18780
03C183C0
078181F0
0F0180F8
1E01807F
3C01803F
7001801E
E0018008
00018000
00018000
00018000
ENDCHAR

STARTCHAR jisx0212_3034
ENCODING 12340
SWIDTH 960 0
DWIDTH 32 0
BBX 32 32 0 -2
BITMAP
0E000000
0F800000
0F800000
0E000000
0E000000
0E000000
0E000000
0E000000
0E000000
0E000000
0E000000
0E000000
0E000000
0E000000
0E000000
0E000000
0E000000
0E000000
0E000000
0E000000
0E000000
0E000010
0E000010
0E000010
0E000070
0E000060
0E000060
0F0000F0
07FFFFF8
03FFFFF0
01FFFFF0
00000000
ENDCHAR

STARTCHAR jisx0212_3035
ENCODING 12341
SWIDTH 960 0
DWIDTH 32 0
BBX 32 32 0 -2
BITMAP
01800000
01F00000
01F00000
01800000
01800000
01800080
018000C0
018001E0
01800FF0
0180FCF0
0180F8F0
018F80E0
01F800E0
1FC000E0
3F8000E0
F18000E0
018000E0
018001E0
018001C0
01800180
01800180
01803F80
01803F80
01800F06
01800806
0180000E
0180000C
01800008
01E0001E
00FFFFFF
00FFFFFF
007FFFFE
ENDCHAR

STARTCHAR jisx0212_3036
ENCODING 12342
SWIDTH 960 0
DWIDTH 32 0
BBX 32 32 0 -2
BITMAP
00E07000
00F87C00
00F87C00
00E07000
01E07000
01C07000
01807000
01807000
07007000
87007000
C7007000
EE187000
781F7000
383C7000
1C787000
1E707000
0E707000
0CE07000
08E07000
00E07000
01807000
01907000
03907000
07187006
070E7006
0E0E700E
0C0E700C
08FF7008
FF87701E
7C077FFF
78073FFF
60061FFE
ENDCHAR

STARTCHAR jisx0212_3037
ENCODING 12343
SWIDTH 960 0
DWIDTH 32 0
BBX 32 32 0 -2
BITMAP
01800E00
01F00F80
01F00F80
01800E00
07800E00
07000E00
07000E00
07180E00
0E0E0E00
0E070E00
0C070E00
087F8E00
FFE1EE00
7E00EE00
7C00CE00
60008E00
10060E00
180F0E00
1C0F0E00
1FFF8E00
18078E00
18070E00
18070E00
18070E06
18070E06
18070E06
18070E06
18070E0E
1FFF0E0E
1C070FFF
18070FFF
180707FE
ENDCHAR

STARTCHAR jisx0212_3038
ENCODING 12344
SWIDTH 960 0
DWIDTH 32 0
BBX 32 32 0 -2
BITMAP
01800E00
01F00F80
01F00F80
01800E00
01800E00
01810E00
01830E00
01878E00
01FFEE00
01C00E00
01800E00
01800E00
01800E00
01800E00
01800E00
61860E00
718F0E00
7FFF8E00
7FFF8E00
70078E00
70070E00
70070E00
70070E00
70070E06
70070E06
70070E06
70070E06
70070E0E
7FFF0E0E
70070FFF
70070FFF
700707FE
ENDCHAR

STARTCHAR jisx0212_3039
ENCODING 12345
SWIDTH 960 0
DWIDTH 32 0
BBX 32 32 0 -2
BITMAP
07810070
070183FC
0701C7FC
0719FF80
FFFF8008
0703801C
0701C03E
0701FFFF
07798180
FFE18180
FFC18180
7F018180
67070180
07070180
07070180
070E0180
7F180180
0E308180
0C30C180
0001E000
7FFFF000
0007C000
00078000
000F0006
001E0006
003C000E
0078000C
00F00008
01E0001E
01FFFFFF
01FFFFFF
00FFFFFE
ENDCHAR

STARTCHAR jisx0212_303A
ENCODING 12346
SWIDTH 960 0
DWIDTH 32 0
BBX 32 32 0 -2
BITMAP
01001800
01C01F00
01C01F00
01801800
018E1800
3FFF1800
3FFF1800
10781800
18701800
08701800
0C701800
0EE01800
0EE61800
0CCF1800
0CCF1800
FFFF9800
01801800
01801800
01801800
01801800
018E1800
3FFF1800
3FFF1800
01801806
01801806
0180180E
0180180C
01801808
0180181E
01801FFF
01801FFF
01800FFE
ENDCHAR

STARTCHAR jisx0212_303B
ENCODING 12347
SWIDTH 960 0
DWIDTH 32 0
BBX 32 32 0 -2
BITMAP
01E01800
01C01F00
01801F00
01871800
FFFF9800
03C01800
01801800
01801800
618E1800
7FFF1800
7FFF1800
700F1800
700E1800
7FFE1800
7FFE1800
700E1800
700E1800
700E1800
700E1800
7FFE1800
718E1800
01801800
01801800
01871806
FFFF9806
03C0180E
0180180C
01801808
0180181E
01801FFF
01801FFF
01800FFE
ENDCHAR

STARTCHAR jisx0212_303C
ENCODING 12348
SWIDTH 960 0
DWIDTH 32 0
BBX 32 32 0 -2
BITMAP
00070E00
103F8F80
107F8F80
1FF00E00
18E70E00
18738E00
3871CE00
7070EE00
7160EE00
E1E00E00
C3E00E00
87900E00
771E0E00
3E3C0E00
1E780E00
0E700E00
08EE0E00
01C70E00
03C70E00
FFFF8E00
7EE18E00
60E10E00
20E10E00
1EEE0E06
18E70E06
18E78E06
38E38E06
70E18E0E
70E18E0E
E0E10FFF
C0E10FFF
80E007FE
ENDCHAR

STARTCHAR jisx0212_303D
ENCODING 12349
SWIDTH 960 0
DWIDTH 32 0
BBX 32 32 0 -2
BITMAP
00000060
000000F0
000000F0
1FFFFFF8
00000000
00000000
00000000
00000000
00000000
00000008
0000000C
0000001E
FFFFFFFF
0003C000
00018000
00018000
00018000
00018000
00018000
00018000
00018000
00018000
00018000
00018000
00018000
00018000
00018000
00018000
00FF8000
000F0000
000F0000
00060000
ENDCHAR

STARTCHAR jisx0212_303E
ENCODING 12350
SWIDTH 960 0
DWIDTH 32 0
BBX 32 32 0 -2
BITMAP
00000080
000001C0
000003E0
0FFFFFF0
00000000
00000000
00000000
00000000
00000000
00000010
00000030
00000078
7FFFFFFE
00000000
00000000
00000000
00000000
00000080
000000C0
000001E0
0FFFFFF0
00000000
00000000
00000000
00000000
00000000
00000000
00000008
0000001E
FFFFFFFF
FFFFFFFF
00000000
ENDCHAR

STARTCHAR jisx0212_303F
ENCODING 12351
SWIDTH 960 0
DWIDTH 32 0
BBX 32 32 0 -2
BITMAP
00018000
0001F000
0001F000
18018018
1F01801F
1C01801C
18018018
18018018
18018018
18018018
18018018
18018018
1FFFFFF8
1C000038
18000018
18000018
00000000
00000080
000000C0
000001E0
0FFFFFF0
00000000
00000000
00000000
00000000
00000000
00000000
00000008
0000001E
FFFFFFFF
FFFFFFFF
00000000
ENDCHAR

STARTCHAR jisx0212_3040
ENCODING 12352
SWIDTH 960 0
DWIDTH 32 0
BBX 32 32 0 -2
BITMAP
00070000
0007C000
0007C000
000F0000
000E1800
001C0F00
00380F00
00700780
1FFFFFE0
0FFE00F0
0FFC00F0
09000670
01E00780
03C00F00
07800F00
07000E70
0E701818
0C38100C
0C3C300E
FFFEFFFF
7E0E7E07
600C6086
000800C0
000001E0
0FFFFFF0
00000000
00000000
00000010
00000078
3FFFFFFC
3FFFFFFC
00000000
ENDCHAR

STARTCHAR jisx0212_3041
ENCODING 12353
SWIDTH 960 0
DWIDTH 32 0
BBX 32 32 0 -2
BITMAP
0001E000
0001C008
0001800C
0001801E
FFFFFFFF
00000000
00000000
060000E0
07FFFFF0
070000E0
070000E0
070000E0
070000E0
07FFFFE0
07FFFFE0
070000E0
10000010
18000038
1C00007C
1FFFFFFE
1800001E
1800001C
18000018
18000018
1FFFFFF8
1C000038
18000018
18000018
18000018
1FFFFFF8
1FFFFFF8
18000018
ENDCHAR

STARTCHAR jisx0212_3042
ENCODING 12354
SWIDTH 960 0
DWIDTH 32 0
BBX 32 32 0 -2
BITMAP
0001E000
0001C00C
0003C00E
FFFFFFFF
00800000
09FFF830
0FFFF870
0F1019F8
0E179870
0F9019F0
0F9019F0
0E179870
0F9699F0
0E179870
0E139870
0E101876
1FFFFFFF
30000007
70000007
F100018E
E1FFFFE8
01C003C0
01C00380
01FFFF80
01800180
01FFFF80
01FFFF80
01800186
0180018F
FFFFFFFF
FFFFFFFF
00000000
ENDCHAR

STARTCHAR jisx0212_3043
ENCODING 12355
SWIDTH 960 0
DWIDTH 32 0
BBX 32 32 0 -2
BITMAP
07000000
07C00008
07C0000C
0700001E
077FFFFF
0F000E00
0F000E00
0E000E00
0E000E00
1E000E00
1E000E00
1E000E00
1E000E00
3E000E00
7E000E00
6E000E00
EE000E00
CE000E00
8E000E00
0E000E00
0E000E00
0E000E00
0E000E00
0E000E00
0E000E00
0E000E00
0E000E00
0E000E00
0E07FE00
0E007C00
0E003800
0E001000
ENDCHAR

STARTCHAR jisx0212_3044
ENCODING 12356
SWIDTH 960 0
DWIDTH 32 0
BBX 32 32 0 -2
BITMAP
00070000
0007C000
0007C000
000F8000
001EE000
001C7000
00383000
00701800
00E00F00
01C007C0
038003E0
070181F8
1E01F0FF
3001C03E
7001801C
E0018008
00018000
00018010
00018030
00018078
7FFFFFFE
0003C000
00018000
00018000
00018000
00018000
00018000
00018000
00018000
00018000
00018000
00018000
ENDCHAR

STARTCHAR jisx0212_3045
ENCODING 12357
SWIDTH 960 0
DWIDTH 32 0
BBX 32 32 0 -2
BITMAP
00070000
0007C000
0007C000
000F8000
001EE000
001C7000
00383000
00701800
00E00F00
01C007C0
038003E0
070001F8
1E0180FF
3001F03E
7001F01C
E0018008
00018000
0C018030
0E018070
0F81807E
0E018070
0E018070
0E018070
0E018070
0E018070
0E018070
0E018070
0E018070
0FFFFFF0
0E000070
0E000070
0E000070
ENDCHAR

STARTCHAR jisx0212_3046
ENCODING 12358
SWIDTH 960 0
DWIDTH 32 0
BBX 32 32 0 -2
BITMAP
07000060
07C001F0
07C003F0
07001FF8
0701FF00
0F3FE000
0F3FE000
0E00E000
0E00E000
1E00E000
1E00E000
1E00E000
1E00E008
3E00E01C
7E00E03E
6E00FFFF
EEFFE000
CE00E000
8E00E000
0E00E000
0E00E000
0E00E000
0E00E006
0E00E006
0E00E00E
0E00E00C
0E00E00C
0E00E01E
0E00FFFF
0E007FFE
0E003FFC
0E000000
ENDCHAR

STARTCHAR jisx0212_3047
ENCODING 12359
SWIDTH 960 0
DWIDTH 32 0
BBX 32 32 0 -2
BITMAP
07000010
07C00038
07E0007C
071FFFFE
07001800
0F001800
0F001800
0E001800
0E001800
1E001800
1E001800
1E001800
1E001808
3E00181C
7E003C3E
6E7FFFFF
EE001800
CE001800
8E001800
0E001800
0E001800
0E001800
0E001800
0E001800
0E001800
0E001800
0E001800
0E001800
0E001800
0E001800
0E001800
0E001800
ENDCHAR

STARTCHAR jisx0212_3048
ENCODING 12360
SWIDTH 960 0
DWIDTH 32 0
BBX 32 32 0 -2
BITMAP
07018000
07C1F000
07C1F000
07018000
07078008
0F07001C
0F07003E
0E0FFFFF
0E0E0000
1E1C0000
1E380000
1E700600
1EE00F00
3EDFFF80
7E9FFF80
6E000E00
EE001E00
CE003C00
8E007800
0E007000
0E00F000
0E01E000
0E01C000
0E018006
0E078006
0E07000E
0E07000C
0E0F0008
0E0E001E
0E0FFFFF
0E0FFFFF
0E07FFFE
ENDCHAR

STARTCHAR jisx0212_3049
ENCODING 12361
SWIDTH 960 0
DWIDTH 32 0
BBX 32 32 0 -2
BITMAP
07018000
07C1F000
07C1F000
07018000
07078008
0F07001C
0F07003E
0E07FFFF
0E0E000F
1E0E000E
1E0C000E
1E18000E
1E18000E
3E31800E
7E71C00E
6EE0E00E
EE80700E
CE00780E
8E003C0E
0E001E0E
0E001E0E
0E000C0E
0E00080E
0E00000E
0E00001E
0E00001C
0E000038
0E000078
0E001FF0
0E0003E0
0E0001C0
0E000100
ENDCHAR

STARTCHAR jisx0212_304A
ENCODING 12362
SWIDTH 960 0
DWIDTH 32 0
BBX 32 32 0 -2
BITMAP
01800000
01F00000
01F00000
01800010
07800078
077FFFFC
073FFFFC
07000000
0F000000
0E000000
0E000000
1E000000
1E000000
3E000000
7E000060
7E0000F0
EE1FFFF8
CE000000
8E000000
0E000000
0E000000
0E000000
0E000000
0E000000
0E000000
0E000008
0E00000C
0E00001E
0EFFFFFF
0E000000
0E000000
0E000000
ENDCHAR

STARTCHAR jisx0212_304B
ENCODING 12363
SWIDTH 960 0
DWIDTH 32 0
BBX 32 32 0 -2
BITMAP
01801800
01F01F00
01F01F00
01801800
07801800
07001800
07001800
070E1980
0F0F98E0
0E0E1870
0E0E1830
1E0E1818
1E1E180E
3E1C180F
7E18180F
7E181807
EE701867
CE70187E
8E70187C
0EE018F0
0E87F8E0
0E0071E0
0E0073C0
0E006780
0E000F00
0E003E00
0E007C00
0E00F800
0E07E000
0E1F0000
0E3F0000
0EF00000
ENDCHAR

STARTCHAR jisx0212_304C
ENCODING 12364
SWIDTH 960 0
DWIDTH 32 0
BBX 32 32 0 -2
BITMAP
01807E00
01F07C00
01F07C00
0180FE00
0780E600
0701E700
0703C300
07078180
0F0701E0
0E0E00F0
0E0C00F0
1E18007E
1E70071F
3EE3FF8E
7EC3FF8E
7F800006
EE000000
CE000030
8E000070
0E7FFFF8
0E000070
0E0000F0
0E0000F0
0E0000E0
0E0001E0
0E0001C0
0E000380
0E000780
0E000700
0E000F00
0E000F00
0E000E00
ENDCHAR

STARTCHAR jisx0212_304D
ENCODING 12365
SWIDTH 960 0
DWIDTH 32 0
BBX 32 32 0 -2
BITMAP
070E0700
07CF87C0
07CF87C0
070E0700
070E0700
0F0E0700
0F0E0700
0E0E0706
0E0E070F
1E0E071E
1E0E073C
1E0E7778
1E0FFFE0
3E0E0700
7E0E0700
6E0E0700
EE0E0700
CE0E0700
8E0E0700
0E0E0700
0E0E0700
0E0E0700
0E0E0700
0E0E0706
0E0E0706
0E0E3706
0E0E7706
0E0FE70E
0EFF070E
0E7C07FF
0E7803FF
0E6001FE
ENDCHAR

STARTCHAR jisx0212_304E
ENCODING 12366
SWIDTH 960 0
DWIDTH 32 0
BBX 32 32 0 -2
BITMAP
07070000
07C7C000
07C7C000
07070010
070F0078
0F0FFFFC
0F0FFFFC
0E0E1800
0E181800
1E181800
1E381800
1E701800
1EE01800
3EC01800
7E801800
6E001808
EE00181E
CEFFFFFF
8EFFFFFF
0E001800
0E001800
0E001800
0E001800
0E001800
0E001800
0E001800
0E001800
0E001800
0E001800
0E001800
0E001800
0E001800
ENDCHAR

STARTCHAR jisx0212_304F
ENCODING 12367
SWIDTH 960 0
DWIDTH 32 0
BBX 32 32 0 -2
BITMAP
07000700
07C3FF80
07C3FF80
07000600
07060700
0F078300
0F078100
0E0F0180
0E0E00E0
1E1E0070
1E1C0070
1E18007E
1E70001F
3EE000EE
7EC000EE
6F8FFFF6
EE0180E0
CE0180E0
8E0180E0
0E0180E0
0E0180E0
0E0380E0
0E0780E0
0E0700E0
0E0700E0
0E0E01E0
0E0E01C0
0E0E0180
0E187F80
0E300F00
0E700F00
0EE00800
ENDCHAR

STARTCHAR jisx0212_3050
ENCODING 12368
SWIDTH 960 0
DWIDTH 32 0
BBX 32 32 0 -2
BITMAP
07800008
0700001C
0700003E
077FFFFF
07070000
0F070000
0F070000
0E070000
0E070080
1E0701C0
1E0703E0
1E0FFFF0
1E0E00F0
3E0E00E0
7E0E00E0
6E0E00E0
EE0E00E0
CE1E01E0
8E1C01C0
0E180180
0E1FFF80
0E1C0380
0E180180
0E180180
0E000780
0E000700
0E000700
0E000706
0E00070F
0EFFFFFF
0EFFFFFF
0E000000
ENDCHAR

STARTCHAR jisx0212_3051
ENCODING 12369
SWIDTH 960 0
DWIDTH 32 0
BBX 32 32 0 -2
BITMAP
07007000
07C07C00
07C07C00
07007000
07007008
0F00701C
0F00703E
0EFFFFFF
0E018000
1E01F000
1E01F000
1E018000
1E018060
3E0180F0
7E01C0F0
6E01FFF8
EE018078
CE018070
8E038070
0E078070
0E070070
0E070070
0E070070
0E070070
0E0E0070
0E0E0070
0E0C0070
0E1800F0
0E707FE0
0EE007C0
0EC00780
0F000600
ENDCHAR

STARTCHAR jisx0212_3052
ENCODING 12370
SWIDTH 960 0
DWIDTH 32 0
BBX 32 32 0 -2
BITMAP
07000180
07C0FFC0
07C0FFC0
07000100
070E0100
0F0F8180
0F0F8180
0E0E0080
0E1E00E0
1E1C00F0
1E1800F0
1E180078
1E70E07E
3E70F83F
7E70F81F
6EE0E008
EE80E000
CE01E000
8E01C000
0E018000
0E018180
0E0180C0
0E0380E0
0E070070
0E070018
0E060FFC
0E060FFE
0EFFFE0F
0E7F800F
0E600006
0E000000
0E000000
ENDCHAR

STARTCHAR jisx0212_3053
ENCODING 12371
SWIDTH 960 0
DWIDTH 32 0
BBX 32 32 0 -2
BITMAP
07001800
07C01F00
07C01F00
07001800
07001808
0F00181C
0F003C3E
0EFFFFFF
0E001800
1E001800
1E001800
1E101810
1E181878
3E1FFFFC
7E1FFFFE
6E18181E
EE181818
CE181818
8E181818
0E181818
0E181818
0E181818
0E181818
0E181818
0E1819F8
0E181870
0E181870
0E181860
0E001800
0E001800
0E001800
0E001800
ENDCHAR

STARTCHAR jisx0212_3054
ENCODING 12372
SWIDTH 960 0
DWIDTH 32 0
BBX 32 32 0 -2
BITMAP
07000000
07C00030
07E00070
071FFFF8
070000FE
0F0001F0
0F0003F0
0E070780
0E01EF00
1E00FC00
1E00F800
1E007800
1E00180E
3EFFFFFF
7EFFFFFF
6E00180F
EE00181E
CE00181C
8E001838
0E001870
0E001860
0E001800
0E001800
0E001800
0E001800
0E001800
0E001800
0E001800
0E0FF800
0E00F000
0E00F000
0E006000
ENDCHAR

STARTCHAR jisx0212_3055
ENCODING 12373
SWIDTH 960 0
DWIDTH 32 0
BBX 32 32 0 -2
BITMAP
0700F000
07C07C00
07C03E00
07000F00
07000780
0F000380
0F000180
0E018000
0E01F000
1E01C000
1E018000
1E018000
1E018000
3E018000
7E018060
6E118070
EE118018
CE11801C
8E31801E
0E71800E
0E71800F
0EF18087
0EF18087
0EE18087
0FE18086
0EC18180
0E818180
0E018180
0E01FFE0
0E00FFC0
0E00FF80
0E000000
ENDCHAR

STARTCHAR jisx0212_3056
ENCODING 12374
SWIDTH 960 0
DWIDTH 32 0
BBX 32 32 0 -2
BITMAP
07800180
077FFFC0
073FFFE0
070701E0
07070180
0F070180
0F070180
0E070180
0E070780
1E070700
1E070700
1E070770
1E07FFF8
3E0F6078
7E0F6078
6E0E6070
EE0E60F0
CE0E70E0
8E0E30E0
0E0E11E0
0E181980
0E180F80
0E180F80
0E180F00
0E701F80
0E7033C0
0E7071E0
0EE1E0F8
0E87807F
0F1E003E
0F3C001C
0E700008
ENDCHAR

STARTCHAR jisx0212_3057
ENCODING 12375
SWIDTH 960 0
DWIDTH 32 0
BBX 32 32 0 -2
BITMAP
07900008
0718001C
071C003E
071FFFFF
07180000
0F180000
0F180000
0E180000
0E188060
1E18C0F0
1E18E0F0
1E18FFF8
1E18E078
3E18E070
7E18E070
6E18E070
EE18E070
CE18E070
8E18E070
0E18E070
0E18E7F0
0E38E0E0
0E78E0C0
0E70E086
0E70E006
0E70E00E
0E70E00E
0EE0E00E
0EE0FFFF
0EC07FFE
0E803FFC
0F000000
ENDCHAR

STARTCHAR jisx0212_3058
ENCODING 12376
SWIDTH 960 0
DWIDTH 32 0
BBX 32 32 0 -2
BITMAP
07000010
07C000F8
07C600FC
07070FFE
0707FF00
0F070000
0F070000
0E070000
0E070000
1E070008
1E07000C
1E07001E
1E07FFFF
3E0700E0
7E0700E0
6E0700E0
EE0700E0
CE0700E0
8E0700E0
0E0700E0
0E0700E0
0E0F00E0
0E0F00E0
0E0E00E0
0E0E00E0
0E0E00E0
0E0C00E0
0E1800E0
0E1800E0
0E3000E0
0E7000E0
0EE000E0
ENDCHAR

STARTCHAR jisx0212_3059
ENCODING 12377
SWIDTH 960 0
DWIDTH 32 0
BBX 32 32 0 -2
BITMAP
07007000
07C07C00
07C07C00
07007000
07007000
0F007010
0F007030
0E007078
0E7FFFFE
1E007000
1E007000
1E007000
1E007000
3E007008
7E00700C
6E00701E
EEFFFFFF
CE007000
8E007000
0E00F800
0E00E800
0E00EC00
0E00CE00
0E018700
0E018780
0E0303C0
0E0701E0
0E0E00F8
0E18007F
0EF0003E
0EF0001C
0F800008
ENDCHAR

STARTCHAR jisx0212_305A
ENCODING 12378
SWIDTH 960 0
DWIDTH 32 0
BBX 32 32 0 -2
BITMAP
07018000
07C1F000
07C1F000
07018000
07018008
0F01801C
0F03C03E
0EFFFFFF
0E018000
1E018000
1E018000
1E018000
1E0180E0
3E01FFF0
7E03FFF0
6E0780F8
EE07E0E0
CE0760E0
8E0760E0
0E0771E0
0E0F1180
0E0E1F80
0E0E1F80
0E0E0F00
0E180F00
0E181F80
0E383FC0
0E7071F0
0EE1E0FE
0FCF007F
0F8F003F
0E780008
ENDCHAR

STARTCHAR jisx0212_305B
ENCODING 12379
SWIDTH 960 0
DWIDTH 32 0
BBX 32 32 0 -2
BITMAP
00070000
0007C000
0007C000
000F8000
001EE000
001C7000
00383000
00701800
00E00F00
01C007C0
038003E0
070001F8
1E0000FF
30C0183E
70E01C1C
E0F81F08
00E01800
00E01800
00E01800
00E01800
01E01E00
01F03E00
01F07E00
01987700
070E7180
070EE1C0
070CE1E0
0E08E0F0
1801807E
300F003F
700F001F
E0780008
ENDCHAR

STARTCHAR jisx0212_305C
ENCODING 12380
SWIDTH 960 0
DWIDTH 32 0
BBX 32 32 0 -2
BITMAP
07007000
07C07C00
07C07C00
07007000
07007000
0F007000
0F007000
0E007018
0E08701F
1E08703C
1E087078
1E087070
1E1870E0
3E1871C0
7E387380
6E787700
EE70F800
CE70E800
8E30E800
0E00E800
0E01EE00
0E01C600
0E038600
0E078700
0E070180
0E0E01C0
0E0C01E0
0E1800F8
0E70007F
0EE0003E
0EC0001C
0F000008
ENDCHAR

STARTCHAR jisx0212_305D
ENCODING 12381
SWIDTH 960 0
DWIDTH 32 0
BBX 32 32 0 -2
BITMAP
070E0000
07CF8000
07CF8000
070E0018
070E7FFE
0F0E0C3E
0F0C081C
0E18E818
0EFFF818
1E3CE818
1E18EC18
1E18EE18
1E18E618
3E38E638
7E78E678
6E70E670
EE71E770
CE71C370
8E718170
0E7181F0
0EF980E0
0EE701E0
0EE701E0
0EE781F0
0E0EE770
0E0EEE78
0E0CEC3C
0E18181E
0E70701F
0EE1E00E
0EC3C00E
0E870006
ENDCHAR

STARTCHAR jisx0212_305E
ENCODING 12382
SWIDTH 960 0
DWIDTH 32 0
BBX 32 32 0 -2
BITMAP
07007E00
07C07C00
07C07C00
0700FE00
0700E600
0F01E700
0F03C300
0E078180
0E0701E0
1E0E00F0
1E0C00F0
1E18107E
1E701E1F
3EE01C0E
7EC0180E
6F881806
EE0F1880
CE0E18C0
8E0E18E0
0E0E1870
0E1E1818
0E1C181C
0E18181E
0E18180E
0E70180F
0E70180F
0E70180F
0EE01806
0E87F800
0E00F000
0E00F000
0E006000
ENDCHAR

STARTCHAR jisx0212_305F
ENCODING 12383
SWIDTH 960 0
DWIDTH 32 0
BBX 32 32 0 -2
BITMAP
07070000
07C7C000
07C7C000
07070000
070F0000
0F0E000C
0F0E000E
0E0FFFFF
0E18180F
1E18181C
1E381818
1E701810
1E701860
3EEC1800
7ECE1800
6E8F9880
EE0E18E0
CE0E1870
8E0E1830
0E1E1818
0E18181E
0E18180E
0E38180E
0E70180F
0E70180F
0EE01806
0EC01800
0E801800
0E0FF800
0E00F000
0E00F000
0E006000
ENDCHAR

STARTCHAR jisx0212_3060
ENCODING 12384
SWIDTH 960 0
DWIDTH 32 0
BBX 32 32 0 -2
BITMAP
07806080
071078F0
071078F0
071E70E0
071870E0
0F1870E0
0F1870E0
0E1870E0
0E1870E6
1E1870EF
1E3C70EF
1EFFFFFF
1E1870E0
3E1870E0
7E1870E0
6E1870E0
EE1870E0
CE1870E0
8E1870E0
0E1870E0
0E1870E0
0E187FE0
0E187FE0
0E1870E0
0E1870E0
0E180000
0E180000
0E180006
0E18000F
0E1FFFFF
0E1FFFFF
0E180000
ENDCHAR

STARTCHAR jisx0212_3061
ENCODING 12385
SWIDTH 960 0
DWIDTH 32 0
BBX 32 32 0 -2
BITMAP
06000000
07900008
0790000C
0718001E
071FFFFF
0F1CE70F
0F18E70F
0E18E70E
0E18E70E
1E18E70E
1E18E70E
1E18E70E
1E18E70E
3E18E70E
7E18E70E
6E18E70E
EE18E70E
CE18E70E
8E18C70E
0E1987FE
0E1981FE
0E1F000E
0E1F000E
0E1E000E
0E18000E
0E18000E
0E18000E
0E18000E
0E1FFFFE
0E1C000E
0E18000E
0E18000E
ENDCHAR

STARTCHAR jisx0212_3062
ENCODING 12386
SWIDTH 960 0
DWIDTH 32 0
BBX 32 32 0 -2
BITMAP
07001800
07C01F00
07C01F00
07001800
07001800
0F001800
0F001800
0E101808
0E18181E
1E1FFFFF
1E1FFFFF
1E18180F
1E18180E
3E18180E
7E18180E
6E18180E
EE18180E
CE18180E
8E1C3C0E
0E1FFFFE
0E18180E
0E18180E
0E18180E
0E18180E
0E18180E
0E18180E
0E18180E
0E18180E
0E1FFFFE
0E1C000E
0E18000E
0E18000E
ENDCHAR

STARTCHAR jisx0212_3063
ENCODING 12387
SWIDTH 960 0
DWIDTH 32 0
BBX 32 32 0 -2
BITMAP
07080060
07CC00F0
07CE00F0
070FFFF8
070E0078
0F0E0070
0F0E0070
0E0E0070
0E0E0070
1E0E0070
1E0E0070
1E0FFFF0
1E0E0070
3E0E0070
7E0E0070
6E0E0070
EE0E0070
CE0E0070
8E0E0070
0E0E0070
0E0FFFF0
0E0E0070
0E0E0070
0E0E0070
0E0E0070
0E0E0070
0E0E0070
0E0E0070
0E0E0077
0EFFFFFF
0EFFFFFF
0E000000
ENDCHAR

STARTCHAR jisx0212_3064
ENCODING 12388
SWIDTH 960 0
DWIDTH 32 0
BBX 32 32 0 -2
BITMAP
07000010
07C00038
07E0007C
071FFFFE
07001800
0F0C1880
0F0E18C0
0E0F98E0
0E0E1870
1E0E1878
1E0E183C
1E0E181E
1E18181E
3E18180E
7E18180C
6E101808
EE701800
CE601808
8E00180C
0E00181E
0EFFFFFF
0E003C00
0E001800
0E001800
0E001800
0E001800
0E001800
0E001800
0E001800
0E001800
0E001800
0E001800
ENDCHAR

STARTCHAR jisx0212_3065
ENCODING 12389
SWIDTH 960 0
DWIDTH 32 0
BBX 32 32 0 -2
BITMAP
07800008
0700001C
0700003E
077FFFFF
07001800
0F001F00
0F003F00
0E007800
0E007000
1E00FC00
1E00FC00
1E00F800
1E01F980
3E03F8F0
7E0798F0
6E071878
EE0E181E
CE1C180F
8E38180F
0E70180F
0EE01806
0E001800
0E001800
0E001800
0E001800
0E001800
0E001800
0E001808
0E00001E
0EFFFFFF
0EFFFFFF
0E000000
ENDCHAR

STARTCHAR jisx0212_3066
ENCODING 12390
SWIDTH 960 0
DWIDTH 32 0
BBX 32 32 0 -2
BITMAP
07080010
07CC0038
07CE007C
070FFFFE
070E001E
0F0E001C
0F0E0018
0E0E0018
0E0E0018
1E0E0018
1E0E0038
1E0FFFF8
1E0E0018
3E0E0018
7E0E0018
6E0E0000
EE0E0008
CE0E001C
8E0E003E
0E0FFFFF
0E0E000F
0E0E000E
0E0E000E
0E0E000E
0E0E000E
0E0E000E
0E0E000E
0E0E000E
0E0FFFFE
0E0E000E
0E0E000E
0E0E000E
ENDCHAR

STARTCHAR jisx0212_3067
ENCODING 12391
SWIDTH 960 0
DWIDTH 32 0
BBX 32 32 0 -2
BITMAP
07800008
0700001C
0700003E
077FFFFF
07001800
0F001800
0F001800
0E001800
0E001800
1E001800
1E001800
1E081800
1E0F1810
3E0E1838
7E0E1C7C
6E0E1FFE
EE0E1800
CE0E1800
8E0E1800
0E0E1800
0E0E1800
0E0E1800
0E0E1800
0E0E1800
0E0E1800
0E0E1800
0E0E1800
0E0E1808
0E0E181E
0EFFFFFF
0EFFFFFF
0E000000
ENDCHAR

STARTCHAR jisx0212_3068
ENCODING 12392
SWIDTH 960 0
DWIDTH 32 0
BBX 32 32 0 -2
BITMAP
0700E000
07C0F800
07C0F800
0700E000
0701E008
0F01C01C
0F03C03E
0EFFFFFF
0E078000
1E071000
1E071000
1E0F1E00
1E0E1810
3E1E1838
7E1E3C7C
6E1FFFFE
EE7E181E
CEEE181C
8ECE1818
0F8E1818
0F0E1818
0E0E1818
0E0E1818
0E0E1818
0E0E1818
0E0E19F8
0E0E19F8
0E0E1870
0E0E1860
0E001800
0E001800
0E001800
ENDCHAR

STARTCHAR jisx0212_3069
ENCODING 12393
SWIDTH 960 0
DWIDTH 32 0
BBX 32 32 0 -2
BITMAP
07007000
07C07C00
07C07C00
07007000
07007010
0F007038
0F00707C
0E7FFFFE
0E007000
1E007000
1E007000
1E007000
1E007008
3E00701C
7E00703E
6EFFFFFF
EE00E000
CE00F800
8E00F800
0E01E000
0E018180
0E0180C0
0E0380E0
0E070070
0E070078
0E0E003C
0E0C003E
0E080FFE
0EFFFE0F
0E7F000F
0E7F000F
0E600006
ENDCHAR

STARTCHAR jisx0212_306A
ENCODING 12394
SWIDTH 960 0
DWIDTH 32 0
BBX 32 32 0 -2
BITMAP
07000008
07C0001C
07E0003E
071FFFFF
0700E00F
0F00E00E
0F00E00E
0E00E00E
0E00E00E
1E01E00E
1E01C00E
1E01801E
1E078018
3E0F0FF8
7E0F0FF8
6E1E00F0
EE780080
CEE8000C
8ECC000E
0E0FFFFF
0E0E000F
0E0E000E
0E0E000E
0E0E000E
0E0E000E
0E0E000E
0E0E000E
0E0E000E
0E0FFFFE
0E0E000E
0E0E000E
0E0E000E
ENDCHAR

STARTCHAR jisx0212_306B
ENCODING 12395
SWIDTH 960 0
DWIDTH 32 0
BBX 32 32 0 -2
BITMAP
07018180
07C1F1F0
07C1F1F0
07018180
07018180
0F018180
0F018180
0E018186
0E61818F
1E79818E
1E79818C
1E719998
1E71FFF0
3E71C3E0
7E7181C0
6E718180
EE718180
CE718180
8E718180
0E718180
0E718180
0E718180
0E718180
0E718186
0E718186
0E71998E
0E71D98E
0E71E18E
0EFF01FF
0E7C00FE
0E7800FC
0E600000
ENDCHAR

STARTCHAR jisx0212_306C
ENCODING 12396
SWIDTH 960 0
DWIDTH 32 0
BBX 32 32 0 -2
BITMAP
07007000
07C07C00
07C07C00
07007000
07107060
0F1870F0
0F1C70F0
0E1FFFF8
0E187078
1E187070
1E187070
1E187070
1E187070
3E187070
7E187070
6E187070
EE187070
CE187073
8E3C7077
0EFFFFFF
0E00E800
0E00EC00
0E00CE00
0E018700
0E018780
0E0303C0
0E0701E0
0E0E00F8
0E18007F
0EF0003E
0EF0001C
0F800008
ENDCHAR

STARTCHAR jisx0212_306D
ENCODING 12397
SWIDTH 960 0
DWIDTH 32 0
BBX 32 32 0 -2
BITMAP
01801800
01F01F00
01F01F00
01801800
07801800
07001808
0700180C
0700181E
0F001FFF
0E001C00
0E001800
1E001800
1E001800
3E001800
7E001800
7E101810
EE181878
CE1FFFFC
8E1FFFFE
0E18001E
0E180018
0E180018
0E180018
0E180018
0E180018
0E180018
0E180018
0E180018
0E1FFFF8
0E1C0038
0E180018
0E180018
ENDCHAR

STARTCHAR jisx0212_306E
ENCODING 12398
SWIDTH 960 0
DWIDTH 32 0
BBX 32 32 0 -2
BITMAP
07070000
07C3C000
07C1E000
0700F000
070078E0
0F0038F8
0F0018F8
0E0100E0
0E01E1E0
1E01C1C0
1E018380
1E018780
1E018700
3E118F00
7E118F60
6E118E70
EE119E18
CE319C1C
8E71F81E
0E71F00E
0EF1F00F
0EE1E007
0EE1C007
0EE18067
0E078066
0E0F80E0
0E0F80E0
0E1980E0
0E71FFF0
0EE0FFE0
0EC0FFC0
0F000000
ENDCHAR

STARTCHAR jisx0212_306F
ENCODING 12399
SWIDTH 960 0
DWIDTH 32 0
BBX 32 32 0 -2
BITMAP
0007E000
0007C000
00078000
000F6000
001E7000
003C3800
00781C00
00F00F00
01E007E0
03C003F8
078001FC
0E000EFF
79FFFF1E
E000000C
C0000008
00000010
00000078
3FFFFFFC
3FFFFFFC
00018000
01818E00
01F18700
03F18300
078181E0
070180F0
0E018078
0C01803C
1801801E
70FF801E
E00F000C
C00F0008
00060000
ENDCHAR

STARTCHAR jisx0212_3070
ENCODING 12400
SWIDTH 960 0
DWIDTH 32 0
BBX 32 32 0 -2
BITMAP
0700E000
07C0F800
07C0F800
0700E000
070180E0
0F01FFF0
0F03FFF0
0E0700F8
0E0781E0
1E0E81C0
1E0CC380
1E18E780
1E707F00
3EE03E00
7EC03E00
6E007F00
EE00F7E0
CE03C3F8
8E0781FC
0E0F007F
0E78F81E
0EE03F06
0EC01F00
0E000700
0E000000
0E0000F8
0E0000F8
0E001FE0
0E0FFE00
0E07E000
0E07C000
0E060000
ENDCHAR

STARTCHAR jisx0212_3071
ENCODING 12401
SWIDTH 960 0
DWIDTH 32 0
BBX 32 32 0 -2
BITMAP
07900008
0718001C
071C003E
071FFFFF
0718180F
0F18180E
0F18180E
0E18180E
0E18180E
1E18180E
1E1C3C0E
1E1FFFFE
1E18180E
3E18180E
7E18180E
6E18180E
EE18180E
CE18180E
8E1C3C0E
0E1FFFFE
0E18180E
0E18180E
0E38180E
0E78180E
0E70180E
0E70180E
0E70180E
0E60180E
0EE018FE
0EC0183C
0E801818
0F000010
ENDCHAR

STARTCHAR jisx0212_3072
ENCODING 12402
SWIDTH 960 0
DWIDTH 32 0
BBX 32 32 0 -2
BITMAP
07900008
0718001C
071C003E
071FFFFF
0718000F
0F18000E
0F18000E
0E18000E
0E18818E
1E18FFCE
1E18FFCE
1E18E18E
1E18E18E
3E18E18E
7E18E18E
6E18E18E
EE18E18E
CE18E18E
8E18E18E
0E18E18E
0E18E18E
0E18FF8E
0E18FF8E
0E18E18E
0E18E00E
0E18000E
0E18000E
0E18000E
0E1FFFFE
0E1C000E
0E18000E
0E18000E
ENDCHAR

STARTCHAR jisx0212_3073
ENCODING 12403
SWIDTH 960 0
DWIDTH 32 0
BBX 32 32 0 -2
BITMAP
0700E000
07C0F800
07C0F800
0700E018
0700E71F
0F3FFFFC
0F3FFFF8
0E00E070
0E00E0E0
1E00E1C0
1E00E386
1E00E70F
1FFFFFFF
3E003C00
7E003800
6E017000
EE01E060
CE01C0F8
8E0380F8
0E0F81F0
0E198F80
0EF1FC00
0EF1F800
0F818006
0E018006
0E01800E
0E01800C
0E018008
0E01801E
0E01FFFF
0E01FFFF
0E00FFFE
ENDCHAR

STARTCHAR jisx0212_3074
ENCODING 12404
SWIDTH 960 0
DWIDTH 32 0
BBX 32 32 0 -2
BITMAP
07007E00
07C07C00
07C07C00
0700FE00
0700E600
0F01E700
0F03C300
0E078180
0E0701E0
1E0E00F0
1E0C00F0
1E18007E
1E70019F
3EEFFFEE
7ECFFFCE
6F800006
EE000000
CE100000
8E100060
0E1800F0
0E1FFFF8
0E1C0078
0E180078
0E180070
0E180070
0E180070
0E180070
0E180070
0E180070
0E1FFFF0
0E1FFFF0
0E180070
ENDCHAR

STARTCHAR jisx0212_3075
ENCODING 12405
SWIDTH 960 0
DWIDTH 32 0
BBX 32 32 0 -2
BITMAP
0007E000
0007C000
00078000
000F6000
001E7000
003C3800
00781C00
00F00F00
01E007E0
03C003F8
078001FC
0E0018FF
78FFFE1E
E000000C
C0000008
00000060
000000F0
1FFFFFF8
1FFFFFF8
00018000
01018080
01C181C0
01C1C3E0
0181FFF0
01818000
01818000
01818000
01818008
0181801E
FFFFFFFF
FFFFFFFF
00000000
ENDCHAR

STARTCHAR jisx0212_3076
ENCODING 12406
SWIDTH 960 0
DWIDTH 32 0
BBX 32 32 0 -2
BITMAP
07080060
07CC00F0
07CE00F0
070FFFF8
070E0078
0F0E0070
0F0E0070
0E0E0070
0E0FFFF0
1E0E0070
1E0E0070
1E0E0070
1E0E0070
3E0E0070
7E0E0070
6E0FFFF0
EE0E1078
CE0E100F
8E0E100F
0E0E181E
0E0E0878
0E0E0CE0
0E0E0EC0
0E0E0700
0E0E0780
0E0E3BC0
0E0E79E0
0E0FE0F8
0EFF007F
0E7C003E
0E78001C
0E600008
ENDCHAR

STARTCHAR jisx0212_3077
ENCODING 12407
SWIDTH 960 0
DWIDTH 32 0
BBX 32 32 0 -2
BITMAP
070000E0
07C00FF8
07C00FF8
0701FF80
077F9800
0F001800
0F001800
0E001800
0E001808
1E00181C
1E003C3E
1EFFFFFF
1E001800
3E001800
7E001800
6E001800
EE101810
CE181838
8E1C3C7C
0E1FFFFE
0E18001E
0E18001C
0E180018
0E180018
0E180018
0E180018
0E180018
0E180018
0E1FFFF8
0E1C0038
0E180018
0E180018
ENDCHAR

STARTCHAR jisx0212_3078
ENCODING 12408
SWIDTH 960 0
DWIDTH 32 0
BBX 32 32 0 -2
BITMAP
07078000
07C70000
07C70000
07070700
070FFF80
0F0E0700
0F0C0700
0E180E08
0E18181E
1E3FFFFF
1E7FFFFF
1EF80000
1F980000
3E188030
7E18C070
6E18FFF8
EE18E070
CE18E070
8E18E070
0E18E070
0E18E070
0E38E3F0
0E78E3F0
0E70E0E6
0E70E086
0E70E00E
0E70E00E
0EE0E00E
0EE0FFFF
0EC07FFE
0E803FFC
0F000000
ENDCHAR

STARTCHAR jisx0212_3079
ENCODING 12409
SWIDTH 960 0
DWIDTH 32 0
BBX 32 32 0 -2
BITMAP
01E07000
01DFF800
019FF800
0180F000
0781E800
0701CC00
07038E00
07078700
0F0F01E0
0E0E00F0
0E0C00F0
1E18007E
1E70001F
3EE000EE
7EE000EE
7F9FFFF6
EE007000
CE007000
8E007000
0E007000
0E007070
0E1FFFF8
0E1FFFF8
0E007000
0E007000
0E007000
0E007000
0E007008
0E00701E
0EFFFFFF
0EFFFFFF
0E000000
ENDCHAR

STARTCHAR jisx0212_307A
ENCODING 12410
SWIDTH 960 0
DWIDTH 32 0
BBX 32 32 0 -2
BITMAP
07001800
07C01F00
07C01F00
07001800
07001800
0F0C3000
0F0E7000
0EFF700E
0E007FFF
1E00EE0F
1E00EE0F
1E00EE0E
1E018E18
3E010E18
7E010E38
6E060E70
EE000E60
CE018F00
8E038F00
0E1F1F00
0FF81980
0EE01980
0EC039C0
0E8070E0
0E0070F0
0E00E078
0E00C07C
0E01807E
0E07001F
0E1E000E
0E3C000E
0E700006
ENDCHAR

STARTCHAR jisx0212_307B
ENCODING 12411
SWIDTH 960 0
DWIDTH 32 0
BBX 32 32 0 -2
BITMAP
07000180
07C3FFC0
07C3FFC0
07000100
07060180
0F078080
0F0780C0
0E0F00E0
0E0E0070
1E1C0078
1E38007C
1E7800FF
1EEFFFEE
3FCE00E6
7F8E00E0
6E0E00E0
EE0E00E0
CE0FFFE0
8E0FFFE0
0E0E00E0
0E0E00E0
0E0E00E0
0E0E00E0
0E0FFFE0
0E0E00E0
0E1C00E0
0E1800E0
0E1800E0
0E701FE0
0EE003C0
0EC00180
0F800100
ENDCHAR

STARTCHAR jisx0212_307C
ENCODING 12412
SWIDTH 960 0
DWIDTH 32 0
BBX 32 32 0 -2
BITMAP
07001800
07C81F00
07CC1F00
070F1800
070E1810
0F0E1838
0F0E3C7C
0E1FFFFE
0E181800
1E181800
1E381800
1E701800
1E601808
3E00181C
7E003C3E
6EFFFFFF
EE010600
CE01C780
8E01C780
0E018700
0E018700
0E018700
0E018700
0E018706
0E070706
0E07070E
0E07070E
0E0E070E
0E1807FF
0EF003FE
0EF001FC
0F800000
ENDCHAR

STARTCHAR jisx0212_307D
ENCODING 12413
SWIDTH 960 0
DWIDTH 32 0
BBX 32 32 0 -2
BITMAP
07001800
07C01F00
07C01F00
07001808
0710181E
0F1FFFFF
0F1FFFFF
0E180000
0E1800E0
1E1803F8
1E1807F8
1E187F80
1E1FF800
3E1C3800
7E181800
6E181808
EE18181E
CE181FFF
8E1C3FFF
0E1FF800
0E181800
0E181800
0E381800
0E701806
0E701806
0E60180E
0E60180E
0EE0180E
0E801FFF
0F000FFE
0F000FFC
0E000000
ENDCHAR

STARTCHAR jisx0212_307E
ENCODING 12414
SWIDTH 960 0
DWIDTH 32 0
BBX 32 32 0 -2
BITMAP
07800008
0700001C
0700003E
077FFFFF
07007800
0F007000
0F007000
0E00E000
0E00E180
1E01C0F0
1E0180F0
1E010078
1E7FFFFE
3E3FE00E
7E1FE00C
6E101008
EE001E00
CE001C10
8E001830
0E001878
0E1FFFFE
0E003C00
0E001800
0E001800
0E001800
0E001800
0E001800
0E001806
0E00180F
0EFFFFFF
0EFFFFFF
0E000000
ENDCHAR

STARTCHAR jisx0212_3121
ENCODING 12577
SWIDTH 960 0
DWIDTH 32 0
BBX 32 32 0 -2
BITMAP
07001800
07C01F00
07C01F00
07001806
0700180F
0F3FFFFF
0F3FFFFF
0E001E00
0E007800
1E007000
1E007000
1E18E100
1E0F81E0
3E0783C0
7E038780
6E018F10
EE011E1E
CE003C3C
8E007878
0E00F0F0
0E01E1E0
0E0F03C0
0E0F0780
0E1E0F00
0E701EE0
0E003C78
0E00783C
0E01E01E
0E07800F
0E1E000F
0E3C000F
0E700006
ENDCHAR

STARTCHAR jisx0212_3122
ENCODING 12578
SWIDTH 960 0
DWIDTH 32 0
BBX 32 32 0 -2
BITMAP
0700E000
07C0F800
07C0F800
0700E008
0700E01E
0F3FFFFF
0F3FFFFF
0E018600
0E070700
1E070380
1E0701C0
1E0E00F0
1E180E7E
3E37FF3F
7E73FF1F
6EE00006
EE000070
CEFFFFF8
8EFFFFF8
0E070000
0E070070
0E0FFFF8
0E0FFFF8
0E0E0070
0E1E0070
0E1C00F0
0E1800F0
0E0000E0
0E007FE0
0E0007C0
0E000780
0E000600
ENDCHAR

STARTCHAR jisx0212_3123
ENCODING 12579
SWIDTH 960 0
DWIDTH 32 0
BBX 32 32 0 -2
BITMAP
07007000
07C07C00
07C07C00
07007070
0760707E
0F7070F0
0F3070F0
0E1870E0
0E1E7180
1E0E7100
1E0C7100
1E087608
1E00701E
3EFFFFFF
7EFFFFFF
6E018700
EE018700
CE018700
8E018700
0E018700
0E018700
0E038700
0E078706
0E070706
0E0F0706
0E0E070E
0E0C070E
0E18070E
0E7007FF
0EE003FE
0EC001FC
0F000000
ENDCHAR

STARTCHAR jisx0212_3124
ENCODING 12580
SWIDTH 960 0
DWIDTH 32 0
BBX 32 32 0 -2
BITMAP
0007E000
0007C000
00078000
000F6000
001E7000
003C3800
00781C00
00F00F00
01E077E0
03FFFBF8
07FFF9FC
0E0000FF
78000E1E
E7FFFF0C
C3FFFF08
00000E00
00001E00
00001CC0
00003CE0
0FFFFFF0
00000008
0000001C
0000003E
7FFFFFFF
001E0000
001C0C00
00380E00
00700780
1FFFFFF0
0FFE0078
0FFC0038
08000018
ENDCHAR

STARTCHAR jisx0212_3125
ENCODING 12581
SWIDTH 960 0
DWIDTH 32 0
BBX 32 32 0 -2
BITMAP
07001800
07C01F00
07C01F00
07001810
0710181E
0F18183C
0F1C1878
0E0E1870
0E0F18E0
1E0718C0
1E071880
1E061908
1E00181E
3EFFFFFF
7EFFFFFF
6E007E00
EE00FE00
CE00FD00
8E00F900
0E01F980
0E0798E0
0E0718F0
0E0718F0
0E0E187E
0E18181F
0E30180E
0E70180E
0EE01806
0F001800
0E001800
0E001800
0E001800
ENDCHAR

STARTCHAR jisx0212_3126
ENCODING 12582
SWIDTH 960 0
DWIDTH 32 0
BBX 32 32 0 -2
BITMAP
0700E000
07C0F800
07C0F800
0700E000
0700E000
0F01C000
0F618060
0E7100F0
0E7FFFF8
1E73CE78
1C718E78
18718E70
18718E70
38718E70
78718E70
78718E70
F8718E70
F8718E70
98718E70
18718E70
18718E70
18718E70
18718E70
18718E70
18718E70
18718E70
18718E70
18718E70
18718E77
19FFFFFF
19FFFFFF
18000000
ENDCHAR

STARTCHAR jisx0212_3127
ENCODING 12583
SWIDTH 960 0
DWIDTH 32 0
BBX 32 32 0 -2
BITMAP
07001800
07C01F00
07C01F00
07001800
0710180E
0F1FFFFF
0F3FFFFF
0E70000F
0E707018
1EF07C10
1EF07C10
1EE07000
1E00F008
3E00E01C
7E00E03E
6EFFFFFF
EE0180E0
CE0180E0
8E0380E0
0E0781E0
0E070180
0E0FC180
0E0FE380
0E0E7F80
0E0E0F00
0E001FC0
0E003FE0
0E0078F8
0E01F01E
0E1FC00F
0E3F800F
0EF80007
ENDCHAR

STARTCHAR jisx0212_3128
ENCODING 12584
SWIDTH 960 0
DWIDTH 32 0
BBX 32 32 0 -2
BITMAP
07007800
07C07000
07C07000
07007070
071FFFF8
0F007070
0F007070
0E007070
0E007077
1EFFFFFF
1EFFFFFF
1E007070
1E007070
3E007070
7E007070
6E1FFFF0
EE007070
CE007000
8E007000
0E007018
0E7FFFFE
0E007000
0E007000
0E007008
0E00701E
0EFFFFFF
0EFFFFFF
0E007000
0E007000
0E007000
0E007000
0E007000
ENDCHAR

STARTCHAR jisx0212_3129
ENCODING 12585
SWIDTH 960 0
DWIDTH 32 0
BBX 32 32 0 -2
BITMAP
07007000
07C07C00
07C07C00
0700F000
0700E180
0F01C0F0
0F0180F0
0E010078
0E7FFFFE
1E3FF00E
1E1FF00C
1E161008
1E079E00
3E071C10
7E071830
6E0E1878
EE0FFFFE
CE1C3C00
8E181800
0E101800
0E601808
0E00181C
0E003C3E
0EFFFFFF
0E001800
0E001800
0E001800
0E001800
0E001800
0E001800
0E001800
0E001800
ENDCHAR

STARTCHAR jisx0212_312A
ENCODING 12586
SWIDTH 960 0
DWIDTH 32 0
BBX 32 32 0 -2
BITMAP
07900008
0718001C
071C003E
071FFFFF
0718000F
0F18000E
0F18000E
0E1800EE
0E19FFFE
1E18000E
1E18000E
1E18000E
1E18818E
3E18FFCE
7E18FFCE
6E18E18E
EE18E18E
CE18E18E
8E18E18E
0E18E18E
0E18E18E
0E18FF8E
0E18FF8E
0E18E18E
0E18E18E
0E18000E
0E18000E
0E18000E
0E1801FE
0E18003C
0E180018
0E180010
ENDCHAR

STARTCHAR jisx0212_312B
ENCODING 12587
SWIDTH 960 0
DWIDTH 32 0
BBX 32 32 0 -2
BITMAP
070001E0
07C001D8
07C0019C
0700018E
0700018E
0F000180
0F000180
0E00018E
0EFFFFFF
1E0003C0
1E000180
1E000180
1E000180
3E003180
7E007180
6E7FF980
EE070180
CE0701C0
8E0701E0
0E0700E0
0E0700E0
0E0700E0
0E0700E0
0E071EF1
0E07F071
0EFFC079
0EFF803F
0E78001F
0E60001E
0E00000F
0E00000F
0E000007
ENDCHAR

STARTCHAR jisx0212_312C
ENCODING 12588
SWIDTH 960 0
DWIDTH 32 0
BBX 32 32 0 -2
BITMAP
07070000
07C7C000
07C7C000
07070000
070F0008
0F0E001C
0F0E003E
0E0FFFFF
0E18000F
1E18000E
1E38000E
1E780E0E
1EEFFF0E
3ECE0E0E
7E8E0E0E
6E0E0E0E
EE0E0E0E
CE0FFE0E
8E0FFE0E
0E0E0E0E
0E0E0E0E
0E0E0E0E
0E0E0E0E
0E0FFE0E
0E0E0E1E
0E0E0E1C
0E0C0C38
0E000078
0E001FF0
0E0003E0
0E0001C0
0E000100
ENDCHAR

STARTCHAR jisx0212_312D
ENCODING 12589
SWIDTH 960 0
DWIDTH 32 0
BBX 32 32 0 -2
BITMAP
070E0000
07CF8000
07CF8000
070E0000
070E060E
0F0E07FF
0F0C07FF
0E18770F
0EFFFF0E
1E3C770E
1E18770E
1E18770E
1E18770E
3E18770E
7E38770E
6E78F70E
EE70E70E
CE70E70E
8E70E70E
0E70E70E
0E71E70E
0EF9C70E
0EFB870E
0EE7870E
0EE7E70E
0E0EF70E
0E0CF70E
0E1877FE
0E70770E
0EE0070E
0EC0070C
0F800700
ENDCHAR

STARTCHAR jisx0212_312E
ENCODING 12590
SWIDTH 960 0
DWIDTH 32 0
BBX 32 32 0 -2
BITMAP
07018000
07C1F000
07C1F000
07018008
0701801E
0F3FFFFF
0F3FFFFF
0E070000
0E070000
1E0F0018
1E0F003C
1E0EFFFE
1E0E0078
3E1E0070
7E1E0070
6E1E06E0
EE7E0780
CE7E0700
8E7E0706
0EEE070F
0F8FFFFF
0F0E0700
0F0E0700
0E0E0700
0E0E0700
0E0E0700
0E0E0700
0E0E0700
0E0E7F00
0E0E0E00
0E0E0C00
0E0E0800
ENDCHAR

STARTCHAR jisx0212_312F
ENCODING 12591
SWIDTH 960 0
DWIDTH 32 0
BBX 32 32 0 -2
BITMAP
07900008
0718001C
071C003E
071FFFFF
07180000
0F180000
0F180000
0E180060
0E1800F0
1E19FFF8
1E19FFF8
1E180000
1E180008
3E18001C
7E1C003E
6E1FFFFF
EE18E600
CE18E608
8E18E60C
0E18E71F
0E18E178
0E38E1E0
0E78E1C0
0E70E180
0E70E0E0
0E70E0F0
0E70E0F0
0EE0EF7E
0EFFF81F
0ECFC00E
0E8F800E
0F080006
ENDCHAR

STARTCHAR jisx0212_3130
ENCODING 12592
SWIDTH 960 0
DWIDTH 32 0
BBX 32 32 0 -2
BITMAP
07900010
07180038
071C007C
071FFFFE
0718001E
0F18001C
0F180018
0E180018
0E1FFFF8
1E1C0038
1E180018
1E180000
1E18000E
3E1FFFFF
7E1FFFFF
6E18000F
EE19070E
CE19FF8E
8E19FF8E
0E19870E
0E19870E
0E39870E
0E79C70E
0E71FF0E
0E71870E
0EE1801E
0EE1801C
0EE00018
0E800FF8
0F0000F0
0F0000F0
0E000080
ENDCHAR

STARTCHAR jisx0212_3131
ENCODING 12593
SWIDTH 960 0
DWIDTH 32 0
BBX 32 32 0 -2
BITMAP
07800000
07030018
0707003C
077F80FE
07070FF0
0F0F3FC0
0F0F3980
0E0E0180
0E0E0180
1E1E0180
1E1C0180
1E180180
1E19818E
3E3FFFFF
7E7FFFFF
6E718180
EE018180
CE118180
8E318180
0E718180
0E798180
0EE90180
0ECF0180
0F8F018E
0E867FFF
0E0F0000
0E0F0000
0E19E000
0E70FFFF
0EE03FFE
0EC01FFC
0F800000
ENDCHAR

STARTCHAR jisx0212_3132
ENCODING 12594
SWIDTH 960 0
DWIDTH 32 0
BBX 32 32 0 -2
BITMAP
07000180
07C3FFC0
07C3FFC0
07000100
07080180
0F0F0080
0F0F00C0
0E1E00E0
0E180070
1E3FFFF8
1E7FFFFC
1EF800FF
1F9800EE
3E1800E6
7E1800E0
6E1800E0
EE1800E0
CE1FFFE0
8E1FFFE0
0E198EE0
0E018E00
0E018E00
0E018E00
0E018E06
0E070E06
0E070E0E
0E070E0E
0E0E0E0E
0E180FFF
0EF007FE
0EF003FC
0F800000
ENDCHAR

STARTCHAR jisx0212_3133
ENCODING 12595
SWIDTH 960 0
DWIDTH 32 0
BBX 32 32 0 -2
BITMAP
07001E00
07C01C08
07C0180C
0700181E
077FFFFF
0F003C00
0F001800
0E001800
0E10180E
1E1FFFFF
1E3FFFFF
1E70000F
1EF00018
3EE000E0
7EC000E0
6E0FFFF0
EE000180
CE001300
8E001700
0E001E06
0E00180F
0EFFFFFF
0EFFFFFF
0E001800
0E001800
0E001800
0E001800
0E001800
0E07F800
0E007000
0E007000
0E006000
ENDCHAR

STARTCHAR jisx0212_3134
ENCODING 12596
SWIDTH 960 0
DWIDTH 32 0
BBX 32 32 0 -2
BITMAP
07900008
0718001C
071C003E
071FFFFF
0718180F
0F18180E
0F18180E
0E18180E
0E1FFFFE
1E1C3C0E
1E18180E
1E18180E
1E18180E
3E1FFFFE
7E1FFFFE
6E18180E
EE001800
CE00180C
8E003C0E
0E7FFFFF
0E00700F
0E00700E
0E00700E
0E00E00E
0E00E00E
0E01C01E
0E03801C
0E070018
0E0E0FF8
0E3C00F0
0E7800F0
0EE00080
ENDCHAR

STARTCHAR jisx0212_3135
ENCODING 12597
SWIDTH 960 0
DWIDTH 32 0
BBX 32 32 0 -2
BITMAP
07006000
07C07810
07C07810
0700701E
07007178
0F1FFFF0
0F1FFFF0
0E0070E0
0E0071E0
1E0073CC
1E0077CE
1EFFFFFF
1E001E00
3E003C00
7E007800
6E00F070
EE07FFF8
CE0F00E0
8E0F00C0
0E780980
0EE00F06
0F000E0F
0F000E0F
0E7FFFFF
0E000E00
0E000E00
0E000E00
0E000E00
0E01FE00
0E003C00
0E001800
0E001000
ENDCHAR

STARTCHAR jisx0212_3136
ENCODING 12598
SWIDTH 960 0
DWIDTH 32 0
BBX 32 32 0 -2
BITMAP
07000010
07C800F8
07CC00FC
070E0FFE
070FFE00
0F0E60C0
0F0E60E0
0E1E7070
0E181818
1E18180C
1E381C0E
1E700E0F
1E700E07
3EE0FC06
7EC0F804
6E80E008
EE00E01E
CEFFFFFF
8EFFFFFF
0E0180E0
0E0180E0
0E0301E0
0E0701C0
0E070180
0E0FF780
0E0E0F00
0E0C0F00
0E001FF0
0E00F87E
0E0FE00F
0E0FC00F
0EFE0007
ENDCHAR

STARTCHAR jisx0212_3137
ENCODING 12599
SWIDTH 960 0
DWIDTH 32 0
BBX 32 32 0 -2
BITMAP
07000000
07C10030
07C10070
0701FFF8
07618070
0F798070
0F798070
0E718070
0E718070
1E71FFF0
1C71FFF0
18718070
18700000
38700030
78700070
787FFFF8
F8707070
F8007070
98007070
18007070
18007077
19FFFFFF
19FFFFFF
1800E800
1800EE00
1801C780
180383C0
180701F0
181E00FF
18F0007E
1CF0003C
1F800008
ENDCHAR

STARTCHAR jisx0212_3138
ENCODING 12600
SWIDTH 960 0
DWIDTH 32 0
BBX 32 32 0 -2
BITMAP
07007900
07C07180
07C071C0
070070E0
070070E6
0F00700F
0F00700F
0EFFFFFF
0E007000
1E007010
1E007010
1E70781E
1E187878
3E1C7C70
7E1E7E70
6E0E76E0
EE087780
CE007700
8E007300
0E007180
0E0771E0
0E0E70F0
0E0C70F0
0E7870F8
0FF0707E
0EE0703F
0EC0701F
0E807008
0E0FF000
0E00E000
0E00C000
0E008000
ENDCHAR

STARTCHAR jisx0212_3139
ENCODING 12601
SWIDTH 960 0
DWIDTH 32 0
BBX 32 32 0 -2
BITMAP
0700F800
07C0F000
07C0F000
0701E800
07018E00
0F038700
0F078300
0E0F01E0
0E0E00F0
1E1C007C
1E38003E
1E70071F
1EEFFF88
3FC07000
7F807000
6E007010
EE007078
CEFFFFFC
8EFFFFFC
0E007000
0E107000
0E1C7180
0E1C71C0
0E1870F0
0E787078
0E70703C
0E70701E
0EE0701E
0E8FF008
0F00E000
0F00C000
0E008000
ENDCHAR

STARTCHAR jisx0212_313A
ENCODING 12602
SWIDTH 960 0
DWIDTH 32 0
BBX 32 32 0 -2
BITMAP
07001800
07CC1F00
07CE1F00
070F9800
070E1810
0F0E1838
0F0E3C7C
0E1FFFFE
0E181800
1E181800
1E381800
1E701808
1E60181E
3EFFFFFF
7EFFFFFF
6E001800
EE001800
CE101810
8E101830
0E180078
0E1FFFFE
0E1C003E
0E18001C
0E180018
0E180018
0E180018
0E180018
0E180018
0E1FFFF8
0E1C0038
0E180018
0E180018
ENDCHAR

STARTCHAR jisx0212_313B
ENCODING 12603
SWIDTH 960 0
DWIDTH 32 0
BBX 32 32 0 -2
BITMAP
07000010
07C00038
07E0007C
071FFFFE
0700E000
0F00E000
0F00E000
0E00E080
0E0181E0
1E1FFFF0
1E1FFFF0
1E0180F0
1E0180E0
3E0300E0
7E0700E0
6E0700E7
EEFFFFFF
CE000000
8E000000
0E100018
0E1FFFFE
0E1C003E
0E18001C
0E180018
0E180018
0E180018
0E180018
0E180018
0E1FFFF8
0E1C0038
0E180018
0E180018
ENDCHAR

STARTCHAR jisx0212_313C
ENCODING 12604
SWIDTH 960 0
DWIDTH 32 0
BBX 32 32 0 -2
BITMAP
07880060
070C00F0
070E00F0
070FFFF8
070E0078
0F0E0070
0F0E0070
0E0E0070
0E0FFFF0
1E0E0070
1E0C0030
1E000000
1E100018
3E1FFFFC
7E1FFFFE
6E18181E
EE181818
CE181818
8E181818
0E181818
0E1FFFF8
0E1C0038
0E180018
0E180006
0E180006
0E18000E
0E18000E
0E18000E
0E1FFFFF
0E0FFFFE
0E0FFFFC
0E000000
ENDCHAR

STARTCHAR jisx0212_313D
ENCODING 12605
SWIDTH 960 0
DWIDTH 32 0
BBX 32 32 0 -2
BITMAP
07001980
07C018F0
07C018F0
07001870
07001867
0F3FFFFF
0F3FFFFF
0E001800
0E101808
1E18181C
1E1C3C3E
1E1FFFFF
1E18180F
3E18180E
7E18180E
6E18180E
EE1FFFFE
CE1C3C0E
8E18180E
0E18180E
0E18180E
0E18180E
0E1C3C0E
0E1FFFFE
0E18180E
0E18180E
0E18180E
0E18180E
0E1819FE
0E18183C
0E181818
0E181810
ENDCHAR

STARTCHAR jisx0212_313E
ENCODING 12606
SWIDTH 960 0
DWIDTH 32 0
BBX 32 32 0 -2
BITMAP
07807000
07007C00
07007C00
07107060
071870F0
0F1FFFF8
0F1FFFF8
0E180078
0E180070
1E180070
1E1C0070
1E1FFFF0
1E180070
3E180070
7E180070
6E180070
EE1FFFF0
CE1C6070
8E186030
0E18701E
0E181078
0E1818F0
0E181CF0
0E180F80
0E180700
0E181FC0
0E183FE0
0E19F0F8
0EFF807F
0E7C003E
0E78001E
0E600006
ENDCHAR

STARTCHAR jisx0212_313F
ENCODING 12607
SWIDTH 960 0
DWIDTH 32 0
BBX 32 32 0 -2
BITMAP
07001E00
07C01C00
07C61800
070798E0
070F1870
0F0E1838
0F0E181C
0E1E180E
0E18180F
1E301807
1E701807
1E681876
1E8FFFF8
3E0E0070
7E0E0070
6E0E0070
EE0E0070
CE0FFFF0
8E0FFFF0
0E0E0070
0E0E0070
0E0E0070
0E0E0070
0E0FFFF0
0E0E0070
0E0E0070
0E0E0070
0E0E0070
0E0E0FF0
0E0E00E0
0E0E00C0
0E0E0080
ENDCHAR

STARTCHAR jisx0212_3140
ENCODING 12608
SWIDTH 960 0
DWIDTH 32 0
BBX 32 32 0 -2
BITMAP
07007000
07C07C00
07C07C00
07007000
0710700E
0F1FFFFF
0F3FFFFF
0E70000F
0EF00008
1EE000C0
1EC000E0
1E0FFFF0
1E000000
3E000000
7E000000
6E000008
EE00001E
CEFFFFFF
8EFFFFFF
0E018700
0E018700
0E018700
0E018700
0E018706
0E070706
0E07070E
0E07070E
0E0E070E
0E1807FF
0E3003FE
0E7001FC
0EE00000
ENDCHAR

STARTCHAR jisx0212_3141
ENCODING 12609
SWIDTH 960 0
DWIDTH 32 0
BBX 32 32 0 -2
BITMAP
07801E00
07101C10
07101830
07181878
071FFFFE
0F1C3C3E
0F18181C
0E181818
0E1FFFF8
1E1C3C38
1E181818
1E181818
1E181818
3E1FFFF8
7E1FFFF8
6E180018
EE000007
CEFFFFFF
8EFFFFFF
0E018000
0E018018
0E03FFFC
0E07FFFE
0E07001E
0E0F0018
0E0E0018
0E0C0038
0E000078
0E001FF0
0E0003E0
0E0001C0
0E000100
ENDCHAR

STARTCHAR jisx0212_3142
ENCODING 12610
SWIDTH 960 0
DWIDTH 32 0
BBX 32 32 0 -2
BITMAP
07001800
07C01F00
07C01F00
07001800
07001808
0F00181C
0F003C3E
0E7FFFFF
0E001800
1E081800
1E0C1860
1E0F1878
1E0E1870
3E0E1870
7E0E1870
6E1F18F8
EE1998EE
CE31F9CE
8E71FF8C
0E617F08
0E807600
0E00F700
0E00F300
0E00E180
0E01E1E0
0E03C0F0
0E0780F0
0E0F007E
0E1E001F
0EF0000E
0EF0000E
0F800006
ENDCHAR

STARTCHAR jisx0212_3143
ENCODING 12611
SWIDTH 960 0
DWIDTH 32 0
BBX 32 32 0 -2
BITMAP
07078000
07C70008
07C7000C
0707001E
070FFFFF
0F0E03C0
0F0E0380
0E1F0780
0E198F00
1E30FE00
1E70FC00
1EE07800
1E80FF00
3E03CFF0
7E078FF0
6E0F11FF
EE787E7E
CFE0F10C
8FC0F308
0E07E7E0
0E1F0F80
0EF01F18
0EF03F3C
0E00F87F
0E07E0F8
0E1F03F0
0E3F07F0
0EF01F80
0E00FE00
0E0FE000
0E0FC000
0EF80000
ENDCHAR

STARTCHAR jisx0212_3144
ENCODING 12612
SWIDTH 960 0
DWIDTH 32 0
BBX 32 32 0 -2
BITMAP
07008000
07C1F008
07C3F60C
070F871E
077E07FF
0F0E070F
0F0E070F
0E0E070E
0E0E070E
1E0E370E
1E0E770E
1EFFFF0E
1E0E070E
3E1E070E
7E1E070E
6E1E070E
EE1F870E
CE3EC70E
8E7EE70E
0E7EF70E
0E6E770E
0EEE670E
0ECE070E
0E8E070E
0F0E070E
0E0E070E
0E0E070E
0E0E07FE
0E0E070E
0E0E070E
0E0E070C
0E0E0700
ENDCHAR

STARTCHAR jisx0212_3145
ENCODING 12613
SWIDTH 960 0
DWIDTH 32 0
BBX 32 32 0 -2
BITMAP
07070180
07C7C1F0
07C7C1F0
07070180
07070180
0F073180
0F077180
0EFFF980
0E10018E
1E1CCFFF
1E1CEFFF
1E18718F
1E78198E
3E70198E
7E70198E
6EE1818E
EF81F18E
CE71C18E
8E31838E
0E19878E
0E0F870E
0E07070E
0E07070E
0E0F870E
0E0EEE0E
0E1CEE1E
0E38EC1C
0E701818
0EE077F8
0FC0E0F0
0F80C0F0
0E018080
ENDCHAR

STARTCHAR jisx0212_3146
ENCODING 12614
SWIDTH 960 0
DWIDTH 32 0
BBX 32 32 0 -2
BITMAP
07001E00
07C01C08
07C0180C
0700181E
077FFFFF
0F00F000
0F00F000
0E00E100
0E0180E0
1E010078
1E03007C
1E7FFFFE
1E1FF00F
3E100007
7E100007
6E080018
EE0FFFFE
CE0E003E
8E0E001C
0E0E0018
0E0FFFF8
0E0E0038
0E0E0018
0E0E0018
0E0FFFF8
0E0E0038
0E0E0018
0E0E0018
0E0E07F8
0E0E0070
0E0E0070
0E0E0060
ENDCHAR

STARTCHAR jisx0212_3147
ENCODING 12615
SWIDTH 960 0
DWIDTH 32 0
BBX 32 32 0 -2
BITMAP
07800700
070087C0
0700C7C0
0767F700
077F8700
0F700700
0F700700
0E700E0E
0E700FFF
1E700FCF
1E700F8F
1E70E98E
1E7FF988
3E73F998
7E719998
6E719190
EE71E180
CE71C180
8E7181C0
0E7181E0
0E7181E0
0E718360
0E718760
0EF18770
0EE18770
0EE18E38
0EC18E1C
0E818E1E
0F81980F
0F01F00E
0F01F00E
0E01E006
ENDCHAR

STARTCHAR jisx0212_3148
ENCODING 12616
SWIDTH 960 0
DWIDTH 32 0
BBX 32 32 0 -2
BITMAP
07007800
07C07010
07C07030
07007078
07007FFE
0F007000
0F607000
0E70700E
0E7FFFFF
1E70700F
1E70700F
1E707198
1E707FF0
3E7FF008
7E7FF008
6E707008
EE707FFE
CE703FFC
8E701FF8
0E700000
0E708600
0E70F780
0E70F780
0E70E706
0E70E706
0EE1E70E
0EE1C70E
0EE1870E
0E8787FF
0F0F03FE
0F0F01FC
0E780000
ENDCHAR

STARTCHAR jisx0212_3149
ENCODING 12617
SWIDTH 960 0
DWIDTH 32 0
BBX 32 32 0 -2
BITMAP
07080010
07CC0038
07CE007C
070FFFFE
070E0000
0F0E00C0
0F0E00E0
0E0FFFF0
0E0E0000
1E0E00C0
1E0E00E0
1E0FFFF0
1E0E0000
3E0E0000
7E0E0006
6E0E000F
EEFFFFFF
CE0E0C00
8E0E0800
0E0E0810
0E0E0E1E
0E0E063C
0E0E0678
0E0E07E0
0E0E0180
0E0E01C0
0E0E01E0
0E0E7EF8
0EFFE07F
0E7E003E
0E7C001C
0E600008
ENDCHAR

STARTCHAR jisx0212_314A
ENCODING 12618
SWIDTH 960 0
DWIDTH 32 0
BBX 32 32 0 -2
BITMAP
07900000
071C0008
071C060C
0718071E
071877FF
0F3FFF0F
0F7FFF0F
0E77070E
0E67070E
1EE7070E
1EC7070E
1E87070E
1F07070E
3E07170E
7E07370E
6EFFFF0E
EE07070E
CE07070E
8E07070E
0E07070E
0E0F070E
0E0F870E
0E0FC70E
0E0EE70E
0E18E70E
0E18770E
0E38770E
0E7077FE
0EE0670E
0EC0070E
0E80070C
0F000700
ENDCHAR

STARTCHAR jisx0212_314B
ENCODING 12619
SWIDTH 960 0
DWIDTH 32 0
BBX 32 32 0 -2
BITMAP
07000180
07CF03F0
07CF07F0
0701EF00
07007E00
0F01E780
0F03C3C0
0E0F80F0
0E70F070
1E00E00C
1E00E00E
1EFFFFFF
1E018000
3E038030
7E07C070
6E07FFF8
EE0F0078
CE0F0070
8E0F0070
0E1FFFF0
0E770070
0EE70070
0EC70070
0F87FFF0
0E070070
0E070070
0E070070
0E070070
0E0707F0
0E0700E0
0E0700C0
0E070080
ENDCHAR

STARTCHAR jisx0212_314C
ENCODING 12620
SWIDTH 960 0
DWIDTH 32 0
BBX 32 32 0 -2
BITMAP
07007000
07C07C00
07C07C00
07007000
0710700E
0F1FFFFF
0F3FFFFF
0E70000F
0EF80018
1E6F0010
1E0F0010
1E0E0818
1E18EFFE
3E1FFE3E
7E1FFE1C
6E18EE18
EE70EE18
CE70EE18
8E70CE18
0EE18E18
0E998E18
0F0F8E18
0F0F8E38
0E0F0FF8
0E070E76
0E0E0E66
0E0C0E06
0E180E0E
0E700FFF
0EE007FE
0EC003FC
0F000000
ENDCHAR

STARTCHAR jisx0212_314D
ENCODING 12621
SWIDTH 960 0
DWIDTH 32 0
BBX 32 32 0 -2
BITMAP
07000180
07C3FFC0
07C3FFC0
07000100
07060180
0F0780C0
0F0780E0
0E0F00F0
0E0E607E
1E1C783F
1E38781F
1E70F00E
1EE0E706
3E01C3C0
7E0181E0
6E0100F0
EE7FFFF8
CE3FC038
8E1F8018
0E107010
0E001800
0E000C30
0E060E30
0E178E18
0E17008E
0E37008F
0E77008F
0EE70187
0FE7FFE6
0EC3FFC0
0E81FF80
0E000000
ENDCHAR

STARTCHAR jisx0212_314E
ENCODING 12622
SWIDTH 960 0
DWIDTH 32 0
BBX 32 32 0 -2
BITMAP
07001800
07C01F00
07C01F00
07001800
0708180E
0F0FFFFF
0F0FFFFF
0E18000F
0E780018
1E740030
1E360070
1E07FFF8
1E070078
3E070070
7E070070
6E070070
EE07FFF0
CE070070
8E070030
0E070000
0E070018
0E07FFFC
0E07FFFE
0E07001E
0E070018
0E070018
0E070018
0E070018
0E07FFF8
0E070038
0E070018
0E070018
ENDCHAR

STARTCHAR jisx0212_314F
ENCODING 12623
SWIDTH 960 0
DWIDTH 32 0
BBX 32 32 0 -2
BITMAP
07008600
07C0F780
07C0F780
0700E700
0710E718
0F1FFFFC
0F1FFFFE
0E18E71E
0E18E718
1E18E718
1E18E718
1E18E718
1E18E718
3E1FFFF8
7E1FFFF8
6E18E718
EE18E718
CE18E718
8E18E718
0E18E718
0E18E719
0EFFFFFF
0EFFFFFF
0E010000
0E07E180
0E0FC0F0
0E0F80F0
0E1F007E
0E78001F
0EE0000F
0EC0000F
0F000006
ENDCHAR

STARTCHAR jisx0212_3150
ENCODING 12624
SWIDTH 960 0
DWIDTH 32 0
BBX 32 32 0 -2
BITMAP
07007800
07C07000
07C07000
0700E070
0700FFF8
0F01E0F0
0F03E0F0
0E7771E0
0E7E1F80
1E700F00
1E700F00
1E701FE0
1E70F0F8
3E73C87F
7E778C3F
6E7E0F08
EE700E00
CE708E08
8E708E0C
0E708E1F
0E718E78
0E731FE0
0E771FC0
0E7F1900
0E767980
0E70F0C0
0E30F0E0
0E01E0F8
0E07807F
0E1E003E
0E3C001C
0E700008
ENDCHAR

STARTCHAR jisx0212_3151
ENCODING 12625
SWIDTH 960 0
DWIDTH 32 0
BBX 32 32 0 -2
BITMAP
07001800
07C01F00
07C01F00
07061810
0706187E
0F0E18F0
0F0E18F0
0E0E1980
0E1E7E00
1E1C7000
1E187000
1E00F780
1E01E1F0
3E03C07C
7E07803E
6E1E181E
EEF01F08
CE001C10
8E061810
0E06181E
0E0E1878
0E0E3CF0
0E0E7EF0
0E1E7780
0E187700
0E00F380
0E00F1C0
0E01E0F0
0E07807F
0E1F003E
0E3F001C
0EF00008
ENDCHAR

STARTCHAR jisx0212_3152
ENCODING 12626
SWIDTH 960 0
DWIDTH 32 0
BBX 32 32 0 -2
BITMAP
07800000
0740C00C
0760E60E
077FF7FF
0770F70F
0F70E70E
0F70E70E
0E70E70E
0E78E78E
1E74E74E
1E76E76E
1E77E77E
1E77E77E
3E70E70E
7E70E70E
6E70E70E
EE78E78E
CE74E74E
8E76E76E
0E77E77E
0E77E77E
0E70E70E
0E70E70E
0E70E70E
0EE0EE0E
0EE0EE0E
0EE0EE0E
0EE0EE0E
0E8FE8FE
0F83D83C
0F819818
0F011010
ENDCHAR

STARTCHAR jisx0212_3153
ENCODING 12627
SWIDTH 960 0
DWIDTH 32 0
BBX 32 32 0 -2
BITMAP
07001E00
07C01C00
07C61800
070798E0
07071878
0F0F183C
0F0F181E
0E0E180F
0E181807
1E301807
1E701807
1EF0180E
1E9FFFFF
3E1C000E
7E18000E
6E18000E
EE18818E
CE18FFCE
8E18FFCE
0E18E18E
0E18E18E
0E18E18E
0E18E18E
0E18E18E
0E18FF8E
0E18E38E
0E18E18E
0E18E00E
0E1800FE
0E18003C
0E180018
0E180010
ENDCHAR

STARTCHAR jisx0212_3154
ENCODING 12628
SWIDTH 960 0
DWIDTH 32 0
BBX 32 32 0 -2
BITMAP
070E0180
07CF81F0
07CF81F0
070E0180
070E018E
0FFFFFFF
0FFFFFFF
0E0E0180
0E0E0180
1E0E0180
1E0E0380
1E0FFF80
1E0E0180
3E0E0180
7E0E0180
6E0E0180
EE0FFF80
CE0E0380
8E0E0180
0E0E0180
0E0E0186
0E0E018F
0E0E03CF
0EFFFFFF
0E010600
0E03C180
0E07C1C0
0E0F00F0
0E7E0078
0EF0003C
0EF0001E
0F80000E
ENDCHAR

STARTCHAR jisx0212_3155
ENCODING 12629
SWIDTH 960 0
DWIDTH 32 0
BBX 32 32 0 -2
BITMAP
07900008
0718001C
071C003E
071FFFFF
0718000F
0F181C0E
0F181C0E
0E18188E
0E19FFEE
1E183C0E
1E18180E
1E18180E
1E18188E
3E19FFCE
7E19FFCE
6E18180E
EE18180E
CE18818E
8E18C3CE
0E18FFEE
0E18E18E
0E38E18E
0E78E18E
0E70E18E
0E70FF8E
0E70E38E
0E70E18E
0EE0E00E
0EE000FE
0EC0003C
0E800018
0F000010
ENDCHAR

STARTCHAR jisx0212_3156
ENCODING 12630
SWIDTH 960 0
DWIDTH 32 0
BBX 32 32 0 -2
BITMAP
01E00700
01C007C0
018007C0
01870700
FFFF8700
03C00700
01800700
01800700
618E0700
7FFF0700
7FFF0700
700F0700
700E0700
7FFE0700
7FFE0700
700E0700
700E0780
700E0F80
700E0F80
7FFE0E80
718E0EE0
01800EE0
01800CE0
01871870
FFFF9870
03C07078
0180703C
0180E01E
0181801F
0183000E
0187000C
01880008
ENDCHAR

STARTCHAR jisx0212_3157
ENCODING 12631
SWIDTH 960 0
DWIDTH 32 0
BBX 32 32 0 -2
BITMAP
07001800
07C01F00
07C01F00
07001808
0700181E
0F3FFFFF
0F3FFFFF
0E000000
0E080060
1E0C00F0
1E0E00F0
1E0FFFF8
1E0E0078
3E0E0070
7E0E0070
6E0E0070
EE0E0070
CE0FFFF0
8E0FFFF0
0E0E1870
0E061800
0E079980
0E0799C0
0E0F18E0
0E0E1878
0E1C183C
0E38181E
0E70180F
0EE7F80F
0FC07006
0F807000
0E006000
ENDCHAR

STARTCHAR jisx0212_3158
ENCODING 12632
SWIDTH 960 0
DWIDTH 32 0
BBX 32 32 0 -2
BITMAP
07001E00
07C01C08
07C0180C
0700181E
077FFFFF
0F003C00
0F001800
0E001870
0E1FFFF8
1E003C70
1E001870
1E001877
1EFFFFFF
3E003C70
7E001870
6E001870
EE1FFFF0
CE003C70
8E001830
0E081800
0E0F1818
0E0E1FFC
0E0E1FFC
0E1E1800
0E181800
0E3C1800
0E7E1800
0E779800
0EE1FFFF
0EC07FFE
0E803FFC
0F000000
ENDCHAR

STARTCHAR jisx0212_3159
ENCODING 12633
SWIDTH 960 0
DWIDTH 32 0
BBX 32 32 0 -2
BITMAP
07001800
07C01F00
07C01F00
07001800
0710180E
0F1FFFFF
0F3FFFFF
0E70000F
0EF00018
1E600090
1E0000D0
1E0001E0
1E1FFFF0
3E000000
7E000000
6E000008
EE00001E
CEFFFFFF
8EFFFFFF
0E001800
0E081800
0E0F18C0
0E0F18E0
0E1E1870
0E181818
0E30180C
0E70180E
0EE0180F
0F87F807
0E007006
0E007000
0E006000
ENDCHAR

STARTCHAR jisx0212_315A
ENCODING 12634
SWIDTH 960 0
DWIDTH 32 0
BBX 32 32 0 -2
BITMAP
07900010
07180038
071C007C
071FFFFE
0718181E
0F18181C
0F181818
0E181818
0E1FFFF8
1E1C3C38
1E181818
1E181818
1E181818
3E1FFFF8
7E1FFFF8
6E181818
EE001806
CE00180F
8E003C0F
0EFFFFFF
0E007E00
0E00FF00
0E00FF00
0E01F980
0E0798F0
0E0F187C
0E0F183E
0E1E181F
0E70180E
0E801806
0E801800
0E001800
ENDCHAR

STARTCHAR jisx0212_315B
ENCODING 12635
SWIDTH 960 0
DWIDTH 32 0
BBX 32 32 0 -2
BITMAP
07007800
07C07010
07C07030
07007078
077FFFFE
0F007000
0F007000
0E007008
0E00701E
1EFFFFFF
1EFFFFFF
1E070700
1E070706
3E0F0706
7E0F0706
6E0E87FF
EE18F1FE
CE31E000
8E71C000
0EE180E0
0E07FFF0
0E0F03E0
0E0F03C0
0E198780
0E70EF00
0EE07E00
0EC07E00
0E00FFE0
0E07E7FF
0E1F00FE
0E3F00FC
0EF00008
ENDCHAR

STARTCHAR jisx0212_315C
ENCODING 12636
SWIDTH 960 0
DWIDTH 32 0
BBX 32 32 0 -2
BITMAP
07001800
07C01F00
07C01F00
07001808
0700181E
0F3FFFFF
0F3FFFFF
0E001800
0E101810
1E181838
1E1C3C7C
1E1FFFFE
1E18181E
3E18181C
7E1C3C38
6E1FFFF8
EE181818
CE181818
8E1C3C38
0E1FFFF8
0E18FE18
0E01FF00
0E01FF00
0E019980
0E0799E0
0E0F18F8
0E0F18FC
0E1E187F
0E78181E
0EE0180C
0EC01808
0E001800
ENDCHAR

STARTCHAR jisx0212_315D
ENCODING 12637
SWIDTH 960 0
DWIDTH 32 0
BBX 32 32 0 -2
BITMAP
0F007800
0E007000
0E007000
0E007018
0EFFFFFE
1E007000
1C007000
18607070
187FFFF8
18707070
38707070
78707070
787FFFF0
78707000
78307000
F8007070
987FFFF8
18007070
18007070
18007077
19FFFFFF
18007070
18007070
18007070
187FFFF0
18007070
18007030
18007000
180FF000
1800E000
1800C000
18008000
ENDCHAR

STARTCHAR jisx0212_315E
ENCODING 12638
SWIDTH 960 0
DWIDTH 32 0
BBX 32 32 0 -2
BITMAP
070001E0
07C001C0
07C00180
07007198
071FF98E
0F00018E
0F00018C
0E000180
0E00018E
1E3FFFFF
1E3FFFFF
1E00E180
1E00E180
3E00E180
7E00E180
6E10E180
EE1EE9E0
CE1CFEE0
8E18FCE0
0E18E0E0
0E18E0E0
0E18E0F0
0E18E0F0
0E18E071
0E18E071
0E18EF79
0E18EF3F
0E18F81F
0EFFE01E
0E7E000F
0E7C000F
0E600007
ENDCHAR

STARTCHAR jisx0212_315F
ENCODING 12639
SWIDTH 960 0
DWIDTH 32 0
BBX 32 32 0 -2
BITMAP
078781E0
070701C0
07070180
0707018E
077FFFFF
0F0703C0
0F070180
0E070180
0E077980
1E007000
1E007000
1E107070
1E1FFFF8
3E1C7078
7E187078
6E187070
EE187070
CE187070
8E187070
0E187077
0EFFFFFF
0E00EC00
0E00EC00
0E01EE00
0E018700
0E038780
0E0783C0
0E0F01F0
0E1E00FF
0EF0007E
0EF0003C
0F800008
ENDCHAR

STARTCHAR jisx0212_3160
ENCODING 12640
SWIDTH 960 0
DWIDTH 32 0
BBX 32 32 0 -2
BITMAP
078000E0
07100FF8
07100FF8
071FFF80
071860E0
0F181078
0F38103C
0E70181E
0E70180E
1EE0300C
1EE07008
1E907070
1E1FFFF8
3E1C7070
7E187070
6E187070
EE187077
CEFFFFFF
8EFFFFFF
0E187070
0E187070
0E187073
0E3C7077
0EFFFFFF
0E180070
0E180070
0E180070
0E180070
0E180FF0
0E1800E0
0E1800C0
0E180080
ENDCHAR

STARTCHAR jisx0212_3161
ENCODING 12641
SWIDTH 960 0
DWIDTH 32 0
BBX 32 32 0 -2
BITMAP
07880080
070700F0
070700F0
070781E0
07018186
0F01030F
0F03070F
0EFFFFFF
0E000000
1E003008
1E60700C
1E7FF90F
1E7071EE
3E7071CE
7E70718E
6E7E718E
EE77718E
CE77718E
8E73718E
0E70718E
0E70718E
0E7C718E
0E7E718E
0E77718E
0E77718E
0E70718E
0E70718E
0E70700E
0E77F0FE
0E70E03C
0E70C018
0E708010
ENDCHAR

STARTCHAR jisx0212_3162
ENCODING 12642
SWIDTH 960 0
DWIDTH 32 0
BBX 32 32 0 -2
BITMAP
070000E0
07C01FF8
07E03FF8
071FFF80
07001808
0F00181C
0F003C3E
0EFFFFFF
0E001800
1E101818
1E103C3C
1E1FFFFE
1E18181E
3E18181C
7E1C3C38
6E1FFFF8
EE181818
CE181818
8E1C3C38
0E1FFFF8
0E181818
0E001800
0E001800
0E001818
0E7FFFFE
0E003C00
0E001800
0E001808
0E00181E
0EFFFFFF
0EFFFFFF
0E000000
ENDCHAR

STARTCHAR jisx0212_3163
ENCODING 12643
SWIDTH 960 0
DWIDTH 32 0
BBX 32 32 0 -2
BITMAP
07807800
07007000
07007000
07007018
077FFFFE
0F00E000
0F00E000
0E00E070
0E7FFFF8
1E03C600
1E018600
1E018700
1E07010E
3EFFFFFF
7EFFFFFF
6E0E00E0
EE180070
CE3800FC
8E7C00FE
0EEFFFFF
0F8E00EE
0E0E00E6
0E0E00E0
0E0E00E0
0E0FFFE0
0E0E00E0
0E0E00E0
0E0E00E0
0E0E00E0
0E0FFFE0
0E0FFFE0
0E0E00E0
ENDCHAR

STARTCHAR jisx0212_3164
ENCODING 12644
SWIDTH 960 0
DWIDTH 32 0
BBX 32 32 0 -2
BITMAP
070000E0
07C00FF8
07C00FF8
0700FF80
071F9800
0F001800
0F001800
0E101818
0E1FFFFE
1E1C3C3C
1E181818
1E181818
1E181818
3E1FFFF8
7E1FFFF8
6E181818
EE001800
CE00180C
8E603C0E
0E7FFFFF
0E70180F
0E70198E
0E7019CE
0E7018EE
0E7FFFFE
0E77F06E
0E77F00E
0E76000E
0E7001FE
0E70003C
0E700018
0E700010
ENDCHAR

STARTCHAR jisx0212_3165
ENCODING 12645
SWIDTH 960 0
DWIDTH 32 0
BBX 32 32 0 -2
BITMAP
07070180
07C7C1F0
07C7C1F0
07070180
0707018E
0F3FFFFF
0F3FFFFF
0E070180
0E070180
1E078180
1E03C180
1E00F000
1E00E008
3E00E01C
7E00E03E
6EFFFFFF
EE018000
CE038000
8E078000
0E070010
0E0F0078
0E1FFFFC
0E3FFFFE
0E77001E
0EE70018
0FC70018
0F870018
0E070018
0E070018
0E07FFF8
0E07FFF8
0E070018
ENDCHAR

STARTCHAR jisx0212_3166
ENCODING 12646
SWIDTH 960 0
DWIDTH 32 0
BBX 32 32 0 -2
BITMAP
07900010
07180038
071C007C
071FFFFE
0718181E
0F18181C
0F181818
0E181818
0E1FFFF8
1E1C3C38
1E181818
1E181818
1E181818
3E1FFFF8
7E1FFFF8
6E180018
EE00000E
CFFFFFFF
8FFFFFFF
0E186010
0E18707E
0E1830F0
0E1810F0
0E1819E0
0E180F00
0E180780
0E1807C0
0E18F9F0
0FFF80FF
0EFC007E
0EF8003C
0E800008
ENDCHAR

STARTCHAR jisx0212_3167
ENCODING 12647
SWIDTH 960 0
DWIDTH 32 0
BBX 32 32 0 -2
BITMAP
07800060
074000F0
076000F0
077FFFF8
07700078
0F700C70
0F700E70
0E707F70
0E77E070
1E706070
1E706070
1E766770
1E77FFF0
3E766770
7E766770
6E766770
EE766770
CE766770
8E766770
0E766770
0E77FF70
0E766770
0E706770
0E706E79
0EE06719
0EE06F99
0EE06FFF
0EFFF9FF
0E9F00EE
0F1000CF
0F10008F
0E000007
ENDCHAR

STARTCHAR jisx0212_3168
ENCODING 12648
SWIDTH 960 0
DWIDTH 32 0
BBX 32 32 0 -2
BITMAP
07880060
070C00F0
070E00F0
070FFFF8
070E0078
0F0E0070
0F0E0070
0E0FFFF0
0E0E0070
1E0E0070
1E0E0070
1E0FFFF0
1E0E0076
3E00000F
7E00000F
6EFFFFFF
EE070000
CE0F000C
8E0F000E
0E0FFFFF
0E18E70F
0E31EF0E
0E73CF0E
0EE78E0E
0F0F1E0E
0E1E3C1E
0E3C781C
0E78F018
0EE1E7F8
0E0F00F0
0E0F00F0
0E180080
ENDCHAR

STARTCHAR jisx0212_3169
ENCODING 12649
SWIDTH 960 0
DWIDTH 32 0
BBX 32 32 0 -2
BITMAP
07900008
0718001C
071C003E
071FFFFF
0718000F
0F18000E
0F18000E
0E18000E
0E1FFFFE
1E1C0000
1E180000
1E18000E
1E1FFFFF
3E1C7C00
7E187800
6E1870E0
EE18E078
CE1FFFFC
8E1FFFFE
0E19F80F
0E190F07
0E300E00
0E700E00
0E700E18
0E77FFFE
0E600E00
0E600E00
0EE00E06
0E800E0F
0F1FFFFF
0F1FFFFF
0E000000
ENDCHAR

STARTCHAR jisx0212_316A
ENCODING 12650
SWIDTH 960 0
DWIDTH 32 0
BBX 32 32 0 -2
BITMAP
07001E00
07C01C00
07C01800
070818E0
070F1878
0F0E183C
0F0E181E
0E1E188F
0E1819F7
1E31FFC6
1E71FF80
1E607F00
1E801E00
3E00F010
7E06F030
6E078078
EE1FFFFE
CEF7003E
8EF7001C
0F870018
0E07FFF8
0E070038
0E070018
0E070018
0E07FFF8
0E070038
0E070018
0E070018
0E07FFF8
0E070038
0E070018
0E070018
ENDCHAR

STARTCHAR jisx0212_316B
ENCODING 12651
SWIDTH 960 0
DWIDTH 32 0
BBX 32 32 0 -2
BITMAP
07001E00
07C01C08
07C0180C
0700181E
077FFFFF
0F0600C0
0F0200C0
0E0100F0
0E0181E0
1E1181C0
1E118380
1E11070E
1E7FFFFF
3EE03C0F
7EE0180F
6FE01808
EE901818
CE1FFFFC
8E1FFFFC
0E181818
0E181818
0E181818
0E181818
0E181818
0E181818
0E181818
0E181838
0E1819F8
0E181870
0E181860
0E181800
0E001800
ENDCHAR

STARTCHAR jisx0212_316C
ENCODING 12652
SWIDTH 960 0
DWIDTH 32 0
BBX 32 32 0 -2
BITMAP
07001E00
07C81C10
07CC3830
070E7078
070FFFFE
0F0E003E
0F0E001C
0E0E0018
0E0E0018
1E0FFFF8
1E0FFFF8
1E0E0018
1E0E0018
3E0E0018
7E0E0038
6E0FFFF8
EE0E0018
CE00000C
8E00000E
0E7FFFFF
0E001800
0E001800
0E001800
0E001818
0E1FFFFE
0E003C00
0E001800
0E001806
0E00180F
0EFFFFFF
0EFFFFFF
0E000000
ENDCHAR

STARTCHAR jisx0212_316D
ENCODING 12653
SWIDTH 960 0
DWIDTH 32 0
BBX 32 32 0 -2
BITMAP
07800008
0700001C
0700003E
077FFFFF
0700E700
0F10E718
0F10E73C
0E1FFFFE
0E18E71E
1E18E71C
1E18E718
1E18E718
1E18FF18
3E18E718
7E18E318
6E186018
EE007800
CE00F000
8E00F006
0E00E00F
0EFFFFFF
0E07C0E0
0E0780E0
0E0701E0
0E0F0180
0E1FFF80
0E1FFFC0
0E181FE0
0E00F8F8
0E0FE03C
0E0FC01E
0EF8000E
ENDCHAR

STARTCHAR jisx0212_316E
ENCODING 12654
SWIDTH 960 0
DWIDTH 32 0
BBX 32 32 0 -2
BITMAP
07808180
0701F1F0
0703F1F0
070F8180
077E0180
0F0E0180
0F0E0180
0E0E0188
0E0E098F
1E0E098E
1E0E698E
1EFFE98E
1E0E1998
3E1E1998
7E1E3998
6E1E7990
EE1F71E0
CE3F81C0
8E7FC180
0E7EE180
0E6EE7E0
0EEE0760
0ECE0760
0E8E0770
0F0E0E70
0E0E0E38
0E0E0C1C
0E0E181E
0E0E700F
0E0EE00E
0E0EC00E
0E0F0006
ENDCHAR

STARTCHAR jisx0212_316F
ENCODING 12655
SWIDTH 960 0
DWIDTH 32 0
BBX 32 32 0 -2
BITMAP
07001E00
07C01C00
07C01800
0700180E
077FFFFF
0F0600C0
0F0600C0
0E0700F0
0E0181E0
1E0181C0
1E018380
1E018706
1E01060F
3EFFFFFF
7EFFFFFF
6E000000
EE080018
CE0FFFFC
8E0FFFFE
0E0E001E
0E0E0018
0E0E0018
0E0E0038
0E0FFFF8
0E0E0018
0E0E0018
0E0E0018
0E0E0018
0E0FFFF8
0E0E0038
0E0E0018
0E0E0018
ENDCHAR

STARTCHAR jisx0212_3170
ENCODING 12656
SWIDTH 960 0
DWIDTH 32 0
BBX 32 32 0 -2
BITMAP
0780000E
071FFFFF
071FFFFF
0700180F
07081818
0F0F1830
0F0F1C70
0E0E1FF8
0E0E1800
1E1F1800
1E1F3C00
1E19FFFF
1E707FFE
3EE00000
7EC00000
6E880018
EE0FFFFE
CE0E003E
8E0E001C
0E0E0018
0E0FFFF8
0E0E0038
0E0E0018
0E0E0018
0E0FFFF8
0E0E0038
0E0E0018
0E0E0018
0E0E07F8
0E0E0070
0E0E0070
0E0E0060
ENDCHAR

STARTCHAR jisx0212_3171
ENCODING 12657
SWIDTH 960 0
DWIDTH 32 0
BBX 32 32 0 -2
BITMAP
0700F000
07C0E000
07C0E000
0700E018
077FFFFE
0F03C600
0F038600
0E078700
0E070180
1E0E80F0
1E0EC0F0
1E19F07F
1E71871E
3E83FF8C
7E87FF88
6E0E0F00
EE1F1E00
CE33FDC0
8E71FBC0
0E80F78E
0E07EFFF
0E1E7C3E
0E3C783C
0EF0F078
0E0798F0
0E1E0FE0
0E1C0FC0
0E000F80
0E007E00
0E03F000
0E07F000
0E7F0000
ENDCHAR

STARTCHAR jisx0212_3172
ENCODING 12658
SWIDTH 960 0
DWIDTH 32 0
BBX 32 32 0 -2
BITMAP
07800008
0700001C
0700003E
077FFFFF
07000000
0F080010
0F0C0030
0E0E0078
0E0FFFFE
1E0E003E
1E0E001C
1E0E0018
1E0E0018
3E0FFFF8
7E0FFFF8
6E0E0018
EE000000
CE10000C
8E10000E
0E1FFFFF
0E18180F
0E18180E
0E18180E
0E18180E
0E1FFFFE
0E1C3C0E
0E18180E
0E18180E
0E18180E
0E1FFFFE
0E1FFFFE
0E18000E
ENDCHAR

STARTCHAR jisx0212_3173
ENCODING 12659
SWIDTH 960 0
DWIDTH 32 0
BBX 32 32 0 -2
BITMAP
07800008
0700001C
0700003E
077FFFFF
07007800
0F007000
0F007000
0E10E008
0E18801E
1E1FFFFF
1E1FFFFF
1E18E70F
1E18E70E
3E18E70E
7E18E70E
6E18E70E
EE18FF0E
CE18E70E
8E18E70E
0E18E70E
0E18E70E
0E18E70E
0E18E70E
0E18FF0E
0E18E70E
0E18E70E
0E18E70E
0E18E70E
0E18E70E
0E1FFFFE
0E1FFFFE
0E18000E
ENDCHAR

STARTCHAR jisx0212_3174
ENCODING 12660
SWIDTH 960 0
DWIDTH 32 0
BBX 32 32 0 -2
BITMAP
070F0000
07CE000C
07CE000E
070EEFFF
070FF18E
0FFE018E
0FFE018E
0E0EE18E
0E0FF18E
1EFE018E
1EFE038E
1E0EE78E
1E0FF70E
3EFE071E
7EFE071C
6E0E0E18
EE0E19F8
CE0E3070
8E0E7030
0E0E7800
0E00700E
0EFFFFFF
0EFFFFFF
0E00E800
0E01EE00
0E03C780
0E0783C0
0E0F01F0
0E1E00FF
0EF0007E
0EF0003C
0F800008
ENDCHAR

STARTCHAR jisx0212_3175
ENCODING 12661
SWIDTH 960 0
DWIDTH 32 0
BBX 32 32 0 -2
BITMAP
07800070
071003FC
071007FC
07187FE0
071FF600
0F1C0780
0F180780
0E180706
0E18070F
1E1FFFFF
1E1FFFFF
1E180E00
1E190E08
3E198E1C
7E19CE3E
6E19FFFF
EE19800F
CE19800E
8E19C00E
0E19FFFE
0E79800E
0E71800E
0E71C00E
0E71FFFE
0E71800E
0EE1800E
0EE1800E
0EE1800E
0E81FFFE
0F01C00E
0F01800E
0E01800E
ENDCHAR

STARTCHAR jisx0212_3176
ENCODING 12662
SWIDTH 960 0
DWIDTH 32 0
BBX 32 32 0 -2
BITMAP
07800000
0700300C
0700760E
07FFFFFF
0770E70E
0F70E70E
0F70E70C
0E70E718
0E70E718
1E7FE710
1E7FE730
1E70E770
1E70E760
3E70E710
7E70E710
6E70E718
EE7FE70E
CE70E70E
8E70E70E
0E70E707
0E70E707
0E70E707
0E70E707
0E77E707
0FFEE70F
0EF0E7FE
0EF0E7FC
0E80E718
0E00E700
0E00E700
0E00E700
0E00E700
ENDCHAR

STARTCHAR jisx0212_3177
ENCODING 12663
SWIDTH 960 0
DWIDTH 32 0
BBX 32 32 0 -2
BITMAP
07801E00
07009C00
0700F800
0711F818
071F19FE
0F1C183E
0F18181C
0E181818
0E189818
1E1F99F8
1E1F99F8
1E181818
1E181818
3E189818
7E1C9838
6E1F99F8
EE181818
CE001800
8E001800
0E000070
0E7FFFF8
0E0700F0
0E0300F0
0E0181E0
0E00E780
0E007F00
0E007F00
0E00F7E0
0E07E1FF
0E1F007E
0E3F003C
0EF00008
ENDCHAR

STARTCHAR jisx0212_3178
ENCODING 12664
SWIDTH 960 0
DWIDTH 32 0
BBX 32 32 0 -2
BITMAP
07801800
0700180C
07003C0E
077FFFFF
07001800
0F001830
0F003C70
0E1FFFF8
0E001800
1E00180C
1E003C0E
1EFFFFFF
1E007800
3E18F100
7E1CF300
6E0FE7E0
EE070F00
CE071E30
8E033C30
0E00701E
0EFFFFFF
0E7FFC07
0E7FF807
0E661906
0E0798E0
0E0F1878
0E0F183C
0E1E181E
0E78180F
0EE01807
0EC01803
0E001800
ENDCHAR

STARTCHAR jisx0212_3179
ENCODING 12665
SWIDTH 960 0
DWIDTH 32 0
BBX 32 32 0 -2
BITMAP
07007800
07C07000
07C07000
07007018
077FFFFE
0F00EC30
0F00EC10
0E71EE1E
0E198678
1E1F8770
1E1F8370
1E0F01E0
1E0E00F8
3E1FFFFF
7E3FFFFF
6E7E007E
EEEE0076
CF0E0070
8F0E0070
0E0FFFF0
0E0E0070
0E0E0070
0E0E0070
0E0E0070
0E0FFFF0
0E0E0070
0E0E0070
0E0E0070
0E0E0070
0E0FFFF0
0E0FFFF0
0E0E0070
ENDCHAR

STARTCHAR jisx0212_317A
ENCODING 12666
SWIDTH 960 0
DWIDTH 32 0
BBX 32 32 0 -2
BITMAP
07900008
0718001C
071C003E
071FFFFF
07180F00
0F180E00
0F180E00
0E180E00
0E188818
1E18FFFC
1E18FFFC
1E18E018
1E18E018
3E18FFF8
7E18FFF8
6E18E018
EE18E018
CE18E018
8E18E038
0E18FFF8
0E78E718
0E70C700
0E70C700
0E70F770
0E71E718
0EE1C70C
0EE3870E
0EE7070F
0E8E7F07
0F1C0E06
0F180C00
0E600800
ENDCHAR

STARTCHAR jisx0212_317B
ENCODING 12667
SWIDTH 960 0
DWIDTH 32 0
BBX 32 32 0 -2
BITMAP
07080070
07CFFFF8
07CFFFF8
070E0078
070E0070
0F0E0070
0F0E0070
0E0FFFF0
0E0E0070
1E100038
1E10003C
1E1FFFFE
1E18001E
3E18001C
7E1C0038
6E1FFFF8
EE180018
CE180018
8E1C0038
0E1FFFF8
0E180018
0E180018
0E1C0038
0E1FFFF8
0E180018
0E010300
0E030300
0E07E1F0
0E1F007E
0EFC000F
0EF8000F
0F800007
ENDCHAR

STARTCHAR jisx0212_317C
ENCODING 12668
SWIDTH 960 0
DWIDTH 32 0
BBX 32 32 0 -2
BITMAP
070F00E0
07CE03F8
07CE07F8
070E7F80
070FF006
0F0E0006
0F0E0006
0E0FFFFF
0E07FFFE
1E000000
1E000000
1E610018
1E79FFFE
3E71C03C
7E71C038
6E71FFF8
EE718018
CE71FFF8
8E71FFF8
0E718018
0E71FFF8
0E71C038
0E718018
0E700007
0E7FFFFF
0E70C000
0E30C000
0E01F1E0
0E0F807E
0E3E000F
0E7C000F
0FE00007
ENDCHAR

STARTCHAR jisx0212_317D
ENCODING 12669
SWIDTH 960 0
DWIDTH 32 0
BBX 32 32 0 -2
BITMAP
07801E00
07101C08
0710180C
0718181E
071FFFFF
0F1C0000
0F180000
0E181E00
0E181870
1E19FFF8
1E19FFF8
1E181870
1E181877
3E1FFFFF
7E1FFFFF
6E181870
EE181870
CE19FFF0
8E19FFF0
0E181870
0E781800
0E740018
0E76003C
0E77FFFE
0E77001E
0EE7001C
0EE70018
0EE70018
0E870018
0F07FFF8
0F07FFF8
0E070018
ENDCHAR

STARTCHAR jisx0212_317E
ENCODING 12670
SWIDTH 960 0
DWIDTH 32 0
BBX 32 32 0 -2
BITMAP
07001E00
07C01C08
07C0180C
0700181E
077FFFFF
0F000000
0F000000
0E0600E0
0E07FFF0
1E0700E0
1E0700E0
1E0700E0
1E07FFE0
3E0700E0
7E0300C0
6E60000E
EE7FFFFF
CE70000F
8E70000F
0E71018E
0E71FFEE
0E71C3CE
0E71818E
0E71818E
0E71818E
0E71FF8E
0E71FF8E
0E71818E
0E7180FE
0E70003C
0E700018
0E700010
ENDCHAR

STARTCHAR jisx0212_3221
ENCODING 12833
SWIDTH 960 0
DWIDTH 32 0
BBX 32 32 0 -2
BITMAP
070000E0
07C80FF8
07CC0FF8
070FFF00
070E60E0
0F1E1878
0F1C1C3C
0E180E1E
0E18890E
1E30F1CC
1E70F3C8
1E698780
1E870700
3E038EC0
7E018CE0
6E019878
EE00701E
CEFFFFFF
8EFFFFFF
0E7F9007
0E601E00
0E001C0C
0E003C0E
0EFFFFFF
0E007600
0E00F700
0E00F300
0E01E1E0
0E0F80F8
0E3E007F
0E7C003F
0FE00008
ENDCHAR

STARTCHAR jisx0212_3222
ENCODING 12834
SWIDTH 960 0
DWIDTH 32 0
BBX 32 32 0 -2
BITMAP
079000E0
07181FF8
071C3FF8
071FFF00
07180000
0F180018
0F1C003C
0E1FFFFE
0E180018
1E180018
1E1C0038
1E1FFFF8
1E180018
3E180000
7E180000
6E18700E
EE7FF9FF
CE70F03F
8E70F03F
0E71F07E
0E7770EE
0E7E71CE
0E7C718E
0E70F61E
0EE1F07E
0EE370EE
0EE770CE
0EEE718E
0E98760E
0F67F0FE
0F03F0FC
0E00E018
ENDCHAR

STARTCHAR jisx0212_3223
ENCODING 12835
SWIDTH 960 0
DWIDTH 32 0
BBX 32 32 0 -2
BITMAP
07008060
07C1F0F8
07C3F0F8
070F87E0
07799E00
0F018E0C
0F03CE0E
0EFFFFFF
0E018E00
1E018E30
1E03CE70
1E7FFFF8
1E018E70
3E018E73
7E03CE77
6FFFFFFF
EE018E70
CE018E70
8E03CE70
0E7FFFF0
0E078E70
0E0F8F00
0E0F8F00
0E0F8F80
0E198EE0
0E318E78
0E718E3C
0EE18E1F
0F818E0E
0E018E06
0E018E00
0E018E00
ENDCHAR

STARTCHAR jisx0212_3224
ENCODING 12836
SWIDTH 960 0
DWIDTH 32 0
BBX 32 32 0 -2
BITMAP
07007E00
07C07C00
07C07800
0700F600
0701E700
0F01C380
0F0381C0
0E0706E0
0E0FFF78
1E1C003F
1E38003F
1E78007E
1EEFFFF6
3E0E0070
7E0E0070
6E0E0070
EE0FFFF0
CE0E0070
8E0E0070
0E0E0070
0E0FFFF0
0E0E0070
0E0E0030
0E1E0008
0E1FFFFE
0E1F003C
0E3F0018
0E770018
0E670018
0E87FFF8
0E87FFF8
0E070018
ENDCHAR

STARTCHAR jisx0212_3225
ENCODING 12837
SWIDTH 960 0
DWIDTH 32 0
BBX 32 32 0 -2
BITMAP
07001800
07C01F00
07C01F00
07001800
0710180E
0F1FFFFF
0F3FFFFF
0E70000F
0EF60118
1E6780F0
1E0780F0
1E0F1078
1E0E7E1E
3E1C7C0E
7E38780C
6E70F608
EE61E700
CE03C3C0
8E0781E0
0E0F00F8
0E1E007F
0E3FFFFE
0E7FFFFE
0EEE0076
0F0E0070
0E0E0070
0E0E0070
0E0E0070
0E0E0070
0E0FFFF0
0E0FFFF0
0E0E0070
ENDCHAR

STARTCHAR jisx0212_3226
ENCODING 12838
SWIDTH 960 0
DWIDTH 32 0
BBX 32 32 0 -2
BITMAP
07007800
07C0F000
07C0F000
0700E070
0701FFF8
0F03C0F0
0F07C0F0
0E0FE1E0
0E1E7780
1E273F00
1E031F00
1E019E00
1E01F000
3E03E000
7E07C060
6E1980F0
EEE7FFF8
CE0E3C00
8E0C1800
0E181808
0E00181E
0EFFFFFF
0EFFFFFF
0E001800
0E1E181E
0E1C181C
0E181818
0E181818
0E181818
0E1FFFF8
0E1FFFF8
0E180018
ENDCHAR

STARTCHAR jisx0212_3227
ENCODING 12839
SWIDTH 960 0
DWIDTH 32 0
BBX 32 32 0 -2
BITMAP
07060080
07C700F0
07C300F0
070181E0
07018180
0F01030C
0F03070E
0E7FFFFF
0E001800
1E001800
1E001800
1E001870
1E0FFFF8
3E003C00
7E001800
6E001808
EE00181E
CEFFFFFF
8EFFFFFF
0E018000
0E078010
0E070038
0E07007C
0E0FFFFE
0E0E0E00
0E1C0E00
0E380E00
0E700E06
0EE00E0F
0F1FFFFF
0F1FFFFF
0E000000
ENDCHAR

STARTCHAR jisx0212_3228
ENCODING 12840
SWIDTH 960 0
DWIDTH 32 0
BBX 32 32 0 -2
BITMAP
07000180
07C1FFC0
07C1FFC0
07080100
070F6080
0F1E78C0
0F1C78E0
0E18F078
0E70EE1F
1E81C78E
1E83C7CE
1E7FFFE6
1E1F80E0
3E1000C0
7E100080
6E00E00E
EEFFF7FF
CE0FE0FE
8E0FE0FE
0E1EE1EE
0E78E78E
0EF1EF1E
0EF3EF3E
0F87F87E
0E0FE0FE
0E1EE1EE
0E3CE3CE
0E78E78E
0EE0EE0E
0F0FF0FE
0F0FF0FC
0E018018
ENDCHAR

STARTCHAR jisx0212_3229
ENCODING 12841
SWIDTH 960 0
DWIDTH 32 0
BBX 32 32 0 -2
BITMAP
07800018
0700C01F
0700E01F
077FF018
07000018
0F003018
0F007018
0EFFF818
0E000019
1E00CFFF
1E00EFFF
1E7FF018
1E000018
3E00C018
7E00E618
6E7FF718
EE000118
CE000198
8E000198
0E60E198
0E7FF198
0E70E118
0E70E118
0E70E018
0E70E018
0E70E018
0E70E018
0E70E018
0E7FE1F8
0E70E070
0E70C070
0E700060
ENDCHAR

STARTCHAR jisx0212_322A
ENCODING 12842
SWIDTH 960 0
DWIDTH 32 0
BBX 32 32 0 -2
BITMAP
070E0180
07CF81F0
07CF81F0
070E0180
070E0180
0F0E0180
0F0E0180
0E0E618E
0EFFEFFF
1E030030
1E010010
1E81E81E
1E818818
3EC18C18
7EE18E18
6E618618
EE618618
CE718718
8E718718
0E718718
0E710710
0E710710
0E730710
0E770710
0E660770
0E06F760
0E06F760
0FFF8666
0EF8006F
0EC03FFF
0E803FFF
0E000000
ENDCHAR

STARTCHAR jisx0212_322B
ENCODING 12843
SWIDTH 960 0
DWIDTH 32 0
BBX 32 32 0 -2
BITMAP
07801E00
07081C00
07081800
0708180E
071FFFFF
0F30000F
0F70000F
0EF00018
0E600016
1E7FFFFF
1E3FFFFF
1E007800
1E00F008
3E01E01F
7E03E03F
6E0F107E
EE7878F0
CEE0EFC0
8EC0CF80
0E018F00
0E0F1F80
0E3C3FC0
0E787FE0
0EE0F770
0E07E77E
0E0F073F
0E0F071F
0E780F0E
0FE1FE06
0E007C00
0E007800
0E006000
ENDCHAR

STARTCHAR jisx0212_322C
ENCODING 12844
SWIDTH 960 0
DWIDTH 32 0
BBX 32 32 0 -2
BITMAP
07007800
07C0F000
07C0F000
0700E180
070180F0
0F3FFFF8
0F3FFFF8
0E1F8018
0E100060
1E183C70
1E387C70
1E7678E8
1E61F68E
3FFFE7FF
7FFFC3FF
6EE18187
EE0710E0
CE0E3878
8E0C783C
0E18F11F
0E71E78E
0E83CF16
0E878F36
0E1E1E7E
0E70F0F0
0E03C1E0
0E0783C0
0E1E0F80
0E007E00
0E03F000
0E07F000
0E7F0000
ENDCHAR

STARTCHAR jisx0212_322D
ENCODING 12845
SWIDTH 960 0
DWIDTH 32 0
BBX 32 32 0 -2
BITMAP
07807800
07107008
0710700C
0718601E
071FFFFF
0F1C3C0F
0F18180F
0E18108E
0E187FEE
1E1963CE
1E19638E
1E18FF0E
1E198F0E
3E181F8E
7E1839CE
6E18F0EE
EE1980EE
CE18000E
8E1C000E
0E1FFFFE
0E18100E
0E010C10
0E010E10
0E11EF18
0E11870E
0E31860F
0E71806F
0E718067
0EF180E7
0EE1FFF6
0EC1FFF0
0E00FFE0
ENDCHAR

STARTCHAR jisx0212_322E
ENCODING 12846
SWIDTH 960 0
DWIDTH 32 0
BBX 32 32 0 -2
BITMAP
07801800
07181F18
071C1F1C
071F181F
07181818
0F181818
0F1C3C38
0E1FFFF8
0E180018
1E000000
1E000000
1E60E60E
1E7FF7FF
3E70E70F
7E70E70F
6E70E70E
EE78E78E
CE77E77E
8E77E77E
0E77E77E
0E70E70E
0E78E78E
0E78E78E
0E77E77E
0E77E77E
0E70E70E
0E70E70E
0EE0EE0E
0EEFEEFE
0EC3CC3C
0E818818
0F011010
ENDCHAR

STARTCHAR jisx0212_322F
ENCODING 12847
SWIDTH 960 0
DWIDTH 32 0
BBX 32 32 0 -2
BITMAP
07007800
07C07000
07C07000
07007018
071FFFFE
0F0603E0
0F0201C0
0E018180
0E01870E
1EFFFFFF
1EFFFFFF
1E000000
1E100070
3E1FFFF8
7E1FFFF8
6E180078
EE180070
CE1FFFF0
8E1FFFF0
0E180070
0E180070
0E1FFFF0
0E1FFFF0
0E198E70
0E018E06
0E030E06
0E070E06
0E070E0E
0E0E0FFF
0E3C07FE
0E7803FC
0EE00000
ENDCHAR

STARTCHAR jisx0212_3230
ENCODING 12848
SWIDTH 960 0
DWIDTH 32 0
BBX 32 32 0 -2
BITMAP
079E0800
071CC80C
071CE80E
071FF6FF
0778E60E
0F70E71C
0F70C338
0E798170
0EEF81E0
1EE700E0
1EE700E0
1F7700F0
1E1E077E
3E1FFFBF
7E3FFF9F
6E70000E
EEE00006
CF000018
8F00003C
0EFFFFFE
0E001800
0E081900
0E0C1900
0E0F18E0
0E1E1878
0E1C183C
0E38181E
0E70180F
0EE1F80F
0FC07006
0F807000
0E006000
ENDCHAR

STARTCHAR jisx0212_3231
ENCODING 12849
SWIDTH 960 0
DWIDTH 32 0
BBX 32 32 0 -2
BITMAP
07001E00
07C01C00
07C01800
07001818
077FFFFE
0F0603E0
0F0201C0
0E018180
0E01870E
1EFFFFFF
1EFFFFFF
1E000000
1E100018
3E1FFFFC
7E1FFFFC
6E180018
EE180018
CE1FFFF8
8E1FFFF8
0E180018
0E180018
0E1FFFF8
0E1FFFF8
0E181800
0E00180E
0EFFFFFF
0EFFFFFF
0E001800
0E001800
0E001800
0E001800
0E001800
ENDCHAR

STARTCHAR jisx0212_3232
ENCODING 12850
SWIDTH 960 0
DWIDTH 32 0
BBX 32 32 0 -2
BITMAP
070F7778
07CE6670
07CE6670
070E6676
077FFFFF
0F0E6670
0F0E6670
0E0E6676
0E186676
1E187E7F
1E387E3F
1E70661E
1EE00006
3E7FFFFF
7E7FFFFF
6EE0100E
EFE01E18
CED01C08
8E903C0C
0E1FFFFE
0E18181E
0E18181C
0E181818
0E181818
0E181818
0E181818
0E181838
0E1819F8
0E181870
0E181860
0E181800
0E001800
ENDCHAR

STARTCHAR jisx0212_3233
ENCODING 12851
SWIDTH 960 0
DWIDTH 32 0
BBX 32 32 0 -2
BITMAP
0701E1E0
07C1C1C0
07C18180
0701818E
077FFFFF
0F03C3C0
0F038180
0E1F8188
0E18001E
1E1FFFFF
1E3FFFFF
1E78000F
1E70000E
3E70030E
7E70070E
6EFFFF8E
EE98E70E
CF18E70E
8F1CE70E
0E1FFF0E
0E18E70E
0E18E70E
0E1CE70E
0E1FFF0E
0E18E70E
0E18E71E
0E18E71C
0E18E718
0E18FFF8
0E18EE70
0E18CC70
0E000060
ENDCHAR

STARTCHAR jisx0212_3234
ENCODING 12852
SWIDTH 960 0
DWIDTH 32 0
BBX 32 32 0 -2
BITMAP
07800008
0700001C
0700003E
077FFFFF
0700E700
0F10E718
0F10E73C
0E1FFFFE
0E18E718
1E18E718
1E18E718
1E18E718
1E18E718
3E1FFFF8
7E1FFFF8
6E180018
EE000070
CE1FFFF8
8E1FFFF8
0E000000
0E00000E
0EFFFFFF
0EFFFFFF
0E081800
0E0F18E0
0E1E1878
0E1C183C
0E18181E
0E71F80F
0EE0700E
0EC0700C
0F006000
ENDCHAR

STARTCHAR jisx0212_3235
ENCODING 12853
SWIDTH 960 0
DWIDTH 32 0
BBX 32 32 0 -2
BITMAP
0780700E
077FF9FF
073FF9FF
0701F07E
070770EE
0F0E71CE
0F0C738E
0E18F71E
0E61F07E
1E0370EE
1E0770CE
1E0E798E
1E18F60E
3E21E700
7E03C300
6E0781E0
EE0F10F8
CE1E387F
8E3C783F
0EF0F11E
0F81E7E6
0E0F0F08
0E0F0F0C
0E781E1F
0E00F078
0E03C1F0
0E0783F0
0E1E0F80
0E007E00
0E03F000
0E07F000
0E7E0000
ENDCHAR

STARTCHAR jisx0212_3236
ENCODING 12854
SWIDTH 960 0
DWIDTH 32 0
BBX 32 32 0 -2
BITMAP
07878080
070700F0
070700F0
070718E0
07FFFEE0
0F0701E0
0F0701C0
0E070180
0E677187
1E7FF9FF
1E7FFBFF
1E667718
1E667718
3E667718
7E667718
6E7FF918
EE667118
CE667198
8E667198
0E667098
0E7FF090
0E6770F0
0E0730F0
0E0708F0
0FFFFF98
0E070398
0E07039C
0E07071E
0E070E0F
0E071C0E
0E07380E
0E077006
ENDCHAR

STARTCHAR jisx0212_3237
ENCODING 12855
SWIDTH 960 0
DWIDTH 32 0
BBX 32 32 0 -2
BITMAP
07000000
07F0C00C
07F0E60E
071FF7FF
0718E70E
0F18E70E
0F1CE70E
0E1FE7FE
0E186706
1E186706
1E1C6706
1E1FF7FF
1E0FE1FE
3E000000
7E000000
6E01E1E0
EE01818E
CE3FFFFF
8E3FFFFF
0E018180
0E018186
0E01818F
0E03C3CF
0EFFFFFF
0E010000
0E03C380
0E07C3C0
0E0F00F0
0E1E001E
0EF0000F
0EF0000F
0F800007
ENDCHAR

STARTCHAR jisx0212_3238
ENCODING 12856
SWIDTH 960 0
DWIDTH 32 0
BBX 32 32 0 -2
BITMAP
07080080
07C701F0
07C701F0
07078180
0701070E
0F3FFFFF
0F3FFFFF
0E001800
0E001818
1E1FFFFC
1E1FFFFC
1E001800
1E00180E
3EFFFFFF
7EFFFFFF
6E081860
EE0718F8
CE0718E0
8E0718C0
0E06198E
0EFFFFFF
0E000000
0E000000
0E100018
0E1FFFFE
0E1C003C
0E180018
0E180018
0E180018
0E1FFFF8
0E1FFFF8
0E180018
ENDCHAR

STARTCHAR jisx0212_3239
ENCODING 12857
SWIDTH 960 0
DWIDTH 32 0
BBX 32 32 0 -2
BITMAP
07001E00
07C81C30
07CC3C70
070FFFF8
070E1870
0F0E1870
0F0E3C70
0E0FFFF0
0E0E1870
1E00180C
1E003C0E
1EFFFFFF
1E000000
3E080030
7E0C0070
6E0FFFF8
EE0E0070
CE0FFFF0
8E0FFFF0
0E0E0070
0E0FFFF0
0E0E0070
0E0E0070
0E0E0070
0E0FFFF0
0E0E0070
0E0E0070
0E010780
0E07E0F8
0E1F003C
0E3F001E
0EF0000E
ENDCHAR

STARTCHAR jisx0212_323A
ENCODING 12858
SWIDTH 960 0
DWIDTH 32 0
BBX 32 32 0 -2
BITMAP
07000180
07C1FFC0
07C1FFC0
07080080
070F00E0
0F1E0378
0F1E077C
0E1FFF9F
0E70EE0E
1EF0EE1E
1EF0EE3C
1F1FFFF8
1E18EE98
3E19CFF8
7E1F8FF8
6E1F0798
EE180018
CE1FFFF8
8E1FFFF8
0E180018
0E1FFFF8
0E1C03F8
0E180198
0E000187
0EFFFFFF
0E0E03C0
0E0E0180
0E078180
0E019F80
0E010700
0E010700
0E000600
ENDCHAR

STARTCHAR jisx0212_323B
ENCODING 12859
SWIDTH 960 0
DWIDTH 32 0
BBX 32 32 0 -2
BITMAP
07878080
070700F0
070700F0
076760E0
077F70E0
0F7739E0
0F7719C0
0E771980
0EE71987
1EE701FF
1EC701FF
1E877118
1F7FFF18
3E607718
7E607718
6E607718
EE697918
CE6FF198
8E6FF198
0E697098
0E697090
0E6970F0
0E6970F0
0E6970F0
0E6F70F8
0E6F71F8
0E69719C
0E60719E
0E67F70F
0E60EE0E
0E60EC0E
0E609806
ENDCHAR

STARTCHAR jisx0212_323C
ENCODING 12860
SWIDTH 960 0
DWIDTH 32 0
BBX 32 32 0 -2
BITMAP
07800800
0700C810
0700EC30
077FFE7E
0700E6F0
0F01E708
0F21C30C
0E19811F
0E1F81F8
1E0F00E0
1E0F00E0
1E0E0778
1E1FFF9F
3E30000E
7E70000E
6EF00076
EE1FFFF8
CE1C0070
8E180070
0E180070
0E180070
0E1FFFF0
0E1FFFF0
0E060100
0E0701E0
0E0383C0
0E018780
0E018708
0E010E1E
0EFFFFFF
0EFFFFFF
0E000000
ENDCHAR

STARTCHAR jisx0212_323D
ENCODING 12861
SWIDTH 960 0
DWIDTH 32 0
BBX 32 32 0 -2
BITMAP
07800000
0740000C
0760000E
077FFFFF
0770000E
0F70000E
0F70000E
0E7FFFFE
0E70006E
1E70FFF0
1E70FFF0
1E700180
1E70070E
3E73FFFF
7E73FFFF
6E700700
EE707F00
CE700E00
8E700C00
0E70180E
0E7FFFFF
0E70703C
0E707038
0E70E070
0EE0FE77
0EFFE7FF
0EFFE3FF
0EEEE070
0E80E070
0F0FE3F0
0F0FC3F0
0E0180E0
ENDCHAR

STARTCHAR jisx0212_323E
ENCODING 12862
SWIDTH 960 0
DWIDTH 32 0
BBX 32 32 0 -2
BITMAP
07861810
0707981C
0707983C
070F1878
070E1870
0F9D1CE8
0FB93ECC
0E71F98F
0E77999E
1E77199C
1E3719B8
1E0E1870
1E1998EE
3EFFFFFF
7EFFFFFF
6E78F987
EE601E60
CE000E73
8E000E77
0EFFFFFF
0E180E10
0E180F1C
0E1C0F3C
0E1F0778
0E79E7F1
0E70E3E1
0E70C3E3
0E7087F7
0EE01F7E
0EC0FC3F
0E80F81F
0F078007
ENDCHAR

STARTCHAR jisx0212_323F
ENCODING 12863
SWIDTH 960 0
DWIDTH 32 0
BBX 32 32 0 -2
BITMAP
078001E0
07003FF8
07007FF8
077FFE10
0708601E
0F0C703C
0F0E3078
0E071870
0E0718E0
1E0610CC
1E6630CE
1E7FFFFF
1EE8000F
3FEF001C
7FCF0038
6E8E6070
EE1FF876
CE1CEFFF
8E38EFFF
0E70EE70
0E718E70
0EF98E70
0EFF8E70
0E8F0E77
0F0F7FFF
0E0E0070
0E0C0070
0E180070
0E700070
0EE00070
0EC00070
0F000070
ENDCHAR

STARTCHAR jisx0212_3240
ENCODING 12864
SWIDTH 960 0
DWIDTH 32 0
BBX 32 32 0 -2
BITMAP
07800000
0740C00C
0760E60E
077FF7FF
0770E70E
0F70E70E
0F70E70E
0E7FE7FE
0E70E70E
1E000000
1E000000
1E100018
1E1FFFFE
3E1C3C3C
7E181818
6E181818
EE1FFFF8
CE1C3C38
8E181818
0E181818
0E1FFFF8
0E1C3C38
0E181818
0E001806
0E00180F
0EFFFFFF
0EFFFFFF
0E001800
0E001800
0E001800
0E001800
0E001800
ENDCHAR

STARTCHAR jisx0212_3241
ENCODING 12865
SWIDTH 960 0
DWIDTH 32 0
BBX 32 32 0 -2
BITMAP
070781E0
07C701D0
07C70190
07070188
0707198E
0FFFFF8E
0FFFFF8C
0E000180
0E000FFF
1E0033C0
1E607180
1E7FF980
1E707180
3E7071F8
7E7071F8
6E7071F0
EE7FF1F0
CE7771F0
8E7733F0
0E6707F0
0E7F8770
0E774770
0E776770
0E777776
0EE77E76
0EE76E76
0EC72C76
0E871877
0F7F707F
0E0EE03E
0E0EC01C
0E098000
ENDCHAR

STARTCHAR jisx0212_3242
ENCODING 12866
SWIDTH 960 0
DWIDTH 32 0
BBX 32 32 0 -2
BITMAP
07001E00
07C01C18
07E03C3C
071FFFFE
07001800
0F0398F0
0F0798F0
0E0700E7
0EFFFFFF
1E0700E0
1E0700E0
1E0700E0
1E100018
3E1FFFFC
7E1FFFFC
6E180018
EE180018
CE1FFFF8
8E1FFFF8
0E180018
0E180018
0E1FFFF8
0E1FFFF8
0E180018
0E180018
0E1FFFF8
0E1FFFF8
0E010180
0E0FE078
0E3F003F
0E7F001F
0FE00007
ENDCHAR

STARTCHAR jisx0212_3243
ENCODING 12867
SWIDTH 960 0
DWIDTH 32 0
BBX 32 32 0 -2
BITMAP
07E0E60E
077FF7FF
077FF7FF
0770E70E
0770E70E
0F7FE7FE
0F7FE7FE
0E70E70E
0E70E70E
1E70E70E
1E70E70E
1E7FE7FE
1E70E70E
3E70000E
7E70000E
6E71070E
EE71FF8E
CE71C70E
8E71870E
0E71870E
0E71FF0E
0E71C70E
0E71870E
0E71870E
0E71FF0E
0E71C70E
0E73870E
0E77070E
0E777F0E
0E760EFE
0E740CFC
0E780018
ENDCHAR

STARTCHAR jisx0212_3244
ENCODING 12868
SWIDTH 960 0
DWIDTH 32 0
BBX 32 32 0 -2
BITMAP
07801E00
07101C00
07101860
070E18F8
070F18E0
0F0619CC
0F063FCE
0E7FFFFF
0E00FE00
1E01FF00
1E03FF00
1E0799E0
1E0F18F8
3E3C187F
7E78183F
6EF01808
EE1E0078
CE1CC070
8E1CE070
0E1FF876
0E70EFFF
0E71EE70
0E71CE70
0EF98E70
0E8F8E71
0F0F7FFF
0F0F3FFF
0E0E0070
0E180070
0E300070
0E700070
0E800070
ENDCHAR

STARTCHAR jisx0212_3245
ENCODING 12869
SWIDTH 960 0
DWIDTH 32 0
BBX 32 32 0 -2
BITMAP
079000F0
07181FFC
071C3FFC
071FFF00
07180000
0F18000C
0F1C000E
0E1FFFFF
0E18000E
1E18000E
1E1C000E
1E1FFFFE
1E18810E
3E18F1C0
7E18F1C0
6E18E180
EE19E70E
CE19FFFF
8E19FFFF
0E198700
0E778718
0E77FFFC
0E77FFFC
0E798700
0E718718
0EE1FFFC
0EE1FFFC
0EE18700
0E81870E
0F01FFFF
0F01FFFF
0E018000
ENDCHAR

STARTCHAR jisx0212_3246
ENCODING 12870
SWIDTH 960 0
DWIDTH 32 0
BBX 32 32 0 -2
BITMAP
07900010
07180038
071C007C
071FFFFE
0718E718
0F18E718
0F18E718
0E18E718
0E1FE7F8
1E1CE738
1E18E71C
1E60E70E
1E7FE7FF
3E70E70F
7E70E70F
6E70E70E
EE70E70E
CE7FE7FE
8E7FE7FE
0E70E70E
0E70E70E
0E70E70E
0E70E70E
0E7FE7FE
0E70E70E
0E70E706
0E30E706
0E00E706
0E00E00E
0E00FFFF
0E00FFFF
0E007FFE
ENDCHAR

STARTCHAR jisx0212_3247
ENCODING 12871
SWIDTH 960 0
DWIDTH 32 0
BBX 32 32 0 -2
BITMAP
070600E0
07C7FFF0
07C7FFF0
070700E0
070700E0
0F0700E0
0F0700E0
0E07FFE0
0E0700E0
1E00C00C
1E60E60E
1E7FF7FF
1E70E70E
3E70E70E
7E70E70E
6E70E70E
EE7FE7FE
CE70E70E
8E30E70C
0E001800
0E00180E
0EFFFFFF
0EFFFFFF
0E00FF00
0E01F980
0E03F8F0
0E0798F0
0E0F187E
0E78181F
0FE01806
0FC01800
0E001800
ENDCHAR

STARTCHAR jisx0212_3248
ENCODING 12872
SWIDTH 960 0
DWIDTH 32 0
BBX 32 32 0 -2
BITMAP
078001E0
07003FF8
07007FF8
077FFE60
07086078
0F0410F0
0F0610F0
0E0718E0
0E66118E
1E7FFFFF
1E7FFFFF
1EE0100F
1FE98E70
3EC98EB8
7E898C9C
6E19808E
EE79FFEE
CE30FFC0
8E10FF80
0E01E000
0E0180E0
0E03FFF0
0E07FFF0
0E0F81E0
0E18E780
0E307F00
0E707F00
0EE07F00
0E01F7F0
0E1FC0FF
0E3F80FF
0EF80018
ENDCHAR

STARTCHAR jisx0212_3249
ENCODING 12873
SWIDTH 960 0
DWIDTH 32 0
BBX 32 32 0 -2
BITMAP
07001E00
07C01C08
07C0180C
0700181E
077FFFFF
0F000000
0F000000
0E100018
0E1FFFFE
1E1C003E
1E18001C
1E18FF18
1E18E718
3E18FF18
7E18FF18
6E180018
EE1FFFF8
CE1C0038
8E180038
0E080070
0E0FFFF8
0E0E0070
0E0E0070
0E0FFFF0
0E0E0070
0E0FFFF0
0E0FFFF0
0E0E0076
0E00000F
0EFFFFFF
0EFFFFFF
0E000000
ENDCHAR

STARTCHAR jisx0212_324A
ENCODING 12874
SWIDTH 960 0
DWIDTH 32 0
BBX 32 32 0 -2
BITMAP
07908080
071CF0F0
071CF0F0
0718E0E0
0718E8E0
0FFFFFE0
0FFFFFC0
0E18E187
0E18E1FF
1E3001FC
1E700398
1E707718
1E7FFF18
3E607718
7E607718
6EE77918
EEFFF118
CEE77198
8EE77198
0F677098
0E677090
0E6770F0
0E6770F0
0E7F70F0
0E677198
0E60F198
0E00F39C
0E00E71E
0E0FEE0F
0E03DC0E
0E01B80E
0E017006
ENDCHAR

STARTCHAR jisx0212_324B
ENCODING 12875
SWIDTH 960 0
DWIDTH 32 0
BBX 32 32 0 -2
BITMAP
07900018
071FFFFC
071FFFFC
0718E718
0718E718
0F18E718
0F1CE738
0E1FFFF8
0E180018
1E00000C
1E00000E
1EFFFFFF
1E000000
3E100018
7E10003C
6E1FFFFE
EE180018
CE180018
8E180018
0E180018
0E1FFFF8
0E13E608
0E13C60C
0E07871F
0E0F8178
0E3F81E0
0E7981E0
0F819EF0
0E7FF07E
0E3E003F
0E1C001F
0E100008
ENDCHAR

STARTCHAR jisx0212_324C
ENCODING 12876
SWIDTH 960 0
DWIDTH 32 0
BBX 32 32 0 -2
BITMAP
07007E00
07C07C00
07C07800
0700F600
0701E700
0F01C3C0
0F0383E0
0E070778
0E0FFF9F
1E1C000E
1E38000E
1E700006
1EFFFFFF
3E3F3CCE
7E1918CE
6E1998EE
EE18F98E
CE18F90E
8E1CFF0E
0E1FFFFE
0E060010
0E07FFF8
0E07FFF8
0E070070
0E070070
0E07FFF0
0E07FFF0
0E070070
0E070070
0E07FFF0
0E07FFF0
0E070070
ENDCHAR

STARTCHAR jisx0212_324D
ENCODING 12877
SWIDTH 960 0
DWIDTH 32 0
BBX 32 32 0 -2
BITMAP
07078000
07C70180
07C703C0
070FFFE0
070E0186
0F1C020F
0F1C060F
0E1FFFFF
0E787186
1EF8F186
1EF8F1C6
1F98E1FF
1E1980FE
3E1E0000
7E1C0000
6E187FE0
EE18000E
CE1FFFFF
8E1FFFFF
0E180000
0E18FFF8
0E180000
0E180000
0E18FFF8
0E710008
0E71FFFC
0E71FFFC
0E718018
0EE18018
0EC1FFF8
0E81FFF8
0F018018
ENDCHAR

STARTCHAR jisx0212_324E
ENCODING 12878
SWIDTH 960 0
DWIDTH 32 0
BBX 32 32 0 -2
BITMAP
07878080
070700F0
070700F0
076670E0
077FF8E0
0F7071E0
0F7071C0
0E707187
0E7FF1FF
1E70713C
1E707318
1E707718
1E7FF718
3E767718
7E367718
6E078918
EE071118
CEFFF998
8EFFF998
0E180098
0E18E090
0E1FF0F0
0E1FF0F0
0E18E0F0
0E78E198
0E70E198
0E70E39C
0E71E71E
0EE18E0F
0EDF9C0E
0E9FB80E
0F077006
ENDCHAR

STARTCHAR jisx0212_324F
ENCODING 12879
SWIDTH 960 0
DWIDTH 32 0
BBX 32 32 0 -2
BITMAP
07807080
071C39CF
071C1BCF
0718E78E
071F7F0E
0F1F3ECE
0F193EEE
0E18777E
0E19E18E
1E1F188E
1E1F1C8E
1E180E0E
1E1FFFFE
3E1FC70E
7E19870E
6E018706
EE0707FF
CE0EF3FE
8E0CF1FC
0E78E010
0EE1FFF8
0E03C0F0
0E07C0F0
0E0EE1E0
0E187780
0E303F00
0E703F00
0E80F7E0
0E07E1FF
0E1F007E
0E3F003C
0EF00008
ENDCHAR

STARTCHAR jisx0212_3250
ENCODING 12880
SWIDTH 960 0
DWIDTH 32 0
BBX 32 32 0 -2
BITMAP
0F0F01E0
0E0E01D8
0E0E019C
0E0E718E
0EFFF98E
1E0E0180
1C0E0180
180E018E
19FFFFFF
180E03C0
380E0180
780E7188
79FFF98F
780E018E
780E018E
F90E718E
99FFF99E
19CE709C
19CE70F8
19FFF0F8
198E70F8
19FFF070
19FFF070
198E70F1
180E10F9
1FFFF9F9
1FFFFB9F
180E071F
180E0E0E
180E1C0F
180E380F
180E7007
ENDCHAR

STARTCHAR jisx0212_3251
ENCODING 12881
SWIDTH 960 0
DWIDTH 32 0
BBX 32 32 0 -2
BITMAP
07800006
0700000F
0700000F
077FFFFF
0700E700
0F10E70C
0F10E70E
0E1FFFFF
0E18E70E
1E18E70E
1E18E70E
1E18E70E
1E1FFFFE
3E1C000E
7E1C000C
6E0E0070
EE0E6070
CE0FF070
8E0FF076
0E18FFFF
0E18E870
0E31EF70
0E71CF70
0E798E70
0E8F8E77
0E071FFF
0E071FFF
0E0E1870
0E180070
0E300070
0E700070
0F800070
ENDCHAR

STARTCHAR jisx0212_3252
ENCODING 12882
SWIDTH 960 0
DWIDTH 32 0
BBX 32 32 0 -2
BITMAP
07801E00
07001C00
07001800
0710180E
071FFFFF
0F3000CF
0F7000CF
0EF7FFF8
0E611860
1E03F8F8
1E07FCF8
1E0F1FE0
1E781F00
3EE1FC18
7EE3FC3C
6E1FFFFE
EFEE0018
CE0E0018
8E0E0038
0E0FFFF8
0E0E0018
0E0FFFF8
0E0FFFF8
0E0E0018
0E0E0018
0E0FFFF8
0E0FFFF8
0E010000
0E07E1F0
0E1F007C
0E3F003E
0EF0000F
ENDCHAR

STARTCHAR jisx0212_3253
ENCODING 12883
SWIDTH 960 0
DWIDTH 32 0
BBX 32 32 0 -2
BITMAP
07E00000
0778800C
0778C00E
0771EFFF
0777800E
0F7E031C
0F7C0338
0E7061F0
0E7060E0
1E7FF070
1E3FF070
1E1FE066
1E601FFF
3E7800E7
7E7800E7
6E7080EE
EEFFE8E8
CEEE0FE0
8ECE0FE0
0F8E0EE6
0E0E6EFF
0FFFFEE0
0FFFFCE0
0E1808E0
0E1F1EE0
0E3F9FE0
0E799FE0
0E7191E0
0EE170FF
0EC0603E
0E80401C
0F008000
ENDCHAR

STARTCHAR jisx0212_3254
ENCODING 12884
SWIDTH 960 0
DWIDTH 32 0
BBX 32 32 0 -2
BITMAP
07800700
07408718
0720C73C
0718FFFE
070EE718
0F0EE718
0F0CE738
0E00FFF8
0F00E718
1EC00704
1EE00706
1E77FFFF
1E708008
3E00FFFC
7E00FFFC
6E00E018
EE18E018
CEFCFFF8
8EFCFFF8
0E18E000
0E18E00E
0E18FFFF
0E18FFFF
0E18E00E
0E18E00E
0E18FFFE
0E3CFFFE
0E7EE00E
0FF78000
0EE3FFFF
0EC1FFFF
0E807FFE
ENDCHAR

STARTCHAR jisx0212_3255
ENCODING 12885
SWIDTH 960 0
DWIDTH 32 0
BBX 32 32 0 -2
BITMAP
078F0000
070E0000
070C0000
0718000E
071FFFFF
0F3E6670
0F7E6670
0EEE6670
0E0E6676
1EFFFFFF
1EFFFFFF
1E0E6670
1E0E6670
3E0E6670
7E0E6676
6EFFFFFF
EE0E0000
CE0E0030
8E0E6070
0E1FF876
0E18EFFF
0E30EE70
0E70CE70
0E798E70
0E8F8E77
0F077FFF
0F073FFF
0E0E0070
0E180070
0E300070
0E700070
0E800070
ENDCHAR

STARTCHAR jisx0212_3256
ENCODING 12886
SWIDTH 960 0
DWIDTH 32 0
BBX 32 32 0 -2
BITMAP
07801E00
07001C00
07001800
0710180E
071FFFFF
0F30300F
0F70100F
0EF18E08
0E698E98
1E19808C
1E39C0CE
1E79FFE7
1E70FF86
3E300018
7E10003C
6E1FFFFE
EE18E718
CE18E718
8E18E718
0E18E719
0EFFFFFF
0E000000
0E000000
0E000018
0E7FFFFE
0E003C00
0E001800
0E001800
0E01F800
0E007000
0E007000
0E006000
ENDCHAR

STARTCHAR jisx0212_3257
ENCODING 12887
SWIDTH 960 0
DWIDTH 32 0
BBX 32 32 0 -2
BITMAP
078780F0
070700E0
070700E0
071766E6
071776EF
0F378EFC
0F778EF8
0EF71EE0
0E6708E0
1E0F81F8
1E0FC1FC
1E0EE19E
1E78E708
3E60080C
7E600C0E
6EFFFFFF
EFE0100F
CEC01C10
8E801C10
0E00180E
0EFFFFFF
0E00FE00
0E00FE00
0E01FF00
0E0799E0
0E0F18F8
0E0F18FC
0E7E187F
0EF0181E
0FC01806
0F801800
0E001800
ENDCHAR

STARTCHAR jisx0212_3258
ENCODING 12888
SWIDTH 960 0
DWIDTH 32 0
BBX 32 32 0 -2
BITMAP
07800008
0700001C
0700003E
077FFFFF
07061800
0F0799C0
0F0799E0
0E0F187E
0E1E180F
1EF01807
1EF03C07
1F7FFFFE
1E70986E
3E7CFF7E
7E7EFF7E
6E7799EE
EE7198EE
CE73F9FE
8E77FFFE
0E7E7F1E
0E70986E
0E7CFF7E
0E7EFF7E
0E7799EE
0E7198EE
0E73F9FE
0E77FFFE
0E7E7F1E
0E781E0E
0E701CFE
0E7018FC
0E701818
ENDCHAR

STARTCHAR jisx0212_3259
ENCODING 12889
SWIDTH 960 0
DWIDTH 32 0
BBX 32 32 0 -2
BITMAP
07800E00
07100E03
07100E07
071FFFFF
07180000
0F183030
0F187070
0E187076
0E1FFFFF
1E1C7070
1E187070
1E187FF0
1E187070
3E180003
7E1C0007
6E1FFFFF
EE180700
CE19070C
8E19070E
0E19FFFF
0E79870E
0E71FFFE
0E71FFFE
0E71870E
0E71870E
0EE1FFFE
0EE1FFFC
0EE06000
0E80F8F8
0F03E03F
0F07C01F
0E1E0007
ENDCHAR

STARTCHAR jisx0212_325A
ENCODING 12890
SWIDTH 960 0
DWIDTH 32 0
BBX 32 32 0 -2
BITMAP
07870180
07071188
070733CC
077FFFFE
07070180
0F07118C
0F0733CE
0EFFFFFF
0E0F0760
1E0EC770
1E0CE730
1E18EE1E
1E70181F
3EEFFFF6
7ECFFFF0
6E0E0070
EE0E0070
CE0FFFF0
8E0FFFF0
0E0E0070
0E0E0070
0E0FFFF0
0E0FFFF0
0E0E0070
0E0E0070
0E0FFFF0
0E0FFFF0
0E010000
0E0FE1F8
0E3F003F
0E7F001F
0FE00007
ENDCHAR

STARTCHAR jisx0212_325B
ENCODING 12891
SWIDTH 960 0
DWIDTH 32 0
BBX 32 32 0 -2
BITMAP
07808010
0743C8FC
0767CCFC
077F0FE0
07700E00
0F70CE0C
0F70EE0E
0E7FFFFF
0E718E70
1E718E70
1E718C70
1EE19870
1EE01000
3EDFFFF8
7E9FFFF8
6F180018
EE180018
CE1FFFF8
8E1FFFF8
0E180018
0E180018
0E1FFFF8
0E1FFFF8
0E180018
0E180018
0E1FFFF8
0E1FFFF8
0E010000
0E0FE1F8
0E3F003F
0E7F001F
0FF00007
ENDCHAR

STARTCHAR jisx0212_325C
ENCODING 12892
SWIDTH 960 0
DWIDTH 32 0
BBX 32 32 0 -2
BITMAP
0F0F060E
0E0E07FF
0E0E07FF
0E0E670E
0EFFF70E
1E0E070E
1C0E070E
180E67FE
18FFF70E
180E070E
380E070E
780E770E
79FFFFFE
7800070E
7800070E
F880E70E
98FFF70E
18EEE7FE
18EEE7FC
18EEE670
18EEE7F0
18EEE770
18EEE770
18FFE770
18E0E776
18E0EF76
18E0EF76
18E0EE76
18EFEE77
18E3DC7F
18E1B83F
18E1701E
ENDCHAR

STARTCHAR jisx0212_325D
ENCODING 12893
SWIDTH 960 0
DWIDTH 32 0
BBX 32 32 0 -2
BITMAP
0F0E060E
0E0F87FF
0E0F87FF
0E0E070E
0E0E670E
1EFFF70E
1CFFF70E
188107FE
1861E70E
1871C70E
3873870E
7877070E
786677FE
79FFFF0E
79FFFF0E
F80E070E
980E070E
180E07FE
180E67FC
18FFF670
181E07F0
181F0770
183F0770
187F8770
187EE776
18EEEF76
18CECF76
188E0E76
190E0E77
1E0E1C7F
1C0E383F
180E701E
ENDCHAR

STARTCHAR jisx0212_325E
ENCODING 12894
SWIDTH 960 0
DWIDTH 32 0
BBX 32 32 0 -2
BITMAP
07887800
070F70C0
070F70E0
070E7078
0718E19E
0F1FFFEE
0F3FFFCC
0E70E800
0E818618
1EFFFFFC
1EFFFFFC
1E070180
1E0E00E0
3E1FFFF8
7E3FFFFC
6E7E181F
EEEFFFEE
CF0E3C06
8F0E3C00
0E0FFFE0
0E0E1800
0E0E1818
0E0E3C3C
0E0FFFFE
0E0E661E
0E11119C
0E311198
0E719998
0EF19878
0EE107F0
0EC103F0
0E0000E0
ENDCHAR

STARTCHAR jisx0212_325F
ENCODING 12895
SWIDTH 960 0
DWIDTH 32 0
BBX 32 32 0 -2
BITMAP
0F1E0F00
0E1C0E00
0E180E00
0E188E18
0FFFEFFE
1EC30E00
1C810E00
18618E18
18710FFE
18730E3C
38770C18
78666018
7FFFF818
7C000FF8
78000FF8
F8818E00
98FFEE18
18E3CFFC
18E18FFC
18E18E00
18FF8E18
18E38FFC
18E18FFC
18E18E00
18FF8E18
18E38FFC
18E18FFE
18E18E06
18E18E0E
18EF8FFF
18EF8FFF
18E707FE
ENDCHAR

STARTCHAR jisx0212_3260
ENCODING 12896
SWIDTH 960 0
DWIDTH 32 0
BBX 32 32 0 -2
BITMAP
0701E000
07C3C100
07C7C300
0707FF80
070E0618
0F1FFFFC
0F3FFFFC
0E7E0018
0EEFFFF8
1E0703CC
1E0701CC
1E07F9F8
1E070186
3E0739FF
7E0779FF
6E7FE0FE
EE198700
CE07FF80
8E07FF80
0E0E0E18
0E1FFFFE
0E3E3C3C
0E7E1818
0EEE1818
0E0FFFF8
0E0E7EC0
0E0C7E80
0E00FE76
0E07EE16
0E1F0FFF
0E3F0FFF
0EF007FE
ENDCHAR

STARTCHAR jisx0212_3261
ENCODING 12897
SWIDTH 960 0
DWIDTH 32 0
BBX 32 32 0 -2
BITMAP
07801800
0700180C
07003C0E
077FFFFF
07000000
0F10C018
0F10E63C
0E1FF7FE
0E18E718
1E1FE7F8
1E1FE7F8
1E18E718
1E000000
3E018308
7E03C70C
6E7FFFFE
EE018700
CE1FFFF8
8E1FFFF8
0E018706
0EFFFFFF
0E03EC0C
0E03C80C
0E07861F
0E1F0778
0EF703E0
0EF701E0
0F871EF8
0E7FF07F
0E3F000E
0E1F000E
0E100006
ENDCHAR

ENDFONT
